G04 EAGLE Gerber RS-274X export*
G75*
%MOMM*%
%FSLAX34Y34*%
%LPD*%
%INTop Copper*%
%IPPOS*%
%AMOC8*
5,1,8,0,0,1.08239X$1,22.5*%
G01*
%ADD10P,2.336880X8X22.500000*%
%ADD11P,1.429621X8X22.500000*%
%ADD12P,1.429621X8X202.500000*%
%ADD13P,1.732040X8X22.500000*%
%ADD14C,1.600200*%
%ADD15P,1.732040X8X202.500000*%
%ADD16C,2.000000*%
%ADD17R,2.000000X2.000000*%
%ADD18C,1.778000*%
%ADD19R,1.778000X1.778000*%
%ADD20R,1.524000X1.524000*%
%ADD21C,1.524000*%
%ADD22R,2.540000X2.540000*%
%ADD23C,2.540000*%
%ADD24R,1.422400X1.422400*%
%ADD25C,1.422400*%
%ADD26R,0.600000X0.850000*%
%ADD27R,1.498600X1.498600*%
%ADD28C,1.498600*%
%ADD29C,0.254000*%
%ADD30C,0.756400*%


D10*
X419100Y469900D03*
D11*
X165100Y127000D03*
X215900Y127000D03*
X774700Y419100D03*
X825500Y419100D03*
X774700Y368300D03*
X825500Y368300D03*
X774700Y393700D03*
X825500Y393700D03*
D12*
X825500Y203200D03*
X774700Y203200D03*
D11*
X774700Y317500D03*
X825500Y317500D03*
D13*
X508000Y266700D03*
D14*
X482600Y266700D03*
D13*
X406400Y330200D03*
D14*
X381000Y330200D03*
D15*
X571500Y330200D03*
D14*
X596900Y330200D03*
D11*
X76200Y152400D03*
X127000Y152400D03*
X76200Y177800D03*
X127000Y177800D03*
X165100Y203200D03*
X215900Y203200D03*
X863600Y127000D03*
X914400Y127000D03*
X152400Y317500D03*
X203200Y317500D03*
D13*
X508000Y139700D03*
D14*
X482600Y139700D03*
D12*
X825500Y127000D03*
X774700Y127000D03*
D13*
X508000Y203200D03*
D14*
X482600Y203200D03*
D12*
X825500Y152400D03*
X774700Y152400D03*
D11*
X774700Y177800D03*
X825500Y177800D03*
D12*
X203200Y342900D03*
X152400Y342900D03*
D16*
X520700Y469900D03*
D17*
X444500Y469900D03*
D18*
X501650Y76200D03*
D19*
X476250Y76200D03*
D20*
X152400Y419100D03*
D21*
X203200Y419100D03*
D22*
X76200Y469900D03*
D23*
X76200Y419100D03*
X76200Y368300D03*
D10*
X546100Y469900D03*
X25400Y152400D03*
X977900Y152400D03*
D24*
X660400Y203200D03*
D25*
X660400Y177800D03*
X736600Y177800D03*
X736600Y203200D03*
X660400Y152400D03*
X660400Y127000D03*
X736600Y152400D03*
X736600Y127000D03*
D24*
X254000Y203200D03*
D25*
X254000Y177800D03*
X330200Y177800D03*
X330200Y203200D03*
X254000Y152400D03*
X254000Y127000D03*
X330200Y152400D03*
X330200Y127000D03*
D10*
X25400Y127000D03*
D22*
X730250Y273050D03*
D23*
X679450Y273050D03*
X628650Y273050D03*
D10*
X977900Y127000D03*
D26*
X130200Y254700D03*
X149200Y254700D03*
X139700Y278700D03*
X54000Y254700D03*
X73000Y254700D03*
X63500Y278700D03*
D12*
X139700Y127000D03*
X63500Y127000D03*
D11*
X558800Y177800D03*
X635000Y177800D03*
D12*
X635000Y203200D03*
X558800Y203200D03*
D11*
X139700Y368300D03*
X215900Y368300D03*
X762000Y342900D03*
X838200Y342900D03*
X139700Y393700D03*
X215900Y393700D03*
X850900Y177800D03*
X927100Y177800D03*
X850900Y203200D03*
X927100Y203200D03*
X533400Y76200D03*
X609600Y76200D03*
D12*
X139700Y203200D03*
X63500Y203200D03*
X228600Y152400D03*
X152400Y152400D03*
D11*
X850900Y152400D03*
X927100Y152400D03*
X152400Y177800D03*
X228600Y177800D03*
D12*
X431800Y203200D03*
X355600Y203200D03*
D11*
X355600Y177800D03*
X431800Y177800D03*
X355600Y152400D03*
X431800Y152400D03*
X355600Y127000D03*
X431800Y127000D03*
D12*
X635000Y127000D03*
X558800Y127000D03*
D11*
X558800Y152400D03*
X635000Y152400D03*
D10*
X749300Y76200D03*
X774700Y76200D03*
X368300Y76200D03*
X342900Y76200D03*
X215900Y76200D03*
X241300Y76200D03*
X266700Y76200D03*
X635000Y76200D03*
X660400Y76200D03*
D22*
X347980Y273050D03*
D23*
X297180Y273050D03*
X246380Y273050D03*
D27*
X457200Y393700D03*
D28*
X457200Y368300D03*
X457200Y342900D03*
X457200Y317500D03*
X533400Y317500D03*
X533400Y342900D03*
X533400Y368300D03*
X533400Y393700D03*
D22*
X927100Y368300D03*
D23*
X927100Y419100D03*
X927100Y469900D03*
D29*
X279400Y101600D02*
X254000Y127000D01*
X279400Y101600D02*
X571500Y101600D01*
X647700Y139700D02*
X660400Y127000D01*
X647700Y139700D02*
X609600Y139700D01*
X571500Y101600D01*
D30*
X609600Y139700D03*
X76200Y228600D03*
D29*
X54000Y250800D01*
X54000Y254700D01*
X825500Y228600D02*
X850900Y203200D01*
X825500Y228600D02*
X254000Y228600D01*
D30*
X254000Y228600D03*
D29*
X431800Y203200D02*
X469900Y165100D01*
X495300Y165100D01*
X508000Y152400D01*
X508000Y139700D01*
X344678Y141478D02*
X330200Y127000D01*
X355600Y167846D02*
X355600Y177800D01*
X344678Y156924D02*
X344678Y141478D01*
X344678Y156924D02*
X355600Y167846D01*
X368300Y139700D02*
X355600Y127000D01*
X368300Y139700D02*
X482600Y139700D01*
X635000Y152400D02*
X660400Y152400D01*
X673100Y152400D01*
X749300Y76200D01*
X635000Y152400D02*
X584200Y152400D01*
X558800Y127000D01*
X508000Y177800D02*
X482600Y203200D01*
X508000Y177800D02*
X558800Y177800D01*
X558800Y203200D02*
X508000Y203200D01*
X558800Y203200D02*
X584200Y177800D01*
X630476Y188722D02*
X639524Y188722D01*
X619554Y177800D02*
X584200Y177800D01*
X650446Y177800D02*
X660400Y177800D01*
X630476Y188722D02*
X619554Y177800D01*
X639524Y188722D02*
X650446Y177800D01*
X660400Y177800D02*
X673100Y165100D01*
X762000Y152400D02*
X774700Y152400D01*
X762000Y152400D02*
X749300Y165100D01*
X673100Y165100D01*
X660400Y203200D02*
X635000Y203200D01*
X825500Y177800D02*
X825500Y152400D01*
X685800Y203200D02*
X660400Y203200D01*
X685800Y203200D02*
X698500Y190500D01*
X812800Y190500D02*
X825500Y177800D01*
X812800Y190500D02*
X698500Y190500D01*
X850900Y410416D02*
X842216Y419100D01*
X825500Y419100D01*
X850900Y355600D02*
X838200Y342900D01*
X850900Y355600D02*
X850900Y410416D01*
X774700Y368300D02*
X774700Y355600D01*
X762000Y342900D01*
X367030Y292100D02*
X347980Y273050D01*
X609600Y292100D02*
X660400Y342900D01*
X762000Y342900D01*
X609600Y292100D02*
X367030Y292100D01*
X246380Y317500D02*
X233680Y330200D01*
X246380Y317500D02*
X246380Y273050D01*
X233680Y330200D02*
X233680Y335280D01*
X317500Y419100D01*
X774700Y419100D01*
X233680Y375920D02*
X215900Y393700D01*
X233680Y375920D02*
X233680Y335280D01*
X825500Y203200D02*
X850900Y177800D01*
X850900Y152400D02*
X863600Y139700D01*
X863600Y127000D01*
X927100Y177800D02*
X927100Y203200D01*
X927100Y177800D02*
X876300Y177800D01*
X850900Y152400D01*
X748030Y140970D02*
X736600Y152400D01*
X748030Y140970D02*
X748030Y128270D01*
X762000Y114300D01*
X850900Y114300D02*
X863600Y127000D01*
X850900Y114300D02*
X762000Y114300D01*
X297180Y273050D02*
X297180Y373380D01*
X723900Y393700D02*
X774700Y393700D01*
X330200Y406400D02*
X297180Y373380D01*
X330200Y406400D02*
X711200Y406400D01*
X723900Y393700D01*
X647700Y292100D02*
X628650Y273050D01*
X647700Y292100D02*
X728980Y292100D01*
X812800Y375920D01*
X812800Y381000D01*
X825500Y393700D01*
X914400Y139700D02*
X914400Y127000D01*
X914400Y139700D02*
X927100Y152400D01*
X743712Y170688D02*
X736600Y177800D01*
X743712Y170688D02*
X751615Y170688D01*
X757203Y165100D02*
X787400Y165100D01*
X757203Y165100D02*
X751615Y170688D01*
X787400Y165100D02*
X812800Y139700D01*
X850900Y139700D01*
D30*
X850900Y139700D03*
D29*
X825500Y317500D02*
X839978Y331978D01*
X842724Y331978D01*
X901700Y390954D01*
X901700Y444500D02*
X927100Y469900D01*
X901700Y444500D02*
X901700Y390954D01*
X533400Y76200D02*
X501650Y76200D01*
X609600Y76200D02*
X635000Y76200D01*
X381000Y330200D02*
X419100Y368300D01*
X457200Y368300D01*
X444500Y330200D02*
X406400Y330200D01*
X444500Y330200D02*
X457200Y317500D01*
X63500Y127000D02*
X25400Y127000D01*
X139700Y127000D02*
X165100Y127000D01*
X139700Y139700D02*
X127000Y152400D01*
X139700Y139700D02*
X139700Y127000D01*
X215900Y127000D02*
X228600Y139700D01*
X228600Y152400D01*
X228600Y162354D01*
X239522Y173276D01*
X239522Y217678D01*
X178500Y278700D02*
X139700Y278700D01*
X178500Y278700D02*
X239522Y217678D01*
X139700Y190500D02*
X127000Y177800D01*
X139700Y190500D02*
X139700Y203200D01*
X149200Y212700D01*
X149200Y254700D01*
X215900Y203200D02*
X228600Y190500D01*
X228600Y177800D01*
X142200Y266700D02*
X130200Y254700D01*
X142200Y266700D02*
X152400Y266700D01*
X215900Y203200D01*
X228600Y114300D02*
X215900Y101600D01*
X144574Y101600D01*
X76200Y419100D02*
X64833Y419100D01*
X21082Y375349D01*
X21082Y214932D01*
X81836Y164338D02*
X144574Y101600D01*
X81836Y164338D02*
X71676Y164338D01*
X21082Y214932D01*
X228600Y127000D02*
X228600Y114300D01*
X228600Y127000D02*
X254000Y152400D01*
X89600Y254700D02*
X73000Y254700D01*
X89600Y254700D02*
X127000Y292100D01*
X177800Y292100D01*
X203200Y317500D01*
X192278Y408178D02*
X203200Y419100D01*
X192278Y408178D02*
X192278Y331978D01*
X157988Y297688D02*
X124685Y297688D01*
X105697Y278700D02*
X63500Y278700D01*
X105697Y278700D02*
X124685Y297688D01*
X157988Y297688D02*
X192278Y331978D01*
X152400Y419100D02*
X146050Y419100D01*
X127000Y400050D01*
X127000Y381000D01*
X139700Y368300D01*
X139700Y355600D01*
X152400Y342900D01*
X215900Y368300D02*
X215900Y254000D01*
D30*
X279400Y127000D03*
D29*
X262901Y214630D02*
X255270Y214630D01*
X262901Y214630D02*
X279400Y198131D01*
X255270Y214630D02*
X215900Y254000D01*
X279400Y198131D02*
X279400Y127000D01*
X927100Y419100D02*
X945907Y419100D01*
X982218Y382789D01*
X982218Y178091D01*
X962787Y158660D01*
X962787Y142113D01*
X977900Y127000D01*
M02*
