G04 EAGLE Gerber RS-274X export*
G75*
%MOMM*%
%FSLAX34Y34*%
%LPD*%
%INBottom Copper*%
%IPPOS*%
%AMOC8*
5,1,8,0,0,1.08239X$1,22.5*%
G01*
%ADD10P,2.336880X8X22.500000*%
%ADD11P,1.429621X8X22.500000*%
%ADD12P,1.429621X8X202.500000*%
%ADD13P,1.732040X8X22.500000*%
%ADD14C,1.600200*%
%ADD15P,1.732040X8X202.500000*%
%ADD16C,2.000000*%
%ADD17R,2.000000X2.000000*%
%ADD18C,1.778000*%
%ADD19R,1.778000X1.778000*%
%ADD20R,1.524000X1.524000*%
%ADD21C,1.524000*%
%ADD22R,2.540000X2.540000*%
%ADD23C,2.540000*%
%ADD24R,1.422400X1.422400*%
%ADD25C,1.422400*%
%ADD26R,1.498600X1.498600*%
%ADD27C,1.498600*%
%ADD28C,0.508000*%
%ADD29C,0.254000*%
%ADD30C,0.756400*%

G36*
X209794Y60972D02*
X209794Y60972D01*
X209866Y60974D01*
X209915Y60992D01*
X209966Y61000D01*
X210030Y61034D01*
X210097Y61059D01*
X210138Y61091D01*
X210184Y61116D01*
X210233Y61168D01*
X210289Y61212D01*
X210317Y61256D01*
X210353Y61294D01*
X210383Y61359D01*
X210422Y61419D01*
X210435Y61470D01*
X210457Y61517D01*
X210465Y61588D01*
X210482Y61658D01*
X210478Y61710D01*
X210484Y61761D01*
X210468Y61832D01*
X210463Y61903D01*
X210443Y61951D01*
X210431Y62002D01*
X210395Y62063D01*
X210367Y62129D01*
X210322Y62185D01*
X210305Y62213D01*
X210287Y62228D01*
X210262Y62260D01*
X202056Y70466D01*
X202056Y81934D01*
X202519Y82397D01*
X202531Y82413D01*
X202546Y82426D01*
X202602Y82513D01*
X202662Y82597D01*
X202668Y82616D01*
X202679Y82632D01*
X202704Y82733D01*
X202735Y82832D01*
X202734Y82852D01*
X202739Y82871D01*
X202731Y82974D01*
X202728Y83078D01*
X202722Y83096D01*
X202720Y83116D01*
X202680Y83211D01*
X202644Y83309D01*
X202631Y83324D01*
X202624Y83343D01*
X202519Y83473D01*
X174456Y111536D01*
X171703Y114289D01*
X171703Y118114D01*
X171692Y118185D01*
X171690Y118257D01*
X171672Y118306D01*
X171664Y118357D01*
X171630Y118421D01*
X171605Y118488D01*
X171573Y118529D01*
X171548Y118575D01*
X171496Y118624D01*
X171452Y118680D01*
X171408Y118708D01*
X171370Y118744D01*
X171305Y118774D01*
X171245Y118813D01*
X171194Y118826D01*
X171147Y118848D01*
X171076Y118855D01*
X171006Y118873D01*
X170954Y118869D01*
X170903Y118875D01*
X170832Y118859D01*
X170761Y118854D01*
X170713Y118834D01*
X170662Y118822D01*
X170601Y118786D01*
X170535Y118758D01*
X170479Y118713D01*
X170451Y118696D01*
X170436Y118678D01*
X170404Y118653D01*
X169098Y117347D01*
X161102Y117347D01*
X155447Y123002D01*
X155447Y130998D01*
X161102Y136653D01*
X169098Y136653D01*
X170404Y135347D01*
X170462Y135305D01*
X170514Y135256D01*
X170561Y135234D01*
X170603Y135204D01*
X170672Y135183D01*
X170737Y135152D01*
X170789Y135147D01*
X170839Y135131D01*
X170910Y135133D01*
X170981Y135125D01*
X171032Y135136D01*
X171084Y135138D01*
X171152Y135162D01*
X171222Y135178D01*
X171267Y135204D01*
X171315Y135222D01*
X171371Y135267D01*
X171433Y135304D01*
X171467Y135343D01*
X171507Y135376D01*
X171546Y135436D01*
X171593Y135491D01*
X171612Y135539D01*
X171640Y135583D01*
X171658Y135652D01*
X171685Y135719D01*
X171693Y135790D01*
X171701Y135821D01*
X171699Y135845D01*
X171703Y135886D01*
X171703Y142120D01*
X171689Y142210D01*
X171681Y142301D01*
X171669Y142331D01*
X171664Y142363D01*
X171621Y142443D01*
X171585Y142527D01*
X171559Y142559D01*
X171548Y142580D01*
X171525Y142602D01*
X171480Y142658D01*
X162844Y151294D01*
X162786Y151336D01*
X162734Y151385D01*
X162687Y151407D01*
X162645Y151438D01*
X162576Y151459D01*
X162511Y151489D01*
X162459Y151495D01*
X162409Y151510D01*
X162338Y151508D01*
X162267Y151516D01*
X162216Y151505D01*
X162164Y151504D01*
X162096Y151479D01*
X162026Y151464D01*
X161981Y151437D01*
X161933Y151419D01*
X161877Y151374D01*
X161815Y151338D01*
X161781Y151298D01*
X161741Y151266D01*
X161702Y151205D01*
X161655Y151151D01*
X161636Y151102D01*
X161608Y151059D01*
X161590Y150989D01*
X161563Y150923D01*
X161555Y150851D01*
X161547Y150820D01*
X161549Y150797D01*
X161545Y150756D01*
X161545Y148612D01*
X156188Y143255D01*
X153923Y143255D01*
X153923Y151638D01*
X153920Y151658D01*
X153922Y151677D01*
X153900Y151779D01*
X153883Y151881D01*
X153874Y151898D01*
X153870Y151918D01*
X153817Y152007D01*
X153768Y152098D01*
X153754Y152112D01*
X153744Y152129D01*
X153665Y152196D01*
X153590Y152267D01*
X153572Y152276D01*
X153557Y152289D01*
X153461Y152327D01*
X153367Y152371D01*
X153347Y152373D01*
X153329Y152381D01*
X153162Y152399D01*
X152399Y152399D01*
X152399Y153162D01*
X152396Y153182D01*
X152398Y153201D01*
X152376Y153303D01*
X152359Y153405D01*
X152350Y153422D01*
X152346Y153442D01*
X152293Y153531D01*
X152244Y153622D01*
X152230Y153636D01*
X152220Y153653D01*
X152141Y153720D01*
X152066Y153791D01*
X152048Y153800D01*
X152033Y153813D01*
X151937Y153852D01*
X151843Y153895D01*
X151823Y153897D01*
X151805Y153905D01*
X151638Y153923D01*
X143255Y153923D01*
X143255Y156188D01*
X148692Y161624D01*
X148703Y161640D01*
X148719Y161653D01*
X148775Y161740D01*
X148835Y161824D01*
X148841Y161843D01*
X148852Y161860D01*
X148877Y161960D01*
X148908Y162059D01*
X148907Y162079D01*
X148912Y162098D01*
X148904Y162201D01*
X148901Y162305D01*
X148894Y162324D01*
X148893Y162343D01*
X148852Y162438D01*
X148817Y162536D01*
X148804Y162552D01*
X148796Y162570D01*
X148692Y162701D01*
X148081Y163311D01*
X148081Y168152D01*
X148067Y168242D01*
X148059Y168333D01*
X148047Y168363D01*
X148042Y168395D01*
X147999Y168476D01*
X147963Y168560D01*
X147937Y168592D01*
X147926Y168613D01*
X147903Y168635D01*
X147858Y168691D01*
X142747Y173802D01*
X142747Y181798D01*
X148402Y187453D01*
X156398Y187453D01*
X161509Y182342D01*
X161583Y182289D01*
X161653Y182229D01*
X161683Y182217D01*
X161709Y182198D01*
X161796Y182171D01*
X161881Y182137D01*
X161922Y182133D01*
X161944Y182126D01*
X161976Y182127D01*
X162048Y182119D01*
X165742Y182119D01*
X165832Y182133D01*
X165923Y182141D01*
X165953Y182153D01*
X165985Y182158D01*
X166065Y182201D01*
X166149Y182237D01*
X166181Y182263D01*
X166202Y182274D01*
X166224Y182297D01*
X166280Y182342D01*
X178757Y194819D01*
X208792Y194819D01*
X208863Y194830D01*
X208935Y194832D01*
X208984Y194850D01*
X209035Y194858D01*
X209099Y194892D01*
X209166Y194917D01*
X209207Y194949D01*
X209253Y194974D01*
X209302Y195026D01*
X209358Y195070D01*
X209386Y195114D01*
X209422Y195152D01*
X209452Y195217D01*
X209491Y195277D01*
X209504Y195328D01*
X209526Y195375D01*
X209533Y195446D01*
X209551Y195516D01*
X209547Y195568D01*
X209553Y195619D01*
X209537Y195690D01*
X209532Y195761D01*
X209512Y195809D01*
X209500Y195860D01*
X209464Y195921D01*
X209436Y195987D01*
X209391Y196043D01*
X209374Y196071D01*
X209356Y196086D01*
X209331Y196118D01*
X206247Y199202D01*
X206247Y207198D01*
X211902Y212853D01*
X219898Y212853D01*
X225553Y207198D01*
X225553Y199202D01*
X222469Y196118D01*
X222427Y196060D01*
X222378Y196008D01*
X222356Y195961D01*
X222326Y195919D01*
X222305Y195850D01*
X222274Y195785D01*
X222269Y195733D01*
X222253Y195683D01*
X222255Y195612D01*
X222247Y195541D01*
X222258Y195490D01*
X222260Y195438D01*
X222284Y195370D01*
X222300Y195300D01*
X222326Y195255D01*
X222344Y195207D01*
X222389Y195151D01*
X222426Y195089D01*
X222465Y195055D01*
X222498Y195015D01*
X222558Y194976D01*
X222613Y194929D01*
X222661Y194910D01*
X222705Y194882D01*
X222774Y194864D01*
X222841Y194837D01*
X222912Y194829D01*
X222943Y194821D01*
X222967Y194823D01*
X223008Y194819D01*
X226496Y194819D01*
X226586Y194833D01*
X226677Y194841D01*
X226707Y194853D01*
X226739Y194858D01*
X226819Y194901D01*
X226903Y194937D01*
X226935Y194963D01*
X226956Y194974D01*
X226978Y194997D01*
X227034Y195042D01*
X238028Y206036D01*
X238081Y206110D01*
X238141Y206179D01*
X238153Y206209D01*
X238172Y206236D01*
X238199Y206323D01*
X238233Y206407D01*
X238237Y206448D01*
X238244Y206471D01*
X238243Y206503D01*
X238251Y206574D01*
X238251Y213889D01*
X244581Y220219D01*
X319289Y220219D01*
X322042Y217466D01*
X326382Y213125D01*
X326476Y213058D01*
X326571Y212987D01*
X326577Y212985D01*
X326582Y212982D01*
X326693Y212948D01*
X326805Y212911D01*
X326811Y212911D01*
X326817Y212909D01*
X326934Y212912D01*
X327051Y212913D01*
X327058Y212916D01*
X327063Y212916D01*
X327081Y212922D01*
X327212Y212960D01*
X328179Y213361D01*
X332142Y213361D01*
X332232Y213375D01*
X332323Y213383D01*
X332353Y213395D01*
X332385Y213400D01*
X332465Y213443D01*
X332549Y213479D01*
X332581Y213505D01*
X332602Y213516D01*
X332624Y213539D01*
X332680Y213584D01*
X388855Y269759D01*
X390534Y271438D01*
X392588Y272289D01*
X472446Y272289D01*
X472561Y272308D01*
X472677Y272325D01*
X472683Y272327D01*
X472689Y272328D01*
X472792Y272383D01*
X472896Y272436D01*
X472901Y272441D01*
X472906Y272444D01*
X472986Y272528D01*
X473069Y272612D01*
X473072Y272618D01*
X473076Y272622D01*
X473083Y272639D01*
X473149Y272759D01*
X473233Y272959D01*
X476341Y276067D01*
X476541Y276151D01*
X476641Y276212D01*
X476741Y276272D01*
X476745Y276277D01*
X476750Y276280D01*
X476825Y276370D01*
X476901Y276459D01*
X476903Y276465D01*
X476907Y276470D01*
X476949Y276578D01*
X476993Y276687D01*
X476994Y276695D01*
X476995Y276699D01*
X476996Y276718D01*
X477011Y276854D01*
X477011Y365670D01*
X476997Y365760D01*
X476989Y365851D01*
X476977Y365881D01*
X476972Y365912D01*
X476929Y365993D01*
X476893Y366077D01*
X476867Y366109D01*
X476856Y366130D01*
X476833Y366152D01*
X476788Y366208D01*
X460061Y382935D01*
X459987Y382988D01*
X459918Y383048D01*
X459887Y383060D01*
X459861Y383079D01*
X459774Y383106D01*
X459689Y383140D01*
X459649Y383144D01*
X459626Y383151D01*
X459594Y383150D01*
X459523Y383158D01*
X448444Y383158D01*
X446658Y384944D01*
X446658Y402456D01*
X448444Y404242D01*
X450850Y404242D01*
X450870Y404245D01*
X450889Y404243D01*
X450991Y404265D01*
X451093Y404281D01*
X451110Y404291D01*
X451130Y404295D01*
X451219Y404348D01*
X451310Y404397D01*
X451324Y404411D01*
X451341Y404421D01*
X451408Y404500D01*
X451480Y404575D01*
X451488Y404593D01*
X451501Y404608D01*
X451540Y404704D01*
X451583Y404798D01*
X451585Y404818D01*
X451593Y404836D01*
X451611Y405003D01*
X451611Y454570D01*
X451597Y454660D01*
X451589Y454751D01*
X451577Y454781D01*
X451572Y454812D01*
X451529Y454893D01*
X451493Y454977D01*
X451467Y455009D01*
X451456Y455030D01*
X451433Y455052D01*
X451388Y455108D01*
X449868Y456628D01*
X449794Y456681D01*
X449725Y456741D01*
X449694Y456753D01*
X449668Y456772D01*
X449581Y456799D01*
X449496Y456833D01*
X449456Y456837D01*
X449433Y456844D01*
X449401Y456843D01*
X449330Y456851D01*
X433237Y456851D01*
X431451Y458637D01*
X431451Y460835D01*
X431440Y460906D01*
X431438Y460978D01*
X431420Y461027D01*
X431412Y461078D01*
X431378Y461142D01*
X431353Y461209D01*
X431321Y461250D01*
X431296Y461296D01*
X431244Y461345D01*
X431200Y461401D01*
X431156Y461429D01*
X431118Y461465D01*
X431053Y461495D01*
X430993Y461534D01*
X430942Y461547D01*
X430895Y461569D01*
X430824Y461577D01*
X430754Y461594D01*
X430702Y461590D01*
X430651Y461596D01*
X430580Y461580D01*
X430509Y461575D01*
X430461Y461555D01*
X430410Y461543D01*
X430349Y461507D01*
X430283Y461479D01*
X430227Y461434D01*
X430199Y461417D01*
X430184Y461399D01*
X430152Y461374D01*
X424834Y456056D01*
X413366Y456056D01*
X405256Y464166D01*
X405256Y475634D01*
X413366Y483744D01*
X424834Y483744D01*
X430152Y478426D01*
X430210Y478384D01*
X430262Y478335D01*
X430309Y478313D01*
X430351Y478283D01*
X430420Y478262D01*
X430485Y478231D01*
X430537Y478226D01*
X430587Y478210D01*
X430658Y478212D01*
X430729Y478204D01*
X430780Y478215D01*
X430832Y478217D01*
X430900Y478241D01*
X430970Y478257D01*
X431015Y478283D01*
X431063Y478301D01*
X431119Y478346D01*
X431181Y478383D01*
X431215Y478422D01*
X431255Y478455D01*
X431294Y478515D01*
X431341Y478570D01*
X431360Y478618D01*
X431388Y478662D01*
X431406Y478731D01*
X431433Y478798D01*
X431441Y478869D01*
X431449Y478900D01*
X431447Y478924D01*
X431451Y478965D01*
X431451Y481163D01*
X433237Y482949D01*
X455763Y482949D01*
X457549Y481163D01*
X457549Y465070D01*
X457563Y464980D01*
X457571Y464889D01*
X457583Y464859D01*
X457588Y464828D01*
X457631Y464747D01*
X457667Y464663D01*
X457693Y464631D01*
X457704Y464610D01*
X457727Y464588D01*
X457772Y464532D01*
X461938Y460366D01*
X462789Y458312D01*
X462789Y405003D01*
X462792Y404983D01*
X462790Y404964D01*
X462812Y404862D01*
X462828Y404760D01*
X462838Y404743D01*
X462842Y404723D01*
X462895Y404634D01*
X462944Y404543D01*
X462958Y404529D01*
X462968Y404512D01*
X463047Y404445D01*
X463122Y404373D01*
X463140Y404365D01*
X463155Y404352D01*
X463251Y404313D01*
X463345Y404270D01*
X463365Y404268D01*
X463383Y404260D01*
X463550Y404242D01*
X465956Y404242D01*
X467742Y402456D01*
X467742Y400050D01*
X467745Y400030D01*
X467743Y400011D01*
X467765Y399909D01*
X467781Y399807D01*
X467791Y399790D01*
X467795Y399770D01*
X467848Y399681D01*
X467897Y399590D01*
X467911Y399576D01*
X467921Y399559D01*
X468000Y399492D01*
X468075Y399420D01*
X468093Y399412D01*
X468108Y399399D01*
X468204Y399360D01*
X468298Y399317D01*
X468318Y399315D01*
X468336Y399307D01*
X468503Y399289D01*
X523796Y399289D01*
X523911Y399308D01*
X524027Y399325D01*
X524033Y399327D01*
X524039Y399328D01*
X524142Y399383D01*
X524246Y399436D01*
X524251Y399441D01*
X524256Y399444D01*
X524337Y399529D01*
X524418Y399612D01*
X524422Y399618D01*
X524425Y399622D01*
X524433Y399639D01*
X524437Y399645D01*
X527429Y402637D01*
X531303Y404242D01*
X535497Y404242D01*
X539371Y402637D01*
X542382Y399626D01*
X542422Y399559D01*
X542427Y399555D01*
X542430Y399550D01*
X542520Y399475D01*
X542609Y399399D01*
X542615Y399397D01*
X542620Y399393D01*
X542728Y399351D01*
X542837Y399307D01*
X542845Y399306D01*
X542849Y399305D01*
X542868Y399304D01*
X543004Y399289D01*
X598012Y399289D01*
X600066Y398438D01*
X660058Y338446D01*
X660909Y336392D01*
X660909Y270600D01*
X660923Y270510D01*
X660931Y270419D01*
X660943Y270389D01*
X660948Y270358D01*
X660991Y270277D01*
X661027Y270193D01*
X661053Y270161D01*
X661064Y270140D01*
X661087Y270118D01*
X661132Y270062D01*
X662710Y268484D01*
X662789Y268427D01*
X662864Y268365D01*
X662888Y268356D01*
X662910Y268340D01*
X663003Y268312D01*
X663094Y268277D01*
X663120Y268276D01*
X663145Y268268D01*
X663242Y268270D01*
X663339Y268266D01*
X663364Y268274D01*
X663391Y268274D01*
X663482Y268308D01*
X663576Y268335D01*
X663597Y268350D01*
X663622Y268359D01*
X663698Y268420D01*
X663778Y268475D01*
X663793Y268496D01*
X663814Y268512D01*
X663866Y268594D01*
X663924Y268672D01*
X663932Y268697D01*
X663947Y268719D01*
X663970Y268814D01*
X664001Y268906D01*
X664000Y268933D01*
X664007Y268958D01*
X663999Y269055D01*
X663998Y269152D01*
X663989Y269184D01*
X663988Y269203D01*
X663975Y269233D01*
X663951Y269313D01*
X663701Y269917D01*
X663701Y276183D01*
X666099Y281971D01*
X670529Y286401D01*
X676317Y288799D01*
X682583Y288799D01*
X688371Y286401D01*
X692801Y281971D01*
X695193Y276197D01*
X695228Y276141D01*
X695253Y276081D01*
X695305Y276016D01*
X695323Y275988D01*
X695338Y275975D01*
X695358Y275950D01*
X763566Y207742D01*
X763640Y207689D01*
X763709Y207629D01*
X763739Y207617D01*
X763766Y207598D01*
X763853Y207571D01*
X763937Y207537D01*
X763978Y207533D01*
X764001Y207526D01*
X764033Y207527D01*
X764104Y207519D01*
X765052Y207519D01*
X765142Y207533D01*
X765233Y207541D01*
X765263Y207553D01*
X765295Y207558D01*
X765376Y207601D01*
X765460Y207637D01*
X765492Y207663D01*
X765513Y207674D01*
X765535Y207697D01*
X765591Y207742D01*
X770702Y212853D01*
X778698Y212853D01*
X781782Y209769D01*
X781840Y209727D01*
X781892Y209678D01*
X781939Y209656D01*
X781981Y209626D01*
X782050Y209605D01*
X782115Y209574D01*
X782167Y209569D01*
X782217Y209553D01*
X782288Y209555D01*
X782359Y209547D01*
X782410Y209558D01*
X782462Y209560D01*
X782530Y209584D01*
X782600Y209600D01*
X782645Y209626D01*
X782693Y209644D01*
X782749Y209689D01*
X782811Y209726D01*
X782845Y209765D01*
X782885Y209798D01*
X782924Y209858D01*
X782971Y209913D01*
X782990Y209961D01*
X783018Y210005D01*
X783036Y210074D01*
X783063Y210141D01*
X783071Y210212D01*
X783079Y210243D01*
X783077Y210267D01*
X783081Y210308D01*
X783081Y302696D01*
X783067Y302786D01*
X783059Y302877D01*
X783047Y302907D01*
X783042Y302939D01*
X782999Y303019D01*
X782963Y303103D01*
X782937Y303135D01*
X782926Y303156D01*
X782903Y303178D01*
X782858Y303234D01*
X778468Y307624D01*
X778394Y307677D01*
X778325Y307737D01*
X778295Y307749D01*
X778268Y307768D01*
X778181Y307795D01*
X778097Y307829D01*
X778056Y307833D01*
X778033Y307840D01*
X778001Y307839D01*
X777930Y307847D01*
X770702Y307847D01*
X765047Y313502D01*
X765047Y321498D01*
X770702Y327153D01*
X778698Y327153D01*
X784353Y321498D01*
X784353Y314270D01*
X784367Y314180D01*
X784375Y314089D01*
X784387Y314059D01*
X784392Y314027D01*
X784435Y313947D01*
X784471Y313863D01*
X784497Y313831D01*
X784508Y313810D01*
X784531Y313788D01*
X784576Y313732D01*
X791719Y306589D01*
X791719Y198665D01*
X788966Y195912D01*
X783584Y190530D01*
X783542Y190472D01*
X783493Y190420D01*
X783471Y190373D01*
X783440Y190331D01*
X783419Y190262D01*
X783389Y190197D01*
X783383Y190145D01*
X783368Y190095D01*
X783370Y190024D01*
X783362Y189953D01*
X783373Y189902D01*
X783374Y189850D01*
X783399Y189782D01*
X783414Y189712D01*
X783441Y189667D01*
X783459Y189619D01*
X783504Y189563D01*
X783540Y189501D01*
X783580Y189467D01*
X783613Y189427D01*
X783673Y189388D01*
X783727Y189341D01*
X783776Y189322D01*
X783819Y189294D01*
X783889Y189276D01*
X783955Y189249D01*
X784027Y189241D01*
X784058Y189233D01*
X784081Y189235D01*
X784122Y189231D01*
X787610Y189231D01*
X787701Y189245D01*
X787791Y189253D01*
X787821Y189265D01*
X787853Y189270D01*
X787934Y189313D01*
X788018Y189349D01*
X788050Y189375D01*
X788071Y189386D01*
X788093Y189409D01*
X788149Y189454D01*
X833658Y234963D01*
X833711Y235037D01*
X833771Y235107D01*
X833783Y235137D01*
X833802Y235163D01*
X833829Y235250D01*
X833863Y235335D01*
X833867Y235376D01*
X833874Y235398D01*
X833873Y235430D01*
X833881Y235502D01*
X833881Y310392D01*
X833870Y310463D01*
X833868Y310535D01*
X833850Y310584D01*
X833842Y310635D01*
X833808Y310699D01*
X833783Y310766D01*
X833751Y310807D01*
X833726Y310853D01*
X833674Y310902D01*
X833630Y310958D01*
X833586Y310986D01*
X833548Y311022D01*
X833483Y311052D01*
X833423Y311091D01*
X833372Y311104D01*
X833325Y311126D01*
X833254Y311133D01*
X833184Y311151D01*
X833132Y311147D01*
X833081Y311153D01*
X833010Y311137D01*
X832939Y311132D01*
X832891Y311112D01*
X832840Y311100D01*
X832779Y311064D01*
X832713Y311036D01*
X832657Y310991D01*
X832629Y310974D01*
X832614Y310956D01*
X832582Y310931D01*
X829498Y307847D01*
X821502Y307847D01*
X815847Y313502D01*
X815847Y321498D01*
X821502Y327153D01*
X829498Y327153D01*
X832582Y324069D01*
X832640Y324027D01*
X832692Y323978D01*
X832739Y323956D01*
X832781Y323926D01*
X832850Y323905D01*
X832915Y323874D01*
X832967Y323869D01*
X833017Y323853D01*
X833088Y323855D01*
X833159Y323847D01*
X833210Y323858D01*
X833262Y323860D01*
X833330Y323884D01*
X833400Y323900D01*
X833445Y323926D01*
X833493Y323944D01*
X833549Y323989D01*
X833611Y324026D01*
X833645Y324065D01*
X833685Y324098D01*
X833724Y324158D01*
X833771Y324213D01*
X833790Y324261D01*
X833818Y324305D01*
X833836Y324374D01*
X833863Y324441D01*
X833871Y324512D01*
X833879Y324543D01*
X833877Y324567D01*
X833881Y324608D01*
X833881Y333252D01*
X833867Y333343D01*
X833859Y333433D01*
X833847Y333463D01*
X833842Y333495D01*
X833799Y333576D01*
X833763Y333660D01*
X833737Y333692D01*
X833726Y333713D01*
X833703Y333735D01*
X833658Y333791D01*
X828547Y338902D01*
X828547Y346898D01*
X834202Y352553D01*
X842198Y352553D01*
X847853Y346898D01*
X847853Y338902D01*
X842742Y333791D01*
X842689Y333717D01*
X842629Y333647D01*
X842617Y333617D01*
X842598Y333591D01*
X842571Y333504D01*
X842537Y333419D01*
X842533Y333378D01*
X842526Y333356D01*
X842527Y333324D01*
X842519Y333252D01*
X842519Y231608D01*
X839766Y228856D01*
X825063Y214152D01*
X825021Y214094D01*
X824971Y214042D01*
X824949Y213995D01*
X824919Y213953D01*
X824898Y213884D01*
X824868Y213819D01*
X824862Y213767D01*
X824847Y213717D01*
X824849Y213646D01*
X824841Y213575D01*
X824852Y213524D01*
X824853Y213472D01*
X824878Y213404D01*
X824893Y213334D01*
X824920Y213289D01*
X824937Y213241D01*
X824982Y213185D01*
X825019Y213123D01*
X825059Y213089D01*
X825091Y213049D01*
X825151Y213010D01*
X825206Y212963D01*
X825254Y212944D01*
X825298Y212916D01*
X825368Y212898D01*
X825434Y212871D01*
X825505Y212863D01*
X825537Y212855D01*
X825560Y212857D01*
X825601Y212853D01*
X829498Y212853D01*
X835153Y207198D01*
X835153Y199202D01*
X829498Y193547D01*
X821502Y193547D01*
X815847Y199202D01*
X815847Y203099D01*
X815836Y203170D01*
X815834Y203242D01*
X815816Y203291D01*
X815808Y203342D01*
X815774Y203405D01*
X815749Y203473D01*
X815717Y203513D01*
X815692Y203559D01*
X815640Y203609D01*
X815596Y203665D01*
X815552Y203693D01*
X815514Y203729D01*
X815449Y203759D01*
X815389Y203798D01*
X815338Y203810D01*
X815291Y203832D01*
X815220Y203840D01*
X815150Y203858D01*
X815098Y203854D01*
X815047Y203859D01*
X814976Y203844D01*
X814905Y203839D01*
X814857Y203818D01*
X814806Y203807D01*
X814745Y203770D01*
X814679Y203742D01*
X814623Y203698D01*
X814595Y203681D01*
X814580Y203663D01*
X814548Y203637D01*
X791504Y180593D01*
X785114Y180593D01*
X785094Y180590D01*
X785075Y180592D01*
X784973Y180570D01*
X784871Y180554D01*
X784854Y180544D01*
X784834Y180540D01*
X784745Y180487D01*
X784654Y180438D01*
X784640Y180424D01*
X784623Y180414D01*
X784556Y180335D01*
X784484Y180260D01*
X784476Y180242D01*
X784463Y180227D01*
X784424Y180131D01*
X784381Y180037D01*
X784379Y180017D01*
X784371Y179999D01*
X784353Y179832D01*
X784353Y173802D01*
X778698Y168147D01*
X770702Y168147D01*
X765047Y173802D01*
X765047Y181798D01*
X768131Y184882D01*
X768173Y184940D01*
X768222Y184992D01*
X768244Y185039D01*
X768274Y185081D01*
X768295Y185150D01*
X768326Y185215D01*
X768331Y185267D01*
X768347Y185317D01*
X768345Y185388D01*
X768353Y185459D01*
X768342Y185510D01*
X768340Y185562D01*
X768316Y185630D01*
X768300Y185700D01*
X768274Y185745D01*
X768256Y185793D01*
X768211Y185849D01*
X768174Y185911D01*
X768135Y185945D01*
X768102Y185985D01*
X768042Y186024D01*
X767987Y186071D01*
X767939Y186090D01*
X767895Y186118D01*
X767826Y186136D01*
X767759Y186163D01*
X767688Y186171D01*
X767657Y186179D01*
X767633Y186177D01*
X767592Y186181D01*
X751404Y186181D01*
X751314Y186167D01*
X751223Y186159D01*
X751193Y186147D01*
X751161Y186142D01*
X751081Y186099D01*
X750997Y186063D01*
X750965Y186037D01*
X750944Y186026D01*
X750922Y186003D01*
X750866Y185958D01*
X746525Y181618D01*
X746457Y181523D01*
X746387Y181429D01*
X746385Y181423D01*
X746382Y181418D01*
X746347Y181307D01*
X746311Y181195D01*
X746311Y181189D01*
X746309Y181183D01*
X746312Y181066D01*
X746313Y180949D01*
X746316Y180942D01*
X746316Y180937D01*
X746322Y180919D01*
X746360Y180788D01*
X746761Y179821D01*
X746761Y175779D01*
X745214Y172044D01*
X742356Y169186D01*
X738621Y167639D01*
X734579Y167639D01*
X730844Y169186D01*
X727986Y172044D01*
X726439Y175779D01*
X726439Y179821D01*
X727986Y183556D01*
X730844Y186414D01*
X734579Y187961D01*
X738621Y187961D01*
X739588Y187560D01*
X739702Y187534D01*
X739815Y187505D01*
X739821Y187505D01*
X739827Y187504D01*
X739944Y187515D01*
X740060Y187524D01*
X740066Y187527D01*
X740072Y187527D01*
X740180Y187575D01*
X740287Y187620D01*
X740292Y187625D01*
X740297Y187627D01*
X740311Y187640D01*
X740418Y187725D01*
X747511Y194819D01*
X767592Y194819D01*
X767663Y194830D01*
X767735Y194832D01*
X767784Y194850D01*
X767835Y194858D01*
X767899Y194892D01*
X767966Y194917D01*
X768007Y194949D01*
X768053Y194974D01*
X768102Y195026D01*
X768158Y195070D01*
X768186Y195114D01*
X768222Y195152D01*
X768252Y195217D01*
X768291Y195277D01*
X768304Y195328D01*
X768326Y195375D01*
X768333Y195446D01*
X768351Y195516D01*
X768347Y195568D01*
X768353Y195619D01*
X768337Y195690D01*
X768332Y195761D01*
X768312Y195809D01*
X768300Y195860D01*
X768264Y195921D01*
X768236Y195987D01*
X768191Y196043D01*
X768174Y196071D01*
X768156Y196086D01*
X768131Y196118D01*
X765591Y198658D01*
X765517Y198711D01*
X765447Y198771D01*
X765417Y198783D01*
X765391Y198802D01*
X765304Y198829D01*
X765219Y198863D01*
X765178Y198867D01*
X765156Y198874D01*
X765124Y198873D01*
X765052Y198881D01*
X760211Y198881D01*
X694240Y264852D01*
X694203Y264879D01*
X694172Y264913D01*
X694103Y264951D01*
X694040Y264996D01*
X693996Y265009D01*
X693956Y265032D01*
X693880Y265045D01*
X693805Y265068D01*
X693759Y265067D01*
X693714Y265075D01*
X693637Y265064D01*
X693559Y265062D01*
X693516Y265046D01*
X693471Y265039D01*
X693401Y265004D01*
X693328Y264977D01*
X693292Y264949D01*
X693252Y264928D01*
X693197Y264873D01*
X693136Y264824D01*
X693111Y264785D01*
X693079Y264752D01*
X693013Y264633D01*
X693003Y264617D01*
X693002Y264612D01*
X692998Y264605D01*
X692801Y264129D01*
X688371Y259699D01*
X682583Y257301D01*
X676317Y257301D01*
X675713Y257551D01*
X675619Y257574D01*
X675526Y257602D01*
X675499Y257602D01*
X675474Y257608D01*
X675377Y257598D01*
X675280Y257596D01*
X675255Y257587D01*
X675229Y257585D01*
X675140Y257545D01*
X675049Y257511D01*
X675028Y257495D01*
X675004Y257485D01*
X674933Y257419D01*
X674857Y257358D01*
X674842Y257336D01*
X674823Y257318D01*
X674776Y257233D01*
X674724Y257151D01*
X674717Y257126D01*
X674705Y257103D01*
X674687Y257007D01*
X674664Y256912D01*
X674666Y256886D01*
X674661Y256861D01*
X674675Y256764D01*
X674683Y256667D01*
X674693Y256643D01*
X674697Y256617D01*
X674741Y256530D01*
X674779Y256441D01*
X674799Y256415D01*
X674808Y256398D01*
X674832Y256375D01*
X674884Y256310D01*
X722182Y209012D01*
X722256Y208959D01*
X722325Y208899D01*
X722356Y208887D01*
X722382Y208868D01*
X722469Y208841D01*
X722554Y208807D01*
X722594Y208803D01*
X722617Y208796D01*
X722649Y208797D01*
X722720Y208789D01*
X727504Y208789D01*
X727594Y208803D01*
X727685Y208811D01*
X727715Y208823D01*
X727747Y208828D01*
X727827Y208871D01*
X727911Y208907D01*
X727943Y208933D01*
X727964Y208944D01*
X727986Y208967D01*
X728042Y209012D01*
X730844Y211814D01*
X734579Y213361D01*
X738621Y213361D01*
X742356Y211814D01*
X745214Y208956D01*
X746761Y205221D01*
X746761Y201179D01*
X745214Y197444D01*
X742356Y194586D01*
X738621Y193039D01*
X734579Y193039D01*
X730844Y194586D01*
X728042Y197388D01*
X727968Y197441D01*
X727899Y197501D01*
X727869Y197513D01*
X727843Y197532D01*
X727756Y197559D01*
X727671Y197593D01*
X727630Y197597D01*
X727607Y197604D01*
X727575Y197603D01*
X727504Y197611D01*
X718978Y197611D01*
X716924Y198462D01*
X650582Y264804D01*
X649731Y266858D01*
X649731Y332650D01*
X649717Y332740D01*
X649709Y332831D01*
X649697Y332861D01*
X649692Y332892D01*
X649649Y332973D01*
X649613Y333057D01*
X649587Y333089D01*
X649576Y333110D01*
X649553Y333132D01*
X649508Y333188D01*
X594808Y387888D01*
X594734Y387941D01*
X594665Y388001D01*
X594634Y388013D01*
X594608Y388032D01*
X594521Y388059D01*
X594436Y388093D01*
X594396Y388097D01*
X594373Y388104D01*
X594341Y388103D01*
X594270Y388111D01*
X543004Y388111D01*
X542889Y388092D01*
X542773Y388075D01*
X542767Y388073D01*
X542761Y388072D01*
X542658Y388017D01*
X542554Y387964D01*
X542549Y387959D01*
X542544Y387956D01*
X542463Y387871D01*
X542382Y387788D01*
X542378Y387782D01*
X542375Y387778D01*
X542367Y387761D01*
X542363Y387755D01*
X539371Y384763D01*
X535497Y383158D01*
X531303Y383158D01*
X527429Y384763D01*
X524418Y387774D01*
X524378Y387841D01*
X524373Y387845D01*
X524370Y387850D01*
X524280Y387925D01*
X524191Y388001D01*
X524185Y388003D01*
X524180Y388007D01*
X524072Y388049D01*
X523963Y388093D01*
X523955Y388094D01*
X523951Y388095D01*
X523932Y388096D01*
X523796Y388111D01*
X472530Y388111D01*
X472459Y388100D01*
X472388Y388098D01*
X472339Y388080D01*
X472287Y388072D01*
X472224Y388038D01*
X472157Y388013D01*
X472116Y387981D01*
X472070Y387956D01*
X472021Y387904D01*
X471965Y387860D01*
X471937Y387816D01*
X471901Y387778D01*
X471871Y387713D01*
X471832Y387653D01*
X471819Y387602D01*
X471797Y387555D01*
X471789Y387484D01*
X471772Y387414D01*
X471776Y387362D01*
X471770Y387311D01*
X471785Y387240D01*
X471791Y387169D01*
X471811Y387121D01*
X471822Y387070D01*
X471859Y387009D01*
X471887Y386943D01*
X471932Y386887D01*
X471948Y386859D01*
X471966Y386844D01*
X471992Y386812D01*
X485659Y373145D01*
X487338Y371466D01*
X488189Y369412D01*
X488189Y276854D01*
X488208Y276739D01*
X488225Y276623D01*
X488227Y276617D01*
X488228Y276611D01*
X488283Y276508D01*
X488336Y276404D01*
X488341Y276399D01*
X488344Y276394D01*
X488428Y276314D01*
X488512Y276231D01*
X488518Y276228D01*
X488522Y276224D01*
X488539Y276217D01*
X488659Y276151D01*
X488859Y276067D01*
X491967Y272959D01*
X493650Y268898D01*
X493650Y264502D01*
X491967Y260441D01*
X488859Y257333D01*
X484798Y255650D01*
X480402Y255650D01*
X476341Y257333D01*
X475518Y258155D01*
X475460Y258197D01*
X475408Y258246D01*
X475361Y258268D01*
X475319Y258299D01*
X475250Y258320D01*
X475185Y258350D01*
X475133Y258356D01*
X475083Y258371D01*
X475012Y258369D01*
X474941Y258377D01*
X474890Y258366D01*
X474838Y258365D01*
X474770Y258340D01*
X474700Y258325D01*
X474655Y258298D01*
X474607Y258280D01*
X474551Y258235D01*
X474489Y258199D01*
X474455Y258159D01*
X474415Y258126D01*
X474376Y258066D01*
X474329Y258012D01*
X474310Y257963D01*
X474282Y257920D01*
X474264Y257850D01*
X474237Y257784D01*
X474229Y257712D01*
X474221Y257681D01*
X474223Y257658D01*
X474219Y257617D01*
X474219Y212283D01*
X474230Y212212D01*
X474232Y212141D01*
X474250Y212092D01*
X474258Y212040D01*
X474292Y211977D01*
X474317Y211910D01*
X474349Y211869D01*
X474374Y211823D01*
X474426Y211774D01*
X474470Y211718D01*
X474514Y211690D01*
X474552Y211654D01*
X474617Y211623D01*
X474677Y211585D01*
X474728Y211572D01*
X474775Y211550D01*
X474846Y211542D01*
X474916Y211525D01*
X474968Y211529D01*
X475019Y211523D01*
X475090Y211538D01*
X475161Y211544D01*
X475209Y211564D01*
X475260Y211575D01*
X475321Y211612D01*
X475387Y211640D01*
X475443Y211685D01*
X475471Y211701D01*
X475486Y211719D01*
X475518Y211745D01*
X476341Y212567D01*
X480402Y214250D01*
X484798Y214250D01*
X488859Y212567D01*
X491967Y209459D01*
X493650Y205398D01*
X493650Y201002D01*
X491967Y196941D01*
X488859Y193833D01*
X484798Y192150D01*
X480402Y192150D01*
X476341Y193833D01*
X475518Y194655D01*
X475460Y194697D01*
X475408Y194746D01*
X475361Y194768D01*
X475319Y194799D01*
X475250Y194820D01*
X475185Y194850D01*
X475133Y194856D01*
X475083Y194871D01*
X475012Y194869D01*
X474941Y194877D01*
X474890Y194866D01*
X474838Y194865D01*
X474770Y194840D01*
X474700Y194825D01*
X474655Y194798D01*
X474607Y194780D01*
X474551Y194735D01*
X474489Y194699D01*
X474455Y194659D01*
X474415Y194626D01*
X474376Y194566D01*
X474329Y194512D01*
X474310Y194463D01*
X474282Y194420D01*
X474264Y194350D01*
X474237Y194284D01*
X474229Y194212D01*
X474221Y194181D01*
X474223Y194158D01*
X474219Y194117D01*
X474219Y148783D01*
X474230Y148712D01*
X474232Y148641D01*
X474250Y148592D01*
X474258Y148540D01*
X474292Y148477D01*
X474317Y148410D01*
X474349Y148369D01*
X474374Y148323D01*
X474426Y148274D01*
X474470Y148218D01*
X474514Y148190D01*
X474552Y148154D01*
X474617Y148123D01*
X474677Y148085D01*
X474728Y148072D01*
X474775Y148050D01*
X474846Y148042D01*
X474916Y148025D01*
X474968Y148029D01*
X475019Y148023D01*
X475090Y148038D01*
X475161Y148044D01*
X475209Y148064D01*
X475260Y148075D01*
X475321Y148112D01*
X475387Y148140D01*
X475443Y148185D01*
X475471Y148201D01*
X475486Y148219D01*
X475518Y148245D01*
X476341Y149067D01*
X480402Y150750D01*
X484798Y150750D01*
X488859Y149067D01*
X491967Y145959D01*
X493650Y141898D01*
X493650Y137502D01*
X491967Y133441D01*
X488859Y130333D01*
X484798Y128650D01*
X480402Y128650D01*
X476341Y130333D01*
X475518Y131155D01*
X475460Y131197D01*
X475408Y131246D01*
X475361Y131268D01*
X475319Y131299D01*
X475250Y131320D01*
X475185Y131350D01*
X475133Y131356D01*
X475083Y131371D01*
X475012Y131369D01*
X474941Y131377D01*
X474890Y131366D01*
X474838Y131365D01*
X474770Y131340D01*
X474700Y131325D01*
X474655Y131298D01*
X474607Y131280D01*
X474551Y131235D01*
X474489Y131199D01*
X474455Y131159D01*
X474415Y131126D01*
X474376Y131066D01*
X474329Y131012D01*
X474310Y130963D01*
X474282Y130920D01*
X474264Y130850D01*
X474237Y130784D01*
X474229Y130712D01*
X474221Y130681D01*
X474223Y130658D01*
X474219Y130617D01*
X474219Y88900D01*
X474222Y88880D01*
X474220Y88861D01*
X474242Y88759D01*
X474258Y88657D01*
X474268Y88640D01*
X474272Y88620D01*
X474325Y88531D01*
X474374Y88440D01*
X474388Y88426D01*
X474398Y88409D01*
X474477Y88342D01*
X474552Y88270D01*
X474570Y88262D01*
X474585Y88249D01*
X474681Y88210D01*
X474775Y88167D01*
X474795Y88165D01*
X474813Y88157D01*
X474980Y88139D01*
X486403Y88139D01*
X488189Y86353D01*
X488189Y66047D01*
X486403Y64261D01*
X466097Y64261D01*
X464311Y66047D01*
X464311Y86353D01*
X465358Y87400D01*
X465411Y87474D01*
X465471Y87543D01*
X465483Y87573D01*
X465502Y87600D01*
X465529Y87687D01*
X465563Y87771D01*
X465567Y87812D01*
X465574Y87835D01*
X465573Y87867D01*
X465581Y87938D01*
X465581Y260350D01*
X465578Y260370D01*
X465580Y260389D01*
X465558Y260491D01*
X465542Y260593D01*
X465532Y260610D01*
X465528Y260630D01*
X465475Y260719D01*
X465426Y260810D01*
X465412Y260824D01*
X465402Y260841D01*
X465323Y260908D01*
X465248Y260980D01*
X465230Y260988D01*
X465215Y261001D01*
X465119Y261040D01*
X465025Y261083D01*
X465005Y261085D01*
X464987Y261093D01*
X464820Y261111D01*
X396330Y261111D01*
X396240Y261097D01*
X396149Y261089D01*
X396119Y261077D01*
X396088Y261072D01*
X396007Y261029D01*
X395923Y260993D01*
X395891Y260967D01*
X395870Y260956D01*
X395848Y260933D01*
X395792Y260888D01*
X340584Y205680D01*
X340531Y205606D01*
X340471Y205537D01*
X340459Y205506D01*
X340440Y205480D01*
X340413Y205393D01*
X340379Y205308D01*
X340375Y205268D01*
X340368Y205245D01*
X340369Y205213D01*
X340361Y205142D01*
X340361Y201179D01*
X338814Y197444D01*
X335956Y194586D01*
X332221Y193039D01*
X328179Y193039D01*
X324444Y194586D01*
X321586Y197444D01*
X320039Y201179D01*
X320039Y205221D01*
X320440Y206188D01*
X320466Y206302D01*
X320495Y206415D01*
X320495Y206421D01*
X320496Y206428D01*
X320485Y206544D01*
X320476Y206660D01*
X320473Y206666D01*
X320473Y206672D01*
X320425Y206780D01*
X320380Y206887D01*
X320375Y206893D01*
X320373Y206897D01*
X320360Y206911D01*
X320275Y207018D01*
X315934Y211358D01*
X315860Y211411D01*
X315791Y211471D01*
X315761Y211483D01*
X315734Y211502D01*
X315647Y211529D01*
X315563Y211563D01*
X315522Y211567D01*
X315499Y211574D01*
X315467Y211573D01*
X315396Y211581D01*
X264922Y211581D01*
X264902Y211578D01*
X264883Y211580D01*
X264781Y211558D01*
X264679Y211542D01*
X264662Y211532D01*
X264642Y211528D01*
X264553Y211475D01*
X264462Y211426D01*
X264448Y211412D01*
X264431Y211402D01*
X264364Y211323D01*
X264292Y211248D01*
X264284Y211230D01*
X264271Y211215D01*
X264232Y211119D01*
X264189Y211025D01*
X264187Y211005D01*
X264179Y210987D01*
X264161Y210820D01*
X264161Y199462D01*
X264175Y199372D01*
X264183Y199281D01*
X264195Y199251D01*
X264200Y199219D01*
X264243Y199139D01*
X264279Y199055D01*
X264305Y199023D01*
X264316Y199002D01*
X264339Y198980D01*
X264384Y198924D01*
X326382Y136925D01*
X326476Y136858D01*
X326571Y136787D01*
X326577Y136785D01*
X326582Y136782D01*
X326693Y136748D01*
X326805Y136711D01*
X326811Y136711D01*
X326817Y136709D01*
X326934Y136712D01*
X327051Y136713D01*
X327058Y136716D01*
X327063Y136716D01*
X327081Y136722D01*
X327212Y136760D01*
X328179Y137161D01*
X332221Y137161D01*
X335956Y135614D01*
X338814Y132756D01*
X340361Y129021D01*
X340361Y124979D01*
X338814Y121244D01*
X335956Y118386D01*
X332221Y116839D01*
X328179Y116839D01*
X324444Y118386D01*
X321586Y121244D01*
X320039Y124979D01*
X320039Y129021D01*
X320440Y129988D01*
X320448Y130023D01*
X320451Y130029D01*
X320452Y130042D01*
X320466Y130102D01*
X320495Y130215D01*
X320495Y130221D01*
X320496Y130228D01*
X320485Y130344D01*
X320476Y130460D01*
X320473Y130466D01*
X320473Y130472D01*
X320425Y130580D01*
X320380Y130687D01*
X320375Y130693D01*
X320373Y130697D01*
X320360Y130711D01*
X320275Y130818D01*
X258276Y192816D01*
X258202Y192869D01*
X258133Y192929D01*
X258103Y192941D01*
X258076Y192960D01*
X257989Y192987D01*
X257905Y193021D01*
X257864Y193025D01*
X257841Y193032D01*
X257809Y193031D01*
X257738Y193039D01*
X245625Y193039D01*
X243839Y194825D01*
X243839Y197794D01*
X243828Y197865D01*
X243826Y197936D01*
X243808Y197985D01*
X243800Y198037D01*
X243766Y198100D01*
X243741Y198167D01*
X243709Y198208D01*
X243684Y198254D01*
X243632Y198303D01*
X243588Y198359D01*
X243544Y198388D01*
X243506Y198423D01*
X243441Y198454D01*
X243381Y198492D01*
X243330Y198505D01*
X243283Y198527D01*
X243212Y198535D01*
X243142Y198552D01*
X243090Y198548D01*
X243039Y198554D01*
X242968Y198539D01*
X242897Y198533D01*
X242849Y198513D01*
X242798Y198502D01*
X242737Y198465D01*
X242671Y198437D01*
X242615Y198392D01*
X242587Y198376D01*
X242572Y198358D01*
X242540Y198332D01*
X233142Y188934D01*
X232668Y188460D01*
X232656Y188444D01*
X232640Y188431D01*
X232584Y188344D01*
X232524Y188260D01*
X232518Y188241D01*
X232507Y188224D01*
X232482Y188124D01*
X232452Y188025D01*
X232452Y188005D01*
X232447Y187986D01*
X232455Y187883D01*
X232458Y187779D01*
X232465Y187761D01*
X232466Y187741D01*
X232507Y187646D01*
X232542Y187548D01*
X232555Y187533D01*
X232563Y187514D01*
X232668Y187383D01*
X238253Y181798D01*
X238253Y173802D01*
X232598Y168147D01*
X224602Y168147D01*
X218947Y173802D01*
X218947Y181798D01*
X222031Y184882D01*
X222073Y184940D01*
X222122Y184992D01*
X222144Y185039D01*
X222174Y185081D01*
X222195Y185150D01*
X222226Y185215D01*
X222231Y185267D01*
X222247Y185317D01*
X222245Y185388D01*
X222253Y185459D01*
X222242Y185510D01*
X222240Y185562D01*
X222216Y185630D01*
X222200Y185700D01*
X222174Y185745D01*
X222156Y185793D01*
X222111Y185849D01*
X222074Y185911D01*
X222035Y185945D01*
X222002Y185985D01*
X221942Y186024D01*
X221887Y186071D01*
X221839Y186090D01*
X221795Y186118D01*
X221726Y186136D01*
X221659Y186163D01*
X221588Y186171D01*
X221557Y186179D01*
X221533Y186177D01*
X221492Y186181D01*
X182650Y186181D01*
X182560Y186167D01*
X182469Y186159D01*
X182439Y186147D01*
X182408Y186142D01*
X182327Y186099D01*
X182243Y186063D01*
X182211Y186037D01*
X182190Y186026D01*
X182168Y186003D01*
X182112Y185958D01*
X169635Y173481D01*
X162048Y173481D01*
X161958Y173467D01*
X161867Y173459D01*
X161837Y173447D01*
X161805Y173442D01*
X161724Y173399D01*
X161640Y173363D01*
X161608Y173337D01*
X161587Y173326D01*
X161565Y173303D01*
X161509Y173258D01*
X157191Y168940D01*
X157149Y168882D01*
X157100Y168830D01*
X157078Y168783D01*
X157048Y168741D01*
X157027Y168672D01*
X156996Y168607D01*
X156991Y168555D01*
X156975Y168505D01*
X156977Y168434D01*
X156969Y168363D01*
X156980Y168312D01*
X156982Y168260D01*
X157006Y168192D01*
X157022Y168122D01*
X157048Y168077D01*
X157066Y168029D01*
X157111Y167973D01*
X157148Y167911D01*
X157187Y167877D01*
X157220Y167837D01*
X157280Y167798D01*
X157335Y167751D01*
X157383Y167732D01*
X157427Y167704D01*
X157496Y167686D01*
X157563Y167659D01*
X157634Y167651D01*
X157665Y167643D01*
X157689Y167645D01*
X157730Y167641D01*
X158713Y167641D01*
X180341Y146013D01*
X180341Y118182D01*
X180355Y118092D01*
X180363Y118001D01*
X180375Y117971D01*
X180380Y117939D01*
X180423Y117859D01*
X180459Y117775D01*
X180485Y117743D01*
X180496Y117722D01*
X180519Y117700D01*
X180564Y117644D01*
X208627Y89581D01*
X208643Y89569D01*
X208655Y89554D01*
X208743Y89498D01*
X208826Y89438D01*
X208845Y89432D01*
X208862Y89421D01*
X208963Y89396D01*
X209061Y89365D01*
X209081Y89366D01*
X209101Y89361D01*
X209204Y89369D01*
X209307Y89372D01*
X209326Y89378D01*
X209346Y89380D01*
X209441Y89420D01*
X209538Y89456D01*
X209554Y89469D01*
X209572Y89476D01*
X209703Y89581D01*
X210166Y90044D01*
X221634Y90044D01*
X228062Y83616D01*
X228078Y83605D01*
X228090Y83589D01*
X228178Y83533D01*
X228261Y83473D01*
X228280Y83467D01*
X228297Y83456D01*
X228398Y83431D01*
X228497Y83400D01*
X228516Y83401D01*
X228536Y83396D01*
X228639Y83404D01*
X228742Y83407D01*
X228761Y83414D01*
X228781Y83415D01*
X228876Y83456D01*
X228973Y83491D01*
X228989Y83504D01*
X229007Y83511D01*
X229138Y83616D01*
X235566Y90044D01*
X247034Y90044D01*
X247497Y89581D01*
X247513Y89569D01*
X247526Y89554D01*
X247613Y89498D01*
X247697Y89438D01*
X247716Y89432D01*
X247732Y89421D01*
X247833Y89396D01*
X247932Y89365D01*
X247952Y89366D01*
X247971Y89361D01*
X248074Y89369D01*
X248178Y89372D01*
X248196Y89378D01*
X248216Y89380D01*
X248311Y89420D01*
X248409Y89456D01*
X248424Y89469D01*
X248442Y89476D01*
X248573Y89581D01*
X274858Y115866D01*
X274911Y115940D01*
X274971Y116009D01*
X274983Y116039D01*
X275002Y116066D01*
X275029Y116153D01*
X275063Y116237D01*
X275067Y116278D01*
X275074Y116301D01*
X275073Y116333D01*
X275081Y116404D01*
X275081Y123499D01*
X275067Y123589D01*
X275059Y123680D01*
X275047Y123709D01*
X275042Y123741D01*
X274999Y123822D01*
X274963Y123906D01*
X274937Y123938D01*
X274926Y123959D01*
X274903Y123981D01*
X274858Y124037D01*
X274093Y124802D01*
X274093Y129198D01*
X277202Y132307D01*
X281598Y132307D01*
X284707Y129198D01*
X284707Y124802D01*
X283942Y124037D01*
X283889Y123963D01*
X283829Y123893D01*
X283817Y123863D01*
X283798Y123837D01*
X283771Y123750D01*
X283737Y123665D01*
X283733Y123624D01*
X283726Y123602D01*
X283727Y123570D01*
X283719Y123499D01*
X283719Y112511D01*
X262043Y90835D01*
X262001Y90777D01*
X261952Y90725D01*
X261930Y90678D01*
X261899Y90636D01*
X261878Y90567D01*
X261848Y90502D01*
X261842Y90450D01*
X261827Y90400D01*
X261829Y90329D01*
X261821Y90258D01*
X261832Y90207D01*
X261833Y90155D01*
X261858Y90087D01*
X261873Y90017D01*
X261900Y89972D01*
X261918Y89924D01*
X261963Y89868D01*
X261999Y89806D01*
X262039Y89772D01*
X262071Y89732D01*
X262132Y89693D01*
X262186Y89646D01*
X262235Y89627D01*
X262278Y89599D01*
X262348Y89581D01*
X262414Y89554D01*
X262486Y89546D01*
X262517Y89538D01*
X262540Y89540D01*
X262581Y89536D01*
X265177Y89536D01*
X265177Y76962D01*
X265180Y76942D01*
X265178Y76923D01*
X265200Y76821D01*
X265217Y76719D01*
X265226Y76702D01*
X265230Y76682D01*
X265283Y76593D01*
X265332Y76502D01*
X265346Y76488D01*
X265356Y76471D01*
X265435Y76404D01*
X265510Y76333D01*
X265528Y76324D01*
X265543Y76311D01*
X265639Y76273D01*
X265733Y76229D01*
X265753Y76227D01*
X265771Y76219D01*
X265938Y76201D01*
X266701Y76201D01*
X266701Y76199D01*
X265938Y76199D01*
X265918Y76196D01*
X265899Y76198D01*
X265797Y76176D01*
X265695Y76159D01*
X265678Y76150D01*
X265658Y76146D01*
X265569Y76093D01*
X265478Y76044D01*
X265464Y76030D01*
X265447Y76020D01*
X265380Y75941D01*
X265309Y75866D01*
X265300Y75848D01*
X265287Y75833D01*
X265248Y75737D01*
X265205Y75643D01*
X265203Y75623D01*
X265195Y75605D01*
X265177Y75438D01*
X265177Y62864D01*
X261176Y62864D01*
X254897Y69143D01*
X254881Y69155D01*
X254869Y69170D01*
X254787Y69223D01*
X254786Y69224D01*
X254784Y69225D01*
X254781Y69226D01*
X254698Y69286D01*
X254679Y69292D01*
X254662Y69303D01*
X254561Y69328D01*
X254463Y69359D01*
X254443Y69358D01*
X254423Y69363D01*
X254320Y69355D01*
X254217Y69352D01*
X254198Y69346D01*
X254178Y69344D01*
X254083Y69304D01*
X253986Y69268D01*
X253970Y69256D01*
X253952Y69248D01*
X253821Y69143D01*
X246938Y62260D01*
X246896Y62202D01*
X246847Y62150D01*
X246825Y62103D01*
X246795Y62061D01*
X246774Y61992D01*
X246743Y61927D01*
X246738Y61875D01*
X246722Y61825D01*
X246724Y61754D01*
X246716Y61683D01*
X246727Y61632D01*
X246729Y61580D01*
X246753Y61512D01*
X246769Y61442D01*
X246795Y61398D01*
X246813Y61349D01*
X246858Y61293D01*
X246895Y61231D01*
X246934Y61197D01*
X246967Y61157D01*
X247027Y61118D01*
X247082Y61071D01*
X247130Y61052D01*
X247174Y61024D01*
X247243Y61006D01*
X247310Y60979D01*
X247381Y60971D01*
X247412Y60963D01*
X247436Y60965D01*
X247477Y60961D01*
X336723Y60961D01*
X336794Y60972D01*
X336866Y60974D01*
X336915Y60992D01*
X336966Y61000D01*
X337030Y61034D01*
X337097Y61059D01*
X337138Y61091D01*
X337184Y61116D01*
X337233Y61168D01*
X337289Y61212D01*
X337317Y61256D01*
X337353Y61294D01*
X337383Y61359D01*
X337422Y61419D01*
X337435Y61470D01*
X337457Y61517D01*
X337465Y61588D01*
X337482Y61658D01*
X337478Y61710D01*
X337484Y61761D01*
X337468Y61832D01*
X337463Y61903D01*
X337443Y61951D01*
X337431Y62002D01*
X337395Y62063D01*
X337367Y62129D01*
X337322Y62185D01*
X337305Y62213D01*
X337287Y62228D01*
X337262Y62260D01*
X329056Y70466D01*
X329056Y81934D01*
X335869Y88747D01*
X335881Y88763D01*
X335896Y88776D01*
X335952Y88863D01*
X336012Y88947D01*
X336018Y88966D01*
X336029Y88982D01*
X336054Y89083D01*
X336085Y89182D01*
X336084Y89202D01*
X336089Y89221D01*
X336081Y89324D01*
X336078Y89428D01*
X336072Y89446D01*
X336070Y89466D01*
X336030Y89561D01*
X335994Y89659D01*
X335981Y89674D01*
X335974Y89693D01*
X335869Y89823D01*
X257818Y167875D01*
X257724Y167942D01*
X257629Y168013D01*
X257623Y168015D01*
X257618Y168018D01*
X257507Y168052D01*
X257395Y168089D01*
X257389Y168089D01*
X257383Y168091D01*
X257266Y168088D01*
X257149Y168087D01*
X257142Y168084D01*
X257137Y168084D01*
X257119Y168078D01*
X256988Y168040D01*
X256021Y167639D01*
X251979Y167639D01*
X248244Y169186D01*
X245386Y172044D01*
X243839Y175779D01*
X243839Y179821D01*
X245386Y183556D01*
X248244Y186414D01*
X251979Y187961D01*
X256021Y187961D01*
X259756Y186414D01*
X262614Y183556D01*
X264161Y179821D01*
X264161Y175779D01*
X263760Y174812D01*
X263734Y174698D01*
X263705Y174585D01*
X263705Y174579D01*
X263704Y174572D01*
X263715Y174455D01*
X263724Y174340D01*
X263727Y174334D01*
X263727Y174328D01*
X263775Y174220D01*
X263820Y174113D01*
X263825Y174107D01*
X263827Y174103D01*
X263840Y174089D01*
X263925Y173982D01*
X337282Y100626D01*
X337340Y100584D01*
X337392Y100535D01*
X337439Y100513D01*
X337481Y100482D01*
X337550Y100461D01*
X337615Y100431D01*
X337667Y100425D01*
X337717Y100410D01*
X337788Y100412D01*
X337859Y100404D01*
X337910Y100415D01*
X337962Y100416D01*
X338030Y100441D01*
X338100Y100456D01*
X338144Y100483D01*
X338193Y100501D01*
X338249Y100546D01*
X338311Y100582D01*
X338345Y100622D01*
X338385Y100654D01*
X338424Y100715D01*
X338471Y100769D01*
X338490Y100818D01*
X338518Y100861D01*
X338536Y100931D01*
X338563Y100997D01*
X338571Y101069D01*
X338579Y101100D01*
X338577Y101123D01*
X338581Y101164D01*
X338581Y116089D01*
X345724Y123232D01*
X345777Y123306D01*
X345837Y123375D01*
X345849Y123405D01*
X345868Y123432D01*
X345895Y123519D01*
X345929Y123603D01*
X345933Y123644D01*
X345940Y123667D01*
X345939Y123699D01*
X345947Y123770D01*
X345947Y130998D01*
X351602Y136653D01*
X359598Y136653D01*
X365253Y130998D01*
X365253Y123002D01*
X359598Y117347D01*
X352370Y117347D01*
X352280Y117333D01*
X352189Y117325D01*
X352159Y117313D01*
X352127Y117308D01*
X352047Y117265D01*
X351963Y117229D01*
X351931Y117203D01*
X351910Y117192D01*
X351888Y117169D01*
X351832Y117124D01*
X347442Y112734D01*
X347389Y112660D01*
X347329Y112591D01*
X347317Y112561D01*
X347298Y112534D01*
X347271Y112447D01*
X347237Y112363D01*
X347233Y112322D01*
X347226Y112299D01*
X347227Y112267D01*
X347219Y112196D01*
X347219Y90805D01*
X347222Y90785D01*
X347220Y90766D01*
X347242Y90664D01*
X347258Y90562D01*
X347268Y90545D01*
X347272Y90525D01*
X347325Y90436D01*
X347374Y90345D01*
X347388Y90331D01*
X347398Y90314D01*
X347477Y90247D01*
X347552Y90175D01*
X347570Y90167D01*
X347585Y90154D01*
X347681Y90115D01*
X347775Y90072D01*
X347795Y90070D01*
X347813Y90062D01*
X347980Y90044D01*
X348634Y90044D01*
X355062Y83616D01*
X355078Y83605D01*
X355090Y83589D01*
X355178Y83533D01*
X355261Y83473D01*
X355280Y83467D01*
X355297Y83456D01*
X355398Y83431D01*
X355497Y83400D01*
X355516Y83401D01*
X355536Y83396D01*
X355639Y83404D01*
X355742Y83407D01*
X355761Y83414D01*
X355781Y83415D01*
X355876Y83455D01*
X355973Y83491D01*
X355989Y83504D01*
X356007Y83511D01*
X356138Y83616D01*
X362566Y90044D01*
X374034Y90044D01*
X374497Y89581D01*
X374513Y89569D01*
X374526Y89554D01*
X374613Y89498D01*
X374697Y89438D01*
X374716Y89432D01*
X374732Y89421D01*
X374833Y89396D01*
X374932Y89365D01*
X374952Y89366D01*
X374971Y89361D01*
X375074Y89369D01*
X375178Y89372D01*
X375196Y89378D01*
X375216Y89380D01*
X375311Y89420D01*
X375409Y89456D01*
X375424Y89469D01*
X375443Y89476D01*
X375573Y89581D01*
X414558Y128566D01*
X417311Y131319D01*
X422152Y131319D01*
X422242Y131333D01*
X422333Y131341D01*
X422363Y131353D01*
X422395Y131358D01*
X422476Y131401D01*
X422560Y131437D01*
X422592Y131463D01*
X422613Y131474D01*
X422635Y131497D01*
X422691Y131542D01*
X427258Y136109D01*
X427311Y136183D01*
X427371Y136253D01*
X427383Y136283D01*
X427402Y136309D01*
X427429Y136396D01*
X427463Y136481D01*
X427467Y136522D01*
X427474Y136544D01*
X427473Y136576D01*
X427481Y136648D01*
X427481Y142752D01*
X427467Y142842D01*
X427459Y142933D01*
X427447Y142963D01*
X427442Y142995D01*
X427399Y143076D01*
X427363Y143160D01*
X427337Y143192D01*
X427326Y143213D01*
X427303Y143235D01*
X427258Y143291D01*
X422147Y148402D01*
X422147Y156398D01*
X427258Y161509D01*
X427311Y161583D01*
X427371Y161653D01*
X427383Y161683D01*
X427402Y161709D01*
X427429Y161796D01*
X427463Y161881D01*
X427467Y161922D01*
X427474Y161944D01*
X427473Y161976D01*
X427481Y162048D01*
X427481Y168152D01*
X427467Y168242D01*
X427459Y168333D01*
X427447Y168363D01*
X427442Y168395D01*
X427399Y168476D01*
X427363Y168560D01*
X427337Y168592D01*
X427326Y168613D01*
X427303Y168635D01*
X427258Y168691D01*
X422147Y173802D01*
X422147Y181798D01*
X427802Y187453D01*
X435798Y187453D01*
X441453Y181798D01*
X441453Y173802D01*
X436342Y168691D01*
X436289Y168617D01*
X436229Y168547D01*
X436217Y168517D01*
X436198Y168491D01*
X436171Y168404D01*
X436137Y168319D01*
X436133Y168278D01*
X436126Y168256D01*
X436127Y168224D01*
X436119Y168152D01*
X436119Y162048D01*
X436133Y161958D01*
X436141Y161867D01*
X436153Y161837D01*
X436158Y161805D01*
X436201Y161724D01*
X436237Y161640D01*
X436263Y161608D01*
X436274Y161587D01*
X436297Y161565D01*
X436342Y161509D01*
X441453Y156398D01*
X441453Y148402D01*
X436342Y143291D01*
X436289Y143217D01*
X436229Y143147D01*
X436217Y143117D01*
X436198Y143091D01*
X436171Y143004D01*
X436137Y142919D01*
X436133Y142878D01*
X436126Y142856D01*
X436127Y142824D01*
X436119Y142752D01*
X436119Y136648D01*
X436133Y136558D01*
X436141Y136467D01*
X436153Y136437D01*
X436158Y136405D01*
X436201Y136324D01*
X436237Y136240D01*
X436263Y136208D01*
X436274Y136187D01*
X436297Y136165D01*
X436342Y136109D01*
X441453Y130998D01*
X441453Y123002D01*
X435798Y117347D01*
X427802Y117347D01*
X422691Y122458D01*
X422617Y122511D01*
X422547Y122571D01*
X422517Y122583D01*
X422491Y122602D01*
X422404Y122629D01*
X422319Y122663D01*
X422278Y122667D01*
X422256Y122674D01*
X422224Y122673D01*
X422152Y122681D01*
X421204Y122681D01*
X421114Y122667D01*
X421023Y122659D01*
X420993Y122647D01*
X420961Y122642D01*
X420881Y122599D01*
X420797Y122563D01*
X420765Y122537D01*
X420744Y122526D01*
X420722Y122503D01*
X420666Y122458D01*
X381681Y83473D01*
X381669Y83457D01*
X381654Y83445D01*
X381598Y83357D01*
X381538Y83274D01*
X381532Y83255D01*
X381521Y83238D01*
X381496Y83137D01*
X381465Y83039D01*
X381466Y83019D01*
X381461Y82999D01*
X381469Y82896D01*
X381472Y82793D01*
X381478Y82774D01*
X381480Y82754D01*
X381520Y82659D01*
X381556Y82562D01*
X381569Y82546D01*
X381576Y82528D01*
X381681Y82397D01*
X382144Y81934D01*
X382144Y70466D01*
X373938Y62260D01*
X373896Y62202D01*
X373847Y62150D01*
X373825Y62103D01*
X373795Y62061D01*
X373774Y61992D01*
X373743Y61927D01*
X373738Y61875D01*
X373722Y61825D01*
X373724Y61754D01*
X373716Y61683D01*
X373727Y61632D01*
X373729Y61580D01*
X373753Y61512D01*
X373769Y61442D01*
X373795Y61397D01*
X373813Y61349D01*
X373858Y61293D01*
X373895Y61231D01*
X373934Y61197D01*
X373967Y61157D01*
X374027Y61118D01*
X374082Y61071D01*
X374130Y61052D01*
X374174Y61024D01*
X374243Y61006D01*
X374310Y60979D01*
X374381Y60971D01*
X374412Y60963D01*
X374436Y60965D01*
X374477Y60961D01*
X628823Y60961D01*
X628894Y60972D01*
X628966Y60974D01*
X629015Y60992D01*
X629066Y61000D01*
X629130Y61034D01*
X629197Y61059D01*
X629238Y61091D01*
X629284Y61116D01*
X629333Y61168D01*
X629389Y61212D01*
X629417Y61256D01*
X629453Y61294D01*
X629483Y61359D01*
X629522Y61419D01*
X629535Y61470D01*
X629557Y61517D01*
X629565Y61588D01*
X629582Y61658D01*
X629578Y61710D01*
X629584Y61761D01*
X629568Y61832D01*
X629563Y61903D01*
X629543Y61951D01*
X629531Y62002D01*
X629495Y62063D01*
X629467Y62129D01*
X629422Y62185D01*
X629405Y62213D01*
X629387Y62228D01*
X629362Y62260D01*
X621156Y70466D01*
X621156Y81934D01*
X629266Y90044D01*
X640734Y90044D01*
X647521Y83257D01*
X647537Y83245D01*
X647550Y83230D01*
X647612Y83190D01*
X647661Y83147D01*
X647689Y83136D01*
X647721Y83114D01*
X647740Y83108D01*
X647756Y83097D01*
X647837Y83076D01*
X647890Y83055D01*
X647920Y83052D01*
X647956Y83041D01*
X647976Y83042D01*
X647995Y83037D01*
X648032Y83040D01*
X648056Y83037D01*
X648062Y83037D01*
X648112Y83045D01*
X648202Y83048D01*
X648220Y83054D01*
X648240Y83056D01*
X648279Y83073D01*
X648305Y83077D01*
X648357Y83104D01*
X648433Y83132D01*
X648448Y83144D01*
X648467Y83152D01*
X648504Y83182D01*
X648522Y83192D01*
X648542Y83213D01*
X648598Y83257D01*
X654876Y89536D01*
X658877Y89536D01*
X658877Y76962D01*
X658880Y76942D01*
X658878Y76923D01*
X658900Y76821D01*
X658917Y76719D01*
X658926Y76702D01*
X658930Y76682D01*
X658983Y76593D01*
X659032Y76502D01*
X659046Y76488D01*
X659056Y76471D01*
X659135Y76404D01*
X659210Y76333D01*
X659228Y76324D01*
X659243Y76311D01*
X659339Y76273D01*
X659433Y76229D01*
X659453Y76227D01*
X659471Y76219D01*
X659638Y76201D01*
X660401Y76201D01*
X660401Y76199D01*
X659638Y76199D01*
X659618Y76196D01*
X659599Y76198D01*
X659497Y76176D01*
X659395Y76159D01*
X659378Y76150D01*
X659358Y76146D01*
X659269Y76093D01*
X659178Y76044D01*
X659164Y76030D01*
X659147Y76020D01*
X659080Y75941D01*
X659009Y75866D01*
X659000Y75848D01*
X658987Y75833D01*
X658948Y75737D01*
X658905Y75643D01*
X658903Y75623D01*
X658895Y75605D01*
X658877Y75438D01*
X658877Y62864D01*
X654876Y62864D01*
X648597Y69143D01*
X648581Y69155D01*
X648569Y69170D01*
X648487Y69223D01*
X648486Y69224D01*
X648484Y69225D01*
X648481Y69226D01*
X648398Y69286D01*
X648379Y69292D01*
X648362Y69303D01*
X648261Y69328D01*
X648163Y69359D01*
X648143Y69358D01*
X648123Y69363D01*
X648020Y69355D01*
X647917Y69352D01*
X647898Y69346D01*
X647878Y69344D01*
X647783Y69304D01*
X647686Y69268D01*
X647670Y69256D01*
X647652Y69248D01*
X647521Y69143D01*
X640638Y62260D01*
X640596Y62202D01*
X640547Y62150D01*
X640525Y62103D01*
X640495Y62061D01*
X640474Y61992D01*
X640443Y61927D01*
X640438Y61875D01*
X640422Y61825D01*
X640424Y61754D01*
X640416Y61683D01*
X640427Y61632D01*
X640429Y61580D01*
X640453Y61512D01*
X640469Y61442D01*
X640495Y61398D01*
X640513Y61349D01*
X640558Y61293D01*
X640595Y61231D01*
X640634Y61197D01*
X640667Y61157D01*
X640727Y61118D01*
X640782Y61071D01*
X640830Y61052D01*
X640874Y61024D01*
X640943Y61006D01*
X641010Y60979D01*
X641081Y60971D01*
X641112Y60963D01*
X641136Y60965D01*
X641177Y60961D01*
X743123Y60961D01*
X743194Y60972D01*
X743266Y60974D01*
X743315Y60992D01*
X743366Y61000D01*
X743430Y61034D01*
X743497Y61059D01*
X743538Y61091D01*
X743584Y61116D01*
X743633Y61168D01*
X743689Y61212D01*
X743717Y61256D01*
X743753Y61294D01*
X743783Y61359D01*
X743822Y61419D01*
X743835Y61470D01*
X743857Y61517D01*
X743865Y61588D01*
X743882Y61658D01*
X743878Y61710D01*
X743884Y61761D01*
X743868Y61832D01*
X743863Y61903D01*
X743843Y61951D01*
X743831Y62002D01*
X743795Y62063D01*
X743767Y62129D01*
X743722Y62185D01*
X743705Y62213D01*
X743687Y62228D01*
X743662Y62260D01*
X735456Y70466D01*
X735456Y81934D01*
X743566Y90044D01*
X755034Y90044D01*
X761821Y83257D01*
X761837Y83245D01*
X761850Y83230D01*
X761912Y83190D01*
X761961Y83147D01*
X761989Y83136D01*
X762021Y83114D01*
X762040Y83108D01*
X762056Y83097D01*
X762137Y83076D01*
X762190Y83055D01*
X762220Y83052D01*
X762256Y83041D01*
X762276Y83042D01*
X762295Y83037D01*
X762332Y83040D01*
X762356Y83037D01*
X762362Y83037D01*
X762412Y83045D01*
X762502Y83048D01*
X762520Y83054D01*
X762540Y83056D01*
X762579Y83073D01*
X762605Y83077D01*
X762657Y83104D01*
X762733Y83132D01*
X762748Y83144D01*
X762767Y83152D01*
X762804Y83182D01*
X762822Y83192D01*
X762842Y83213D01*
X762897Y83257D01*
X769176Y89536D01*
X773177Y89536D01*
X773177Y76962D01*
X773180Y76942D01*
X773178Y76923D01*
X773200Y76821D01*
X773217Y76719D01*
X773226Y76702D01*
X773230Y76682D01*
X773283Y76593D01*
X773332Y76502D01*
X773346Y76488D01*
X773356Y76471D01*
X773435Y76404D01*
X773510Y76333D01*
X773528Y76324D01*
X773543Y76311D01*
X773639Y76273D01*
X773733Y76229D01*
X773753Y76227D01*
X773771Y76219D01*
X773938Y76201D01*
X774701Y76201D01*
X774701Y76199D01*
X773938Y76199D01*
X773918Y76196D01*
X773899Y76198D01*
X773797Y76176D01*
X773695Y76159D01*
X773678Y76150D01*
X773658Y76146D01*
X773569Y76093D01*
X773478Y76044D01*
X773464Y76030D01*
X773447Y76020D01*
X773380Y75941D01*
X773309Y75866D01*
X773300Y75848D01*
X773287Y75833D01*
X773248Y75737D01*
X773205Y75643D01*
X773203Y75623D01*
X773195Y75605D01*
X773177Y75438D01*
X773177Y62864D01*
X769176Y62864D01*
X762897Y69143D01*
X762881Y69155D01*
X762869Y69170D01*
X762787Y69223D01*
X762786Y69224D01*
X762784Y69225D01*
X762781Y69226D01*
X762698Y69286D01*
X762679Y69292D01*
X762662Y69303D01*
X762561Y69328D01*
X762463Y69359D01*
X762443Y69358D01*
X762423Y69363D01*
X762320Y69355D01*
X762217Y69352D01*
X762198Y69346D01*
X762178Y69344D01*
X762083Y69304D01*
X761986Y69268D01*
X761970Y69256D01*
X761952Y69248D01*
X761821Y69143D01*
X754938Y62260D01*
X754896Y62202D01*
X754847Y62150D01*
X754825Y62103D01*
X754795Y62061D01*
X754774Y61992D01*
X754743Y61927D01*
X754738Y61875D01*
X754722Y61825D01*
X754724Y61754D01*
X754716Y61683D01*
X754727Y61632D01*
X754729Y61580D01*
X754753Y61512D01*
X754769Y61442D01*
X754795Y61398D01*
X754813Y61349D01*
X754858Y61293D01*
X754895Y61231D01*
X754934Y61197D01*
X754967Y61157D01*
X755027Y61118D01*
X755082Y61071D01*
X755130Y61052D01*
X755174Y61024D01*
X755243Y61006D01*
X755310Y60979D01*
X755381Y60971D01*
X755412Y60963D01*
X755436Y60965D01*
X755477Y60961D01*
X973176Y60961D01*
X973266Y60975D01*
X973357Y60983D01*
X973387Y60995D01*
X973419Y61000D01*
X973499Y61043D01*
X973583Y61079D01*
X973615Y61105D01*
X973636Y61116D01*
X973658Y61139D01*
X973714Y61184D01*
X992716Y80186D01*
X992769Y80260D01*
X992829Y80329D01*
X992841Y80359D01*
X992860Y80386D01*
X992887Y80472D01*
X992921Y80557D01*
X992925Y80598D01*
X992932Y80621D01*
X992931Y80653D01*
X992939Y80724D01*
X992939Y120623D01*
X992928Y120694D01*
X992926Y120766D01*
X992908Y120815D01*
X992900Y120866D01*
X992866Y120930D01*
X992841Y120997D01*
X992809Y121038D01*
X992784Y121084D01*
X992732Y121133D01*
X992688Y121189D01*
X992644Y121217D01*
X992606Y121253D01*
X992541Y121283D01*
X992481Y121322D01*
X992430Y121335D01*
X992383Y121357D01*
X992312Y121365D01*
X992242Y121382D01*
X992190Y121378D01*
X992139Y121384D01*
X992068Y121368D01*
X991997Y121363D01*
X991949Y121343D01*
X991898Y121331D01*
X991837Y121295D01*
X991771Y121267D01*
X991715Y121222D01*
X991687Y121205D01*
X991672Y121187D01*
X991640Y121162D01*
X983634Y113156D01*
X972166Y113156D01*
X964056Y121266D01*
X964056Y132734D01*
X970843Y139521D01*
X970855Y139537D01*
X970870Y139550D01*
X970926Y139637D01*
X970986Y139721D01*
X970992Y139740D01*
X971003Y139756D01*
X971028Y139857D01*
X971059Y139956D01*
X971058Y139976D01*
X971063Y139995D01*
X971055Y140098D01*
X971052Y140202D01*
X971046Y140220D01*
X971044Y140240D01*
X971004Y140335D01*
X970968Y140433D01*
X970956Y140448D01*
X970948Y140467D01*
X970843Y140597D01*
X964564Y146876D01*
X964564Y150877D01*
X977138Y150877D01*
X977158Y150880D01*
X977177Y150878D01*
X977279Y150900D01*
X977381Y150917D01*
X977398Y150926D01*
X977418Y150930D01*
X977507Y150983D01*
X977598Y151032D01*
X977612Y151046D01*
X977629Y151056D01*
X977696Y151135D01*
X977767Y151210D01*
X977776Y151228D01*
X977789Y151243D01*
X977827Y151339D01*
X977871Y151433D01*
X977873Y151453D01*
X977881Y151471D01*
X977899Y151638D01*
X977899Y152401D01*
X977901Y152401D01*
X977901Y151638D01*
X977904Y151618D01*
X977902Y151599D01*
X977924Y151497D01*
X977941Y151395D01*
X977950Y151378D01*
X977954Y151358D01*
X978007Y151269D01*
X978056Y151178D01*
X978070Y151164D01*
X978080Y151147D01*
X978159Y151080D01*
X978234Y151009D01*
X978252Y151000D01*
X978267Y150987D01*
X978363Y150948D01*
X978457Y150905D01*
X978477Y150903D01*
X978495Y150895D01*
X978662Y150877D01*
X991236Y150877D01*
X991236Y146876D01*
X984957Y140597D01*
X984945Y140581D01*
X984930Y140569D01*
X984874Y140481D01*
X984814Y140398D01*
X984808Y140379D01*
X984797Y140362D01*
X984772Y140261D01*
X984741Y140163D01*
X984742Y140143D01*
X984737Y140123D01*
X984745Y140020D01*
X984748Y139917D01*
X984754Y139898D01*
X984756Y139878D01*
X984796Y139783D01*
X984832Y139686D01*
X984844Y139670D01*
X984852Y139652D01*
X984957Y139521D01*
X991640Y132838D01*
X991698Y132796D01*
X991750Y132747D01*
X991797Y132725D01*
X991839Y132695D01*
X991908Y132674D01*
X991973Y132643D01*
X992025Y132638D01*
X992075Y132622D01*
X992146Y132624D01*
X992217Y132616D01*
X992268Y132627D01*
X992320Y132629D01*
X992388Y132653D01*
X992458Y132669D01*
X992502Y132695D01*
X992551Y132713D01*
X992607Y132758D01*
X992669Y132795D01*
X992703Y132834D01*
X992743Y132867D01*
X992782Y132927D01*
X992829Y132982D01*
X992848Y133030D01*
X992876Y133074D01*
X992894Y133143D01*
X992921Y133210D01*
X992929Y133281D01*
X992937Y133312D01*
X992935Y133336D01*
X992939Y133377D01*
X992939Y478076D01*
X992925Y478166D01*
X992917Y478257D01*
X992905Y478287D01*
X992900Y478319D01*
X992857Y478399D01*
X992821Y478483D01*
X992795Y478515D01*
X992784Y478536D01*
X992761Y478558D01*
X992716Y478614D01*
X977014Y494316D01*
X976940Y494369D01*
X976871Y494429D01*
X976841Y494441D01*
X976814Y494460D01*
X976728Y494487D01*
X976643Y494521D01*
X976602Y494525D01*
X976579Y494532D01*
X976547Y494531D01*
X976476Y494539D01*
X26624Y494539D01*
X26534Y494525D01*
X26443Y494517D01*
X26413Y494505D01*
X26381Y494500D01*
X26301Y494457D01*
X26217Y494421D01*
X26185Y494395D01*
X26164Y494384D01*
X26142Y494361D01*
X26086Y494316D01*
X10384Y478614D01*
X10331Y478540D01*
X10271Y478471D01*
X10259Y478441D01*
X10240Y478415D01*
X10213Y478328D01*
X10179Y478243D01*
X10175Y478202D01*
X10168Y478179D01*
X10169Y478147D01*
X10161Y478076D01*
X10161Y133177D01*
X10172Y133106D01*
X10174Y133034D01*
X10192Y132985D01*
X10200Y132934D01*
X10234Y132871D01*
X10259Y132803D01*
X10291Y132762D01*
X10316Y132716D01*
X10367Y132667D01*
X10412Y132611D01*
X10456Y132583D01*
X10494Y132547D01*
X10559Y132517D01*
X10619Y132478D01*
X10670Y132465D01*
X10717Y132443D01*
X10788Y132435D01*
X10858Y132418D01*
X10910Y132422D01*
X10961Y132416D01*
X11032Y132432D01*
X11103Y132437D01*
X11151Y132457D01*
X11202Y132469D01*
X11263Y132505D01*
X11329Y132533D01*
X11385Y132578D01*
X11413Y132595D01*
X11428Y132613D01*
X11460Y132638D01*
X18343Y139521D01*
X18355Y139537D01*
X18370Y139550D01*
X18426Y139637D01*
X18486Y139721D01*
X18492Y139740D01*
X18503Y139756D01*
X18528Y139857D01*
X18559Y139956D01*
X18558Y139976D01*
X18563Y139995D01*
X18555Y140098D01*
X18552Y140202D01*
X18546Y140220D01*
X18544Y140240D01*
X18504Y140335D01*
X18468Y140433D01*
X18456Y140448D01*
X18448Y140467D01*
X18343Y140597D01*
X12064Y146876D01*
X12064Y150877D01*
X24638Y150877D01*
X24658Y150880D01*
X24677Y150878D01*
X24779Y150900D01*
X24881Y150917D01*
X24898Y150926D01*
X24918Y150930D01*
X25007Y150983D01*
X25098Y151032D01*
X25112Y151046D01*
X25129Y151056D01*
X25196Y151135D01*
X25267Y151210D01*
X25276Y151228D01*
X25289Y151243D01*
X25327Y151339D01*
X25371Y151433D01*
X25373Y151453D01*
X25381Y151471D01*
X25399Y151638D01*
X25399Y152401D01*
X25401Y152401D01*
X25401Y151638D01*
X25404Y151618D01*
X25402Y151599D01*
X25424Y151497D01*
X25441Y151395D01*
X25450Y151378D01*
X25454Y151358D01*
X25507Y151269D01*
X25556Y151178D01*
X25570Y151164D01*
X25580Y151147D01*
X25659Y151080D01*
X25734Y151009D01*
X25752Y151000D01*
X25767Y150987D01*
X25863Y150948D01*
X25957Y150905D01*
X25977Y150903D01*
X25995Y150895D01*
X26162Y150877D01*
X38736Y150877D01*
X38736Y146876D01*
X32457Y140597D01*
X32445Y140581D01*
X32430Y140569D01*
X32374Y140481D01*
X32314Y140398D01*
X32308Y140379D01*
X32297Y140362D01*
X32272Y140261D01*
X32241Y140163D01*
X32242Y140143D01*
X32237Y140123D01*
X32245Y140020D01*
X32248Y139917D01*
X32254Y139898D01*
X32256Y139878D01*
X32296Y139783D01*
X32332Y139686D01*
X32344Y139670D01*
X32352Y139652D01*
X32457Y139521D01*
X39244Y132734D01*
X39244Y121266D01*
X31134Y113156D01*
X19666Y113156D01*
X11460Y121362D01*
X11402Y121404D01*
X11350Y121453D01*
X11303Y121475D01*
X11261Y121505D01*
X11192Y121526D01*
X11127Y121557D01*
X11075Y121562D01*
X11025Y121578D01*
X10954Y121576D01*
X10883Y121584D01*
X10832Y121573D01*
X10780Y121571D01*
X10712Y121547D01*
X10642Y121531D01*
X10597Y121505D01*
X10549Y121487D01*
X10493Y121442D01*
X10431Y121405D01*
X10397Y121366D01*
X10357Y121333D01*
X10318Y121273D01*
X10271Y121218D01*
X10252Y121170D01*
X10224Y121126D01*
X10206Y121057D01*
X10179Y120990D01*
X10171Y120919D01*
X10163Y120888D01*
X10165Y120864D01*
X10161Y120823D01*
X10161Y80724D01*
X10162Y80716D01*
X10162Y80714D01*
X10164Y80702D01*
X10175Y80634D01*
X10183Y80543D01*
X10195Y80513D01*
X10200Y80481D01*
X10243Y80401D01*
X10279Y80317D01*
X10305Y80285D01*
X10316Y80264D01*
X10339Y80242D01*
X10384Y80186D01*
X29386Y61184D01*
X29460Y61131D01*
X29529Y61071D01*
X29559Y61059D01*
X29586Y61040D01*
X29672Y61013D01*
X29757Y60979D01*
X29798Y60975D01*
X29821Y60968D01*
X29853Y60969D01*
X29924Y60961D01*
X209723Y60961D01*
X209794Y60972D01*
G37*
%LPC*%
G36*
X608488Y134111D02*
X608488Y134111D01*
X607947Y134335D01*
X607884Y134350D01*
X607823Y134375D01*
X607740Y134384D01*
X607708Y134391D01*
X607689Y134390D01*
X607656Y134393D01*
X607402Y134393D01*
X607222Y134573D01*
X607169Y134611D01*
X607122Y134657D01*
X607073Y134684D01*
X607064Y134692D01*
X607048Y134698D01*
X607022Y134717D01*
X607004Y134722D01*
X606975Y134738D01*
X606434Y134962D01*
X604862Y136534D01*
X604638Y137075D01*
X604603Y137131D01*
X604578Y137191D01*
X604526Y137256D01*
X604508Y137284D01*
X604493Y137297D01*
X604473Y137322D01*
X604293Y137502D01*
X604293Y137756D01*
X604283Y137821D01*
X604282Y137886D01*
X604259Y137966D01*
X604254Y137999D01*
X604244Y138016D01*
X604235Y138047D01*
X604011Y138588D01*
X604011Y238670D01*
X603997Y238760D01*
X603989Y238851D01*
X603977Y238881D01*
X603972Y238912D01*
X603929Y238993D01*
X603893Y239077D01*
X603867Y239109D01*
X603856Y239130D01*
X603833Y239152D01*
X603788Y239208D01*
X536239Y306757D01*
X536145Y306825D01*
X536050Y306895D01*
X536044Y306897D01*
X536039Y306901D01*
X535929Y306935D01*
X535817Y306971D01*
X535810Y306971D01*
X535804Y306973D01*
X535688Y306970D01*
X535571Y306969D01*
X535563Y306967D01*
X535559Y306967D01*
X535541Y306960D01*
X535534Y306958D01*
X531303Y306958D01*
X527429Y308563D01*
X524463Y311529D01*
X522858Y315403D01*
X522858Y319597D01*
X524463Y323471D01*
X527429Y326437D01*
X531303Y328042D01*
X535561Y328042D01*
X535637Y328023D01*
X535643Y328023D01*
X535649Y328022D01*
X535766Y328033D01*
X535882Y328042D01*
X535888Y328044D01*
X535894Y328045D01*
X536001Y328092D01*
X536108Y328138D01*
X536114Y328143D01*
X536119Y328145D01*
X536132Y328157D01*
X536239Y328243D01*
X541255Y333259D01*
X542934Y334938D01*
X544988Y335789D01*
X561147Y335789D01*
X561237Y335803D01*
X561328Y335811D01*
X561358Y335823D01*
X561389Y335828D01*
X561470Y335871D01*
X561554Y335907D01*
X561586Y335933D01*
X561607Y335944D01*
X561629Y335967D01*
X561685Y336012D01*
X566923Y341250D01*
X576077Y341250D01*
X582550Y334777D01*
X582550Y325623D01*
X576077Y319150D01*
X566923Y319150D01*
X561685Y324388D01*
X561611Y324441D01*
X561542Y324501D01*
X561511Y324513D01*
X561485Y324532D01*
X561398Y324559D01*
X561313Y324593D01*
X561273Y324597D01*
X561250Y324604D01*
X561218Y324603D01*
X561147Y324611D01*
X548730Y324611D01*
X548640Y324597D01*
X548549Y324589D01*
X548519Y324577D01*
X548488Y324572D01*
X548407Y324529D01*
X548323Y324493D01*
X548291Y324467D01*
X548270Y324456D01*
X548248Y324433D01*
X548192Y324388D01*
X544143Y320339D01*
X544075Y320245D01*
X544005Y320150D01*
X544003Y320144D01*
X543999Y320140D01*
X543965Y320029D01*
X543929Y319917D01*
X543929Y319910D01*
X543927Y319904D01*
X543930Y319788D01*
X543930Y319772D01*
X543927Y319746D01*
X543931Y319731D01*
X543931Y319671D01*
X543933Y319663D01*
X543933Y319659D01*
X543940Y319641D01*
X543942Y319634D01*
X543942Y315339D01*
X543923Y315263D01*
X543923Y315257D01*
X543922Y315251D01*
X543933Y315134D01*
X543942Y315018D01*
X543944Y315012D01*
X543945Y315006D01*
X543992Y314899D01*
X544038Y314792D01*
X544043Y314786D01*
X544045Y314781D01*
X544057Y314768D01*
X544143Y314661D01*
X612659Y246145D01*
X614338Y244466D01*
X615189Y242412D01*
X615189Y138588D01*
X614965Y138047D01*
X614950Y137984D01*
X614925Y137923D01*
X614916Y137840D01*
X614909Y137808D01*
X614910Y137789D01*
X614907Y137756D01*
X614907Y137502D01*
X614727Y137322D01*
X614689Y137269D01*
X614643Y137222D01*
X614603Y137149D01*
X614583Y137122D01*
X614578Y137104D01*
X614562Y137075D01*
X614338Y136534D01*
X612766Y134962D01*
X612225Y134738D01*
X612169Y134703D01*
X612109Y134678D01*
X612071Y134647D01*
X612070Y134647D01*
X612044Y134626D01*
X612016Y134608D01*
X612003Y134593D01*
X611978Y134573D01*
X611798Y134393D01*
X611544Y134393D01*
X611479Y134383D01*
X611414Y134382D01*
X611334Y134359D01*
X611301Y134354D01*
X611284Y134344D01*
X611253Y134335D01*
X610712Y134111D01*
X608488Y134111D01*
G37*
%LPD*%
%LPC*%
G36*
X645911Y109981D02*
X645911Y109981D01*
X638768Y117124D01*
X638694Y117177D01*
X638625Y117237D01*
X638595Y117249D01*
X638568Y117268D01*
X638481Y117295D01*
X638397Y117329D01*
X638356Y117333D01*
X638333Y117340D01*
X638301Y117339D01*
X638230Y117347D01*
X631002Y117347D01*
X625347Y123002D01*
X625347Y130998D01*
X631002Y136653D01*
X638998Y136653D01*
X644653Y130998D01*
X644653Y123770D01*
X644667Y123680D01*
X644675Y123589D01*
X644687Y123559D01*
X644692Y123527D01*
X644735Y123447D01*
X644771Y123363D01*
X644797Y123331D01*
X644808Y123310D01*
X644831Y123288D01*
X644876Y123232D01*
X649266Y118842D01*
X649340Y118789D01*
X649409Y118729D01*
X649439Y118717D01*
X649466Y118698D01*
X649553Y118671D01*
X649637Y118637D01*
X649678Y118633D01*
X649701Y118626D01*
X649733Y118627D01*
X649804Y118619D01*
X652574Y118619D01*
X652645Y118630D01*
X652716Y118632D01*
X652765Y118650D01*
X652817Y118658D01*
X652880Y118692D01*
X652947Y118717D01*
X652988Y118749D01*
X653034Y118774D01*
X653083Y118826D01*
X653139Y118870D01*
X653168Y118914D01*
X653204Y118952D01*
X653234Y119017D01*
X653272Y119077D01*
X653285Y119128D01*
X653307Y119175D01*
X653315Y119246D01*
X653333Y119316D01*
X653328Y119368D01*
X653334Y119419D01*
X653319Y119490D01*
X653313Y119561D01*
X653293Y119609D01*
X653282Y119660D01*
X653245Y119721D01*
X653217Y119787D01*
X653172Y119843D01*
X653156Y119871D01*
X653138Y119886D01*
X653112Y119918D01*
X651786Y121244D01*
X650239Y124979D01*
X650239Y129021D01*
X651786Y132756D01*
X654644Y135614D01*
X658379Y137161D01*
X662421Y137161D01*
X666156Y135614D01*
X669014Y132756D01*
X670561Y129021D01*
X670561Y124979D01*
X669014Y121244D01*
X667688Y119918D01*
X667646Y119860D01*
X667596Y119808D01*
X667575Y119761D01*
X667544Y119719D01*
X667523Y119650D01*
X667493Y119585D01*
X667487Y119533D01*
X667472Y119483D01*
X667474Y119412D01*
X667466Y119341D01*
X667477Y119290D01*
X667478Y119238D01*
X667503Y119170D01*
X667518Y119100D01*
X667545Y119055D01*
X667563Y119007D01*
X667607Y118951D01*
X667644Y118889D01*
X667684Y118855D01*
X667716Y118815D01*
X667777Y118776D01*
X667831Y118729D01*
X667879Y118710D01*
X667923Y118682D01*
X667993Y118664D01*
X668059Y118637D01*
X668131Y118629D01*
X668162Y118621D01*
X668185Y118623D01*
X668226Y118619D01*
X729492Y118619D01*
X729563Y118630D01*
X729635Y118632D01*
X729684Y118650D01*
X729735Y118658D01*
X729799Y118692D01*
X729866Y118717D01*
X729907Y118749D01*
X729953Y118774D01*
X730002Y118826D01*
X730058Y118870D01*
X730086Y118914D01*
X730122Y118952D01*
X730152Y119017D01*
X730191Y119077D01*
X730204Y119128D01*
X730226Y119175D01*
X730233Y119246D01*
X730251Y119316D01*
X730247Y119368D01*
X730253Y119419D01*
X730237Y119490D01*
X730232Y119561D01*
X730211Y119609D01*
X730200Y119660D01*
X730164Y119721D01*
X730136Y119787D01*
X730091Y119843D01*
X730074Y119871D01*
X730056Y119886D01*
X730031Y119918D01*
X729237Y120712D01*
X728344Y121941D01*
X727654Y123295D01*
X727185Y124740D01*
X727068Y125477D01*
X735838Y125477D01*
X735858Y125480D01*
X735877Y125478D01*
X735979Y125500D01*
X736081Y125517D01*
X736098Y125526D01*
X736118Y125530D01*
X736207Y125583D01*
X736298Y125632D01*
X736312Y125646D01*
X736329Y125656D01*
X736396Y125735D01*
X736467Y125810D01*
X736476Y125828D01*
X736489Y125843D01*
X736527Y125939D01*
X736571Y126033D01*
X736573Y126053D01*
X736581Y126071D01*
X736599Y126238D01*
X736599Y127001D01*
X736601Y127001D01*
X736601Y126238D01*
X736604Y126218D01*
X736602Y126199D01*
X736624Y126097D01*
X736641Y125995D01*
X736650Y125978D01*
X736654Y125958D01*
X736707Y125869D01*
X736756Y125778D01*
X736770Y125764D01*
X736780Y125747D01*
X736859Y125680D01*
X736934Y125609D01*
X736952Y125600D01*
X736967Y125587D01*
X737063Y125548D01*
X737157Y125505D01*
X737177Y125503D01*
X737195Y125495D01*
X737362Y125477D01*
X746132Y125477D01*
X746015Y124740D01*
X745546Y123295D01*
X744856Y121941D01*
X743963Y120712D01*
X743169Y119918D01*
X743127Y119860D01*
X743078Y119808D01*
X743056Y119761D01*
X743026Y119719D01*
X743005Y119650D01*
X742974Y119585D01*
X742969Y119533D01*
X742953Y119483D01*
X742955Y119412D01*
X742947Y119341D01*
X742958Y119290D01*
X742960Y119238D01*
X742984Y119170D01*
X743000Y119100D01*
X743026Y119055D01*
X743044Y119007D01*
X743089Y118951D01*
X743126Y118889D01*
X743165Y118855D01*
X743198Y118815D01*
X743258Y118776D01*
X743313Y118729D01*
X743361Y118710D01*
X743405Y118682D01*
X743474Y118664D01*
X743541Y118637D01*
X743612Y118629D01*
X743643Y118621D01*
X743667Y118623D01*
X743708Y118619D01*
X759896Y118619D01*
X759986Y118633D01*
X760077Y118641D01*
X760107Y118653D01*
X760139Y118658D01*
X760219Y118701D01*
X760303Y118737D01*
X760335Y118763D01*
X760356Y118774D01*
X760378Y118797D01*
X760434Y118842D01*
X764824Y123232D01*
X764877Y123306D01*
X764937Y123375D01*
X764949Y123405D01*
X764968Y123432D01*
X764995Y123519D01*
X765029Y123603D01*
X765033Y123644D01*
X765040Y123667D01*
X765039Y123699D01*
X765047Y123770D01*
X765047Y130998D01*
X770702Y136653D01*
X778698Y136653D01*
X784353Y130998D01*
X784353Y123002D01*
X778698Y117347D01*
X771470Y117347D01*
X771380Y117333D01*
X771289Y117325D01*
X771259Y117313D01*
X771227Y117308D01*
X771147Y117265D01*
X771063Y117229D01*
X771031Y117203D01*
X771010Y117192D01*
X770988Y117169D01*
X770932Y117124D01*
X766542Y112734D01*
X763789Y109981D01*
X645911Y109981D01*
G37*
%LPD*%
%LPC*%
G36*
X161102Y193547D02*
X161102Y193547D01*
X155447Y199202D01*
X155447Y206430D01*
X155433Y206520D01*
X155425Y206611D01*
X155413Y206641D01*
X155408Y206673D01*
X155365Y206753D01*
X155329Y206837D01*
X155303Y206869D01*
X155292Y206890D01*
X155269Y206912D01*
X155224Y206968D01*
X138134Y224058D01*
X138060Y224111D01*
X137991Y224171D01*
X137961Y224183D01*
X137934Y224202D01*
X137847Y224229D01*
X137763Y224263D01*
X137722Y224267D01*
X137699Y224274D01*
X137667Y224273D01*
X137596Y224281D01*
X79701Y224281D01*
X79611Y224267D01*
X79520Y224259D01*
X79491Y224247D01*
X79459Y224242D01*
X79378Y224199D01*
X79294Y224163D01*
X79262Y224137D01*
X79241Y224126D01*
X79219Y224103D01*
X79163Y224058D01*
X78398Y223293D01*
X74002Y223293D01*
X70893Y226402D01*
X70893Y230798D01*
X74002Y233907D01*
X78398Y233907D01*
X79163Y233142D01*
X79237Y233089D01*
X79307Y233029D01*
X79337Y233017D01*
X79363Y232998D01*
X79450Y232971D01*
X79535Y232937D01*
X79576Y232933D01*
X79598Y232926D01*
X79630Y232927D01*
X79701Y232919D01*
X141489Y232919D01*
X144242Y230166D01*
X159482Y214926D01*
X159540Y214884D01*
X159592Y214835D01*
X159639Y214813D01*
X159681Y214782D01*
X159750Y214761D01*
X159815Y214731D01*
X159867Y214725D01*
X159917Y214710D01*
X159988Y214712D01*
X160059Y214704D01*
X160110Y214715D01*
X160162Y214716D01*
X160230Y214741D01*
X160300Y214756D01*
X160345Y214783D01*
X160393Y214801D01*
X160449Y214846D01*
X160511Y214882D01*
X160545Y214922D01*
X160585Y214954D01*
X160624Y215015D01*
X160671Y215069D01*
X160690Y215118D01*
X160718Y215161D01*
X160736Y215231D01*
X160763Y215297D01*
X160771Y215369D01*
X160779Y215400D01*
X160777Y215423D01*
X160781Y215464D01*
X160781Y217689D01*
X176011Y232919D01*
X250499Y232919D01*
X250589Y232933D01*
X250680Y232941D01*
X250709Y232953D01*
X250741Y232958D01*
X250822Y233001D01*
X250906Y233037D01*
X250938Y233063D01*
X250959Y233074D01*
X250981Y233097D01*
X251037Y233142D01*
X251802Y233907D01*
X256198Y233907D01*
X259307Y230798D01*
X259307Y226402D01*
X256198Y223293D01*
X251802Y223293D01*
X251037Y224058D01*
X250963Y224111D01*
X250893Y224171D01*
X250863Y224183D01*
X250837Y224202D01*
X250750Y224229D01*
X250665Y224263D01*
X250624Y224267D01*
X250602Y224274D01*
X250570Y224273D01*
X250499Y224281D01*
X179904Y224281D01*
X179814Y224267D01*
X179723Y224259D01*
X179693Y224247D01*
X179661Y224242D01*
X179581Y224199D01*
X179497Y224163D01*
X179465Y224137D01*
X179444Y224126D01*
X179422Y224103D01*
X179366Y224058D01*
X169642Y214334D01*
X169589Y214260D01*
X169529Y214191D01*
X169517Y214161D01*
X169498Y214134D01*
X169471Y214047D01*
X169437Y213963D01*
X169433Y213922D01*
X169426Y213899D01*
X169427Y213867D01*
X169419Y213796D01*
X169419Y212848D01*
X169433Y212757D01*
X169441Y212667D01*
X169453Y212637D01*
X169458Y212605D01*
X169501Y212524D01*
X169537Y212440D01*
X169563Y212408D01*
X169574Y212387D01*
X169597Y212365D01*
X169642Y212309D01*
X174753Y207198D01*
X174753Y199202D01*
X169098Y193547D01*
X161102Y193547D01*
G37*
%LPD*%
%LPC*%
G36*
X148402Y307847D02*
X148402Y307847D01*
X143291Y312958D01*
X143217Y313011D01*
X143147Y313071D01*
X143117Y313083D01*
X143091Y313102D01*
X143004Y313129D01*
X142919Y313163D01*
X142878Y313167D01*
X142856Y313174D01*
X142824Y313173D01*
X142752Y313181D01*
X125211Y313181D01*
X84295Y354098D01*
X84201Y354165D01*
X84106Y354236D01*
X84100Y354238D01*
X84095Y354241D01*
X83984Y354276D01*
X83872Y354312D01*
X83866Y354312D01*
X83860Y354314D01*
X83743Y354311D01*
X83626Y354310D01*
X83619Y354308D01*
X83614Y354307D01*
X83596Y354301D01*
X83465Y354263D01*
X79333Y352551D01*
X73067Y352551D01*
X67279Y354949D01*
X62849Y359379D01*
X60451Y365167D01*
X60451Y371433D01*
X62849Y377221D01*
X67279Y381651D01*
X73067Y384049D01*
X79333Y384049D01*
X85121Y381651D01*
X89551Y377221D01*
X91949Y371433D01*
X91949Y365167D01*
X90237Y361035D01*
X90210Y360922D01*
X90182Y360808D01*
X90182Y360802D01*
X90181Y360796D01*
X90192Y360679D01*
X90201Y360563D01*
X90203Y360557D01*
X90204Y360551D01*
X90252Y360443D01*
X90297Y360336D01*
X90302Y360331D01*
X90304Y360326D01*
X90317Y360312D01*
X90402Y360205D01*
X128566Y322042D01*
X128640Y321989D01*
X128709Y321929D01*
X128739Y321917D01*
X128766Y321898D01*
X128853Y321871D01*
X128937Y321837D01*
X128978Y321833D01*
X129001Y321826D01*
X129033Y321827D01*
X129104Y321819D01*
X142752Y321819D01*
X142842Y321833D01*
X142933Y321841D01*
X142963Y321853D01*
X142995Y321858D01*
X143076Y321901D01*
X143160Y321937D01*
X143192Y321963D01*
X143213Y321974D01*
X143235Y321997D01*
X143291Y322042D01*
X148402Y327153D01*
X156398Y327153D01*
X162053Y321498D01*
X162053Y313502D01*
X156398Y307847D01*
X148402Y307847D01*
G37*
%LPD*%
%LPC*%
G36*
X859602Y117347D02*
X859602Y117347D01*
X853947Y123002D01*
X853947Y130998D01*
X857031Y134082D01*
X857073Y134140D01*
X857122Y134192D01*
X857144Y134239D01*
X857174Y134281D01*
X857195Y134350D01*
X857226Y134415D01*
X857231Y134467D01*
X857247Y134517D01*
X857245Y134588D01*
X857253Y134659D01*
X857242Y134710D01*
X857240Y134762D01*
X857216Y134830D01*
X857200Y134900D01*
X857174Y134945D01*
X857156Y134993D01*
X857111Y135049D01*
X857074Y135111D01*
X857035Y135145D01*
X857002Y135185D01*
X856942Y135224D01*
X856887Y135271D01*
X856839Y135290D01*
X856795Y135318D01*
X856726Y135336D01*
X856659Y135363D01*
X856588Y135371D01*
X856557Y135379D01*
X856533Y135377D01*
X856492Y135381D01*
X854401Y135381D01*
X854311Y135367D01*
X854220Y135359D01*
X854191Y135347D01*
X854159Y135342D01*
X854078Y135299D01*
X853994Y135263D01*
X853962Y135237D01*
X853941Y135226D01*
X853919Y135203D01*
X853863Y135158D01*
X853098Y134393D01*
X848702Y134393D01*
X845593Y137502D01*
X845593Y141898D01*
X846134Y142439D01*
X846145Y142455D01*
X846161Y142467D01*
X846217Y142554D01*
X846277Y142638D01*
X846283Y142657D01*
X846294Y142674D01*
X846319Y142775D01*
X846350Y142873D01*
X846349Y142893D01*
X846354Y142913D01*
X846346Y143016D01*
X846343Y143119D01*
X846336Y143138D01*
X846335Y143158D01*
X846295Y143253D01*
X846259Y143350D01*
X846246Y143366D01*
X846239Y143384D01*
X846134Y143515D01*
X841247Y148402D01*
X841247Y156398D01*
X846902Y162053D01*
X854898Y162053D01*
X860553Y156398D01*
X860553Y148402D01*
X857469Y145318D01*
X857427Y145260D01*
X857378Y145208D01*
X857356Y145161D01*
X857326Y145119D01*
X857305Y145050D01*
X857274Y144985D01*
X857269Y144933D01*
X857253Y144883D01*
X857255Y144812D01*
X857247Y144741D01*
X857258Y144690D01*
X857260Y144638D01*
X857284Y144570D01*
X857300Y144500D01*
X857326Y144455D01*
X857344Y144407D01*
X857389Y144351D01*
X857426Y144289D01*
X857465Y144255D01*
X857498Y144215D01*
X857558Y144176D01*
X857613Y144129D01*
X857661Y144110D01*
X857705Y144082D01*
X857774Y144064D01*
X857841Y144037D01*
X857912Y144029D01*
X857943Y144021D01*
X857967Y144023D01*
X858008Y144019D01*
X903489Y144019D01*
X910632Y136876D01*
X910706Y136823D01*
X910775Y136763D01*
X910805Y136751D01*
X910832Y136732D01*
X910919Y136705D01*
X911003Y136671D01*
X911044Y136667D01*
X911067Y136660D01*
X911099Y136661D01*
X911170Y136653D01*
X918398Y136653D01*
X924053Y130998D01*
X924053Y123002D01*
X918398Y117347D01*
X910402Y117347D01*
X904747Y123002D01*
X904747Y130230D01*
X904741Y130268D01*
X904742Y130274D01*
X904735Y130302D01*
X904733Y130320D01*
X904725Y130411D01*
X904713Y130441D01*
X904708Y130473D01*
X904692Y130502D01*
X904689Y130514D01*
X904662Y130560D01*
X904629Y130637D01*
X904603Y130669D01*
X904592Y130690D01*
X904574Y130708D01*
X904563Y130725D01*
X904548Y130738D01*
X904524Y130768D01*
X900134Y135158D01*
X900060Y135211D01*
X899991Y135271D01*
X899961Y135283D01*
X899934Y135302D01*
X899847Y135329D01*
X899763Y135363D01*
X899722Y135367D01*
X899699Y135374D01*
X899667Y135373D01*
X899596Y135381D01*
X870708Y135381D01*
X870637Y135370D01*
X870565Y135368D01*
X870516Y135350D01*
X870465Y135342D01*
X870401Y135308D01*
X870334Y135283D01*
X870293Y135251D01*
X870247Y135226D01*
X870198Y135174D01*
X870142Y135130D01*
X870114Y135086D01*
X870078Y135048D01*
X870048Y134983D01*
X870009Y134923D01*
X869996Y134872D01*
X869974Y134825D01*
X869967Y134754D01*
X869949Y134684D01*
X869953Y134632D01*
X869947Y134581D01*
X869963Y134510D01*
X869968Y134439D01*
X869988Y134391D01*
X870000Y134340D01*
X870036Y134279D01*
X870064Y134213D01*
X870109Y134157D01*
X870126Y134129D01*
X870144Y134114D01*
X870169Y134082D01*
X873253Y130998D01*
X873253Y123002D01*
X867598Y117347D01*
X859602Y117347D01*
G37*
%LPD*%
%LPC*%
G36*
X328179Y142239D02*
X328179Y142239D01*
X324444Y143786D01*
X321586Y146644D01*
X320039Y150379D01*
X320039Y154421D01*
X321586Y158156D01*
X324444Y161014D01*
X325411Y161414D01*
X325511Y161476D01*
X325611Y161536D01*
X325615Y161541D01*
X325620Y161544D01*
X325695Y161634D01*
X325771Y161723D01*
X325773Y161729D01*
X325777Y161733D01*
X325819Y161842D01*
X325863Y161951D01*
X325864Y161959D01*
X325865Y161963D01*
X325866Y161981D01*
X325881Y162118D01*
X325881Y168082D01*
X325862Y168197D01*
X325845Y168313D01*
X325843Y168319D01*
X325842Y168325D01*
X325787Y168428D01*
X325734Y168533D01*
X325729Y168537D01*
X325726Y168542D01*
X325642Y168622D01*
X325558Y168705D01*
X325552Y168708D01*
X325548Y168712D01*
X325531Y168720D01*
X325411Y168786D01*
X324444Y169186D01*
X321586Y172044D01*
X320039Y175779D01*
X320039Y179821D01*
X321586Y183556D01*
X324444Y186414D01*
X328179Y187961D01*
X332221Y187961D01*
X335956Y186414D01*
X338814Y183556D01*
X340361Y179821D01*
X340361Y175779D01*
X338814Y172044D01*
X335956Y169186D01*
X334989Y168786D01*
X334889Y168724D01*
X334789Y168664D01*
X334785Y168659D01*
X334780Y168656D01*
X334705Y168566D01*
X334629Y168477D01*
X334627Y168471D01*
X334623Y168467D01*
X334581Y168358D01*
X334537Y168249D01*
X334536Y168241D01*
X334535Y168237D01*
X334534Y168219D01*
X334519Y168082D01*
X334519Y162118D01*
X334538Y162002D01*
X334555Y161887D01*
X334557Y161881D01*
X334558Y161875D01*
X334613Y161772D01*
X334666Y161667D01*
X334671Y161663D01*
X334674Y161658D01*
X334758Y161578D01*
X334842Y161495D01*
X334848Y161492D01*
X334852Y161488D01*
X334869Y161480D01*
X334989Y161414D01*
X335956Y161014D01*
X338814Y158156D01*
X339214Y157189D01*
X339276Y157089D01*
X339336Y156989D01*
X339341Y156985D01*
X339344Y156980D01*
X339434Y156905D01*
X339523Y156829D01*
X339529Y156827D01*
X339533Y156823D01*
X339642Y156781D01*
X339751Y156737D01*
X339759Y156736D01*
X339763Y156735D01*
X339781Y156734D01*
X339918Y156719D01*
X345952Y156719D01*
X346042Y156733D01*
X346133Y156741D01*
X346163Y156753D01*
X346195Y156758D01*
X346276Y156801D01*
X346360Y156837D01*
X346392Y156863D01*
X346413Y156874D01*
X346435Y156897D01*
X346491Y156942D01*
X351602Y162053D01*
X359598Y162053D01*
X365253Y156398D01*
X365253Y148402D01*
X359598Y142747D01*
X351602Y142747D01*
X346491Y147858D01*
X346417Y147911D01*
X346347Y147971D01*
X346317Y147983D01*
X346291Y148002D01*
X346204Y148029D01*
X346119Y148063D01*
X346078Y148067D01*
X346056Y148074D01*
X346024Y148073D01*
X345952Y148081D01*
X339918Y148081D01*
X339803Y148062D01*
X339687Y148045D01*
X339681Y148043D01*
X339675Y148042D01*
X339572Y147987D01*
X339467Y147934D01*
X339463Y147929D01*
X339458Y147926D01*
X339378Y147842D01*
X339295Y147758D01*
X339292Y147752D01*
X339288Y147748D01*
X339280Y147731D01*
X339214Y147611D01*
X338814Y146644D01*
X335956Y143786D01*
X332221Y142239D01*
X328179Y142239D01*
G37*
%LPD*%
%LPC*%
G36*
X334017Y257301D02*
X334017Y257301D01*
X332231Y259087D01*
X332231Y287013D01*
X334017Y288799D01*
X361943Y288799D01*
X363729Y287013D01*
X363729Y259087D01*
X361943Y257301D01*
X334017Y257301D01*
G37*
%LPD*%
%LPC*%
G36*
X923967Y454151D02*
X923967Y454151D01*
X918179Y456549D01*
X913749Y460979D01*
X911351Y466767D01*
X911351Y473033D01*
X913749Y478821D01*
X918179Y483251D01*
X923967Y485649D01*
X930233Y485649D01*
X936021Y483251D01*
X940451Y478821D01*
X942849Y473033D01*
X942849Y466767D01*
X940451Y460979D01*
X936021Y456549D01*
X930233Y454151D01*
X923967Y454151D01*
G37*
%LPD*%
%LPC*%
G36*
X243247Y257301D02*
X243247Y257301D01*
X237459Y259699D01*
X233029Y264129D01*
X230631Y269917D01*
X230631Y276183D01*
X233029Y281971D01*
X237459Y286401D01*
X243247Y288799D01*
X249513Y288799D01*
X255301Y286401D01*
X259731Y281971D01*
X262129Y276183D01*
X262129Y269917D01*
X259731Y264129D01*
X255301Y259699D01*
X249513Y257301D01*
X243247Y257301D01*
G37*
%LPD*%
%LPC*%
G36*
X625517Y257301D02*
X625517Y257301D01*
X619729Y259699D01*
X615299Y264129D01*
X612901Y269917D01*
X612901Y276183D01*
X615299Y281971D01*
X619729Y286401D01*
X625517Y288799D01*
X631783Y288799D01*
X637571Y286401D01*
X642001Y281971D01*
X644399Y276183D01*
X644399Y269917D01*
X642001Y264129D01*
X637571Y259699D01*
X631783Y257301D01*
X625517Y257301D01*
G37*
%LPD*%
%LPC*%
G36*
X73067Y403351D02*
X73067Y403351D01*
X67279Y405749D01*
X62849Y410179D01*
X60451Y415967D01*
X60451Y422233D01*
X62849Y428021D01*
X67279Y432451D01*
X73067Y434849D01*
X79333Y434849D01*
X85121Y432451D01*
X89551Y428021D01*
X91949Y422233D01*
X91949Y415967D01*
X89551Y410179D01*
X85121Y405749D01*
X79333Y403351D01*
X73067Y403351D01*
G37*
%LPD*%
%LPC*%
G36*
X923967Y403351D02*
X923967Y403351D01*
X918179Y405749D01*
X913749Y410179D01*
X911351Y415967D01*
X911351Y422233D01*
X913749Y428021D01*
X918179Y432451D01*
X923967Y434849D01*
X930233Y434849D01*
X936021Y432451D01*
X940451Y428021D01*
X942849Y422233D01*
X942849Y415967D01*
X940451Y410179D01*
X936021Y405749D01*
X930233Y403351D01*
X923967Y403351D01*
G37*
%LPD*%
%LPC*%
G36*
X294047Y257301D02*
X294047Y257301D01*
X288259Y259699D01*
X283829Y264129D01*
X281431Y269917D01*
X281431Y276183D01*
X283829Y281971D01*
X288259Y286401D01*
X294047Y288799D01*
X300313Y288799D01*
X306101Y286401D01*
X310531Y281971D01*
X312929Y276183D01*
X312929Y269917D01*
X310531Y264129D01*
X306101Y259699D01*
X300313Y257301D01*
X294047Y257301D01*
G37*
%LPD*%
%LPC*%
G36*
X499275Y64261D02*
X499275Y64261D01*
X494887Y66079D01*
X491529Y69437D01*
X489711Y73825D01*
X489711Y78575D01*
X491529Y82963D01*
X494887Y86321D01*
X499275Y88139D01*
X504025Y88139D01*
X508413Y86321D01*
X511771Y82963D01*
X513589Y78575D01*
X513589Y73825D01*
X511771Y69437D01*
X508413Y66079D01*
X504025Y64261D01*
X499275Y64261D01*
G37*
%LPD*%
%LPC*%
G36*
X143517Y408431D02*
X143517Y408431D01*
X141731Y410217D01*
X141731Y427983D01*
X143517Y429769D01*
X161283Y429769D01*
X163069Y427983D01*
X163069Y410217D01*
X161283Y408431D01*
X143517Y408431D01*
G37*
%LPD*%
%LPC*%
G36*
X652025Y193039D02*
X652025Y193039D01*
X650239Y194825D01*
X650239Y211575D01*
X652025Y213361D01*
X668775Y213361D01*
X670561Y211575D01*
X670561Y194825D01*
X668775Y193039D01*
X652025Y193039D01*
G37*
%LPD*%
%LPC*%
G36*
X503423Y192150D02*
X503423Y192150D01*
X496950Y198623D01*
X496950Y207777D01*
X503423Y214250D01*
X512577Y214250D01*
X519050Y207777D01*
X519050Y198623D01*
X512577Y192150D01*
X503423Y192150D01*
G37*
%LPD*%
%LPC*%
G36*
X503423Y128650D02*
X503423Y128650D01*
X496950Y135123D01*
X496950Y144277D01*
X503423Y150750D01*
X512577Y150750D01*
X519050Y144277D01*
X519050Y135123D01*
X512577Y128650D01*
X503423Y128650D01*
G37*
%LPD*%
%LPC*%
G36*
X401823Y319150D02*
X401823Y319150D01*
X395350Y325623D01*
X395350Y334777D01*
X401823Y341250D01*
X410977Y341250D01*
X417450Y334777D01*
X417450Y325623D01*
X410977Y319150D01*
X401823Y319150D01*
G37*
%LPD*%
%LPC*%
G36*
X378802Y319150D02*
X378802Y319150D01*
X374741Y320833D01*
X371633Y323941D01*
X369950Y328002D01*
X369950Y332398D01*
X371633Y336459D01*
X374741Y339567D01*
X378802Y341250D01*
X383198Y341250D01*
X387259Y339567D01*
X390367Y336459D01*
X392050Y332398D01*
X392050Y328002D01*
X390367Y323941D01*
X387259Y320833D01*
X383198Y319150D01*
X378802Y319150D01*
G37*
%LPD*%
%LPC*%
G36*
X201078Y408431D02*
X201078Y408431D01*
X197157Y410055D01*
X194155Y413057D01*
X192531Y416978D01*
X192531Y421222D01*
X194155Y425143D01*
X197157Y428145D01*
X201078Y429769D01*
X205322Y429769D01*
X209243Y428145D01*
X212245Y425143D01*
X213869Y421222D01*
X213869Y416978D01*
X212245Y413057D01*
X209243Y410055D01*
X205322Y408431D01*
X201078Y408431D01*
G37*
%LPD*%
%LPC*%
G36*
X455103Y357758D02*
X455103Y357758D01*
X451229Y359363D01*
X448263Y362329D01*
X446658Y366203D01*
X446658Y370397D01*
X448263Y374271D01*
X451229Y377237D01*
X455103Y378842D01*
X459297Y378842D01*
X463171Y377237D01*
X466137Y374271D01*
X467742Y370397D01*
X467742Y366203D01*
X466137Y362329D01*
X463171Y359363D01*
X459297Y357758D01*
X455103Y357758D01*
G37*
%LPD*%
%LPC*%
G36*
X531303Y357758D02*
X531303Y357758D01*
X527429Y359363D01*
X524463Y362329D01*
X522858Y366203D01*
X522858Y370397D01*
X524463Y374271D01*
X527429Y377237D01*
X531303Y378842D01*
X535497Y378842D01*
X539371Y377237D01*
X542337Y374271D01*
X543942Y370397D01*
X543942Y366203D01*
X542337Y362329D01*
X539371Y359363D01*
X535497Y357758D01*
X531303Y357758D01*
G37*
%LPD*%
%LPC*%
G36*
X455103Y306958D02*
X455103Y306958D01*
X451229Y308563D01*
X448263Y311529D01*
X446658Y315403D01*
X446658Y319597D01*
X448263Y323471D01*
X451229Y326437D01*
X455103Y328042D01*
X459297Y328042D01*
X463171Y326437D01*
X466137Y323471D01*
X467742Y319597D01*
X467742Y315403D01*
X466137Y311529D01*
X463171Y308563D01*
X459297Y306958D01*
X455103Y306958D01*
G37*
%LPD*%
%LPC*%
G36*
X251979Y116839D02*
X251979Y116839D01*
X248244Y118386D01*
X245386Y121244D01*
X243839Y124979D01*
X243839Y129021D01*
X245386Y132756D01*
X248244Y135614D01*
X251979Y137161D01*
X256021Y137161D01*
X259756Y135614D01*
X262614Y132756D01*
X264161Y129021D01*
X264161Y124979D01*
X262614Y121244D01*
X259756Y118386D01*
X256021Y116839D01*
X251979Y116839D01*
G37*
%LPD*%
%LPC*%
G36*
X658379Y167639D02*
X658379Y167639D01*
X654644Y169186D01*
X651786Y172044D01*
X650239Y175779D01*
X650239Y179821D01*
X651786Y183556D01*
X654644Y186414D01*
X658379Y187961D01*
X662421Y187961D01*
X666156Y186414D01*
X669014Y183556D01*
X670561Y179821D01*
X670561Y175779D01*
X669014Y172044D01*
X666156Y169186D01*
X662421Y167639D01*
X658379Y167639D01*
G37*
%LPD*%
%LPC*%
G36*
X734579Y142239D02*
X734579Y142239D01*
X730844Y143786D01*
X727986Y146644D01*
X726439Y150379D01*
X726439Y154421D01*
X727986Y158156D01*
X730844Y161014D01*
X734579Y162561D01*
X738621Y162561D01*
X742356Y161014D01*
X745214Y158156D01*
X746761Y154421D01*
X746761Y150379D01*
X745214Y146644D01*
X742356Y143786D01*
X738621Y142239D01*
X734579Y142239D01*
G37*
%LPD*%
%LPC*%
G36*
X251979Y142239D02*
X251979Y142239D01*
X248244Y143786D01*
X245386Y146644D01*
X243839Y150379D01*
X243839Y154421D01*
X245386Y158156D01*
X248244Y161014D01*
X251979Y162561D01*
X256021Y162561D01*
X259756Y161014D01*
X262614Y158156D01*
X264161Y154421D01*
X264161Y150379D01*
X262614Y146644D01*
X259756Y143786D01*
X256021Y142239D01*
X251979Y142239D01*
G37*
%LPD*%
%LPC*%
G36*
X658379Y142239D02*
X658379Y142239D01*
X654644Y143786D01*
X651786Y146644D01*
X650239Y150379D01*
X650239Y154421D01*
X651786Y158156D01*
X654644Y161014D01*
X658379Y162561D01*
X662421Y162561D01*
X666156Y161014D01*
X669014Y158156D01*
X670561Y154421D01*
X670561Y150379D01*
X669014Y146644D01*
X666156Y143786D01*
X662421Y142239D01*
X658379Y142239D01*
G37*
%LPD*%
%LPC*%
G36*
X923102Y142747D02*
X923102Y142747D01*
X917447Y148402D01*
X917447Y156398D01*
X923102Y162053D01*
X931098Y162053D01*
X936753Y156398D01*
X936753Y148402D01*
X931098Y142747D01*
X923102Y142747D01*
G37*
%LPD*%
%LPC*%
G36*
X631002Y193547D02*
X631002Y193547D01*
X625347Y199202D01*
X625347Y207198D01*
X631002Y212853D01*
X638998Y212853D01*
X644653Y207198D01*
X644653Y199202D01*
X638998Y193547D01*
X631002Y193547D01*
G37*
%LPD*%
%LPC*%
G36*
X846902Y193547D02*
X846902Y193547D01*
X841247Y199202D01*
X841247Y207198D01*
X846902Y212853D01*
X854898Y212853D01*
X860553Y207198D01*
X860553Y199202D01*
X854898Y193547D01*
X846902Y193547D01*
G37*
%LPD*%
%LPC*%
G36*
X135702Y193547D02*
X135702Y193547D01*
X130047Y199202D01*
X130047Y207198D01*
X135702Y212853D01*
X143698Y212853D01*
X149353Y207198D01*
X149353Y199202D01*
X143698Y193547D01*
X135702Y193547D01*
G37*
%LPD*%
%LPC*%
G36*
X923102Y193547D02*
X923102Y193547D01*
X917447Y199202D01*
X917447Y207198D01*
X923102Y212853D01*
X931098Y212853D01*
X936753Y207198D01*
X936753Y199202D01*
X931098Y193547D01*
X923102Y193547D01*
G37*
%LPD*%
%LPC*%
G36*
X770702Y384047D02*
X770702Y384047D01*
X765047Y389702D01*
X765047Y397698D01*
X770702Y403353D01*
X778698Y403353D01*
X784353Y397698D01*
X784353Y389702D01*
X778698Y384047D01*
X770702Y384047D01*
G37*
%LPD*%
%LPC*%
G36*
X211902Y117347D02*
X211902Y117347D01*
X206247Y123002D01*
X206247Y130998D01*
X211902Y136653D01*
X219898Y136653D01*
X225553Y130998D01*
X225553Y123002D01*
X219898Y117347D01*
X211902Y117347D01*
G37*
%LPD*%
%LPC*%
G36*
X821502Y142747D02*
X821502Y142747D01*
X815847Y148402D01*
X815847Y156398D01*
X821502Y162053D01*
X829498Y162053D01*
X835153Y156398D01*
X835153Y148402D01*
X829498Y142747D01*
X821502Y142747D01*
G37*
%LPD*%
%LPC*%
G36*
X554802Y193547D02*
X554802Y193547D01*
X549147Y199202D01*
X549147Y207198D01*
X554802Y212853D01*
X562798Y212853D01*
X568453Y207198D01*
X568453Y199202D01*
X562798Y193547D01*
X554802Y193547D01*
G37*
%LPD*%
%LPC*%
G36*
X351602Y168147D02*
X351602Y168147D01*
X345947Y173802D01*
X345947Y181798D01*
X351602Y187453D01*
X359598Y187453D01*
X365253Y181798D01*
X365253Y173802D01*
X359598Y168147D01*
X351602Y168147D01*
G37*
%LPD*%
%LPC*%
G36*
X135702Y117347D02*
X135702Y117347D01*
X130047Y123002D01*
X130047Y130998D01*
X135702Y136653D01*
X143698Y136653D01*
X149353Y130998D01*
X149353Y123002D01*
X143698Y117347D01*
X135702Y117347D01*
G37*
%LPD*%
%LPC*%
G36*
X846902Y168147D02*
X846902Y168147D01*
X841247Y173802D01*
X841247Y181798D01*
X846902Y187453D01*
X854898Y187453D01*
X860553Y181798D01*
X860553Y173802D01*
X854898Y168147D01*
X846902Y168147D01*
G37*
%LPD*%
%LPC*%
G36*
X59502Y117347D02*
X59502Y117347D01*
X53847Y123002D01*
X53847Y130998D01*
X59502Y136653D01*
X67498Y136653D01*
X73153Y130998D01*
X73153Y123002D01*
X67498Y117347D01*
X59502Y117347D01*
G37*
%LPD*%
%LPC*%
G36*
X770702Y409447D02*
X770702Y409447D01*
X765047Y415102D01*
X765047Y423098D01*
X770702Y428753D01*
X778698Y428753D01*
X784353Y423098D01*
X784353Y415102D01*
X778698Y409447D01*
X770702Y409447D01*
G37*
%LPD*%
%LPC*%
G36*
X821502Y409447D02*
X821502Y409447D01*
X815847Y415102D01*
X815847Y423098D01*
X821502Y428753D01*
X829498Y428753D01*
X835153Y423098D01*
X835153Y415102D01*
X829498Y409447D01*
X821502Y409447D01*
G37*
%LPD*%
%LPC*%
G36*
X211902Y384047D02*
X211902Y384047D01*
X206247Y389702D01*
X206247Y397698D01*
X211902Y403353D01*
X219898Y403353D01*
X225553Y397698D01*
X225553Y389702D01*
X219898Y384047D01*
X211902Y384047D01*
G37*
%LPD*%
%LPC*%
G36*
X821502Y384047D02*
X821502Y384047D01*
X815847Y389702D01*
X815847Y397698D01*
X821502Y403353D01*
X829498Y403353D01*
X835153Y397698D01*
X835153Y389702D01*
X829498Y384047D01*
X821502Y384047D01*
G37*
%LPD*%
%LPC*%
G36*
X554802Y117347D02*
X554802Y117347D01*
X549147Y123002D01*
X549147Y130998D01*
X554802Y136653D01*
X562798Y136653D01*
X568453Y130998D01*
X568453Y123002D01*
X562798Y117347D01*
X554802Y117347D01*
G37*
%LPD*%
%LPC*%
G36*
X123002Y142747D02*
X123002Y142747D01*
X117347Y148402D01*
X117347Y156398D01*
X123002Y162053D01*
X130998Y162053D01*
X136653Y156398D01*
X136653Y148402D01*
X130998Y142747D01*
X123002Y142747D01*
G37*
%LPD*%
%LPC*%
G36*
X224602Y142747D02*
X224602Y142747D01*
X218947Y148402D01*
X218947Y156398D01*
X224602Y162053D01*
X232598Y162053D01*
X238253Y156398D01*
X238253Y148402D01*
X232598Y142747D01*
X224602Y142747D01*
G37*
%LPD*%
%LPC*%
G36*
X605602Y66547D02*
X605602Y66547D01*
X599947Y72202D01*
X599947Y80198D01*
X605602Y85853D01*
X613598Y85853D01*
X619253Y80198D01*
X619253Y72202D01*
X613598Y66547D01*
X605602Y66547D01*
G37*
%LPD*%
%LPC*%
G36*
X631002Y142747D02*
X631002Y142747D01*
X625347Y148402D01*
X625347Y156398D01*
X631002Y162053D01*
X638998Y162053D01*
X644653Y156398D01*
X644653Y148402D01*
X638998Y142747D01*
X631002Y142747D01*
G37*
%LPD*%
%LPC*%
G36*
X529402Y66547D02*
X529402Y66547D01*
X523747Y72202D01*
X523747Y80198D01*
X529402Y85853D01*
X537398Y85853D01*
X543053Y80198D01*
X543053Y72202D01*
X537398Y66547D01*
X529402Y66547D01*
G37*
%LPD*%
%LPC*%
G36*
X770702Y142747D02*
X770702Y142747D01*
X765047Y148402D01*
X765047Y156398D01*
X770702Y162053D01*
X778698Y162053D01*
X784353Y156398D01*
X784353Y148402D01*
X778698Y142747D01*
X770702Y142747D01*
G37*
%LPD*%
%LPC*%
G36*
X135702Y358647D02*
X135702Y358647D01*
X130047Y364302D01*
X130047Y372298D01*
X135702Y377953D01*
X143698Y377953D01*
X149353Y372298D01*
X149353Y364302D01*
X143698Y358647D01*
X135702Y358647D01*
G37*
%LPD*%
%LPC*%
G36*
X211902Y358647D02*
X211902Y358647D01*
X206247Y364302D01*
X206247Y372298D01*
X211902Y377953D01*
X219898Y377953D01*
X225553Y372298D01*
X225553Y364302D01*
X219898Y358647D01*
X211902Y358647D01*
G37*
%LPD*%
%LPC*%
G36*
X770702Y358647D02*
X770702Y358647D01*
X765047Y364302D01*
X765047Y372298D01*
X770702Y377953D01*
X778698Y377953D01*
X784353Y372298D01*
X784353Y364302D01*
X778698Y358647D01*
X770702Y358647D01*
G37*
%LPD*%
%LPC*%
G36*
X427802Y193547D02*
X427802Y193547D01*
X422147Y199202D01*
X422147Y207198D01*
X427802Y212853D01*
X435798Y212853D01*
X441453Y207198D01*
X441453Y199202D01*
X435798Y193547D01*
X427802Y193547D01*
G37*
%LPD*%
%LPC*%
G36*
X148402Y333247D02*
X148402Y333247D01*
X142747Y338902D01*
X142747Y346898D01*
X148402Y352553D01*
X156398Y352553D01*
X162053Y346898D01*
X162053Y338902D01*
X156398Y333247D01*
X148402Y333247D01*
G37*
%LPD*%
%LPC*%
G36*
X758002Y333247D02*
X758002Y333247D01*
X752347Y338902D01*
X752347Y346898D01*
X758002Y352553D01*
X765998Y352553D01*
X771653Y346898D01*
X771653Y338902D01*
X765998Y333247D01*
X758002Y333247D01*
G37*
%LPD*%
%LPC*%
G36*
X199202Y307847D02*
X199202Y307847D01*
X193547Y313502D01*
X193547Y321498D01*
X199202Y327153D01*
X207198Y327153D01*
X212853Y321498D01*
X212853Y313502D01*
X207198Y307847D01*
X199202Y307847D01*
G37*
%LPD*%
%LPC*%
G36*
X821502Y168147D02*
X821502Y168147D01*
X815847Y173802D01*
X815847Y181798D01*
X821502Y187453D01*
X829498Y187453D01*
X835153Y181798D01*
X835153Y173802D01*
X829498Y168147D01*
X821502Y168147D01*
G37*
%LPD*%
%LPC*%
G36*
X923102Y168147D02*
X923102Y168147D01*
X917447Y173802D01*
X917447Y181798D01*
X923102Y187453D01*
X931098Y187453D01*
X936753Y181798D01*
X936753Y173802D01*
X931098Y168147D01*
X923102Y168147D01*
G37*
%LPD*%
%LPC*%
G36*
X123002Y168147D02*
X123002Y168147D01*
X117347Y173802D01*
X117347Y181798D01*
X123002Y187453D01*
X130998Y187453D01*
X136653Y181798D01*
X136653Y173802D01*
X130998Y168147D01*
X123002Y168147D01*
G37*
%LPD*%
%LPC*%
G36*
X554802Y168147D02*
X554802Y168147D01*
X549147Y173802D01*
X549147Y181798D01*
X554802Y187453D01*
X562798Y187453D01*
X568453Y181798D01*
X568453Y173802D01*
X562798Y168147D01*
X554802Y168147D01*
G37*
%LPD*%
%LPC*%
G36*
X522223Y471423D02*
X522223Y471423D01*
X522223Y482356D01*
X523637Y482132D01*
X525514Y481522D01*
X527273Y480626D01*
X528870Y479466D01*
X530266Y478070D01*
X531426Y476473D01*
X531756Y475825D01*
X531765Y475812D01*
X531771Y475797D01*
X531838Y475713D01*
X531902Y475627D01*
X531915Y475617D01*
X531925Y475605D01*
X532015Y475547D01*
X532103Y475485D01*
X532118Y475481D01*
X532131Y475472D01*
X532236Y475446D01*
X532339Y475415D01*
X532355Y475416D01*
X532370Y475412D01*
X532477Y475420D01*
X532584Y475424D01*
X532599Y475430D01*
X532615Y475431D01*
X532714Y475473D01*
X532815Y475511D01*
X532827Y475521D01*
X532842Y475527D01*
X532973Y475632D01*
X540576Y483236D01*
X544577Y483236D01*
X544577Y471423D01*
X522223Y471423D01*
G37*
%LPD*%
%LPC*%
G36*
X540576Y456564D02*
X540576Y456564D01*
X532973Y464168D01*
X532960Y464177D01*
X532950Y464190D01*
X532859Y464249D01*
X532773Y464311D01*
X532758Y464316D01*
X532744Y464325D01*
X532640Y464352D01*
X532538Y464384D01*
X532522Y464383D01*
X532506Y464387D01*
X532399Y464380D01*
X532292Y464377D01*
X532277Y464372D01*
X532261Y464371D01*
X532162Y464330D01*
X532061Y464293D01*
X532048Y464283D01*
X532034Y464277D01*
X531953Y464207D01*
X531869Y464139D01*
X531860Y464126D01*
X531848Y464115D01*
X531756Y463975D01*
X531426Y463327D01*
X530266Y461730D01*
X528870Y460334D01*
X527273Y459174D01*
X525514Y458278D01*
X523637Y457668D01*
X522223Y457444D01*
X522223Y468377D01*
X544577Y468377D01*
X544577Y456564D01*
X540576Y456564D01*
G37*
%LPD*%
%LPC*%
G36*
X77723Y471423D02*
X77723Y471423D01*
X77723Y485141D01*
X89234Y485141D01*
X89881Y484968D01*
X90460Y484633D01*
X90933Y484160D01*
X91268Y483581D01*
X91441Y482934D01*
X91441Y471423D01*
X77723Y471423D01*
G37*
%LPD*%
%LPC*%
G36*
X928623Y369823D02*
X928623Y369823D01*
X928623Y383541D01*
X940134Y383541D01*
X940781Y383368D01*
X941360Y383033D01*
X941833Y382560D01*
X942168Y381981D01*
X942341Y381334D01*
X942341Y369823D01*
X928623Y369823D01*
G37*
%LPD*%
%LPC*%
G36*
X731773Y274573D02*
X731773Y274573D01*
X731773Y288291D01*
X743284Y288291D01*
X743931Y288118D01*
X744510Y287783D01*
X744983Y287310D01*
X745318Y286731D01*
X745491Y286084D01*
X745491Y274573D01*
X731773Y274573D01*
G37*
%LPD*%
%LPC*%
G36*
X77723Y468377D02*
X77723Y468377D01*
X91441Y468377D01*
X91441Y456866D01*
X91268Y456219D01*
X90933Y455640D01*
X90460Y455167D01*
X89881Y454832D01*
X89234Y454659D01*
X77723Y454659D01*
X77723Y468377D01*
G37*
%LPD*%
%LPC*%
G36*
X928623Y366777D02*
X928623Y366777D01*
X942341Y366777D01*
X942341Y355266D01*
X942168Y354619D01*
X941833Y354040D01*
X941360Y353567D01*
X940781Y353232D01*
X940134Y353059D01*
X928623Y353059D01*
X928623Y366777D01*
G37*
%LPD*%
%LPC*%
G36*
X60959Y471423D02*
X60959Y471423D01*
X60959Y482934D01*
X61132Y483581D01*
X61467Y484160D01*
X61940Y484633D01*
X62519Y484968D01*
X63166Y485141D01*
X74677Y485141D01*
X74677Y471423D01*
X60959Y471423D01*
G37*
%LPD*%
%LPC*%
G36*
X731773Y257809D02*
X731773Y257809D01*
X731773Y271527D01*
X745491Y271527D01*
X745491Y260016D01*
X745318Y259369D01*
X744983Y258790D01*
X744510Y258317D01*
X743931Y257982D01*
X743284Y257809D01*
X731773Y257809D01*
G37*
%LPD*%
%LPC*%
G36*
X715009Y274573D02*
X715009Y274573D01*
X715009Y286084D01*
X715182Y286731D01*
X715517Y287310D01*
X715990Y287783D01*
X716569Y288118D01*
X717216Y288291D01*
X728727Y288291D01*
X728727Y274573D01*
X715009Y274573D01*
G37*
%LPD*%
%LPC*%
G36*
X911859Y369823D02*
X911859Y369823D01*
X911859Y381334D01*
X912032Y381981D01*
X912367Y382560D01*
X912840Y383033D01*
X913419Y383368D01*
X914066Y383541D01*
X925577Y383541D01*
X925577Y369823D01*
X911859Y369823D01*
G37*
%LPD*%
%LPC*%
G36*
X717216Y257809D02*
X717216Y257809D01*
X716569Y257982D01*
X715990Y258317D01*
X715517Y258790D01*
X715182Y259369D01*
X715009Y260016D01*
X715009Y271527D01*
X728727Y271527D01*
X728727Y257809D01*
X717216Y257809D01*
G37*
%LPD*%
%LPC*%
G36*
X63166Y454659D02*
X63166Y454659D01*
X62519Y454832D01*
X61940Y455167D01*
X61467Y455640D01*
X61132Y456219D01*
X60959Y456866D01*
X60959Y468377D01*
X74677Y468377D01*
X74677Y454659D01*
X63166Y454659D01*
G37*
%LPD*%
%LPC*%
G36*
X914066Y353059D02*
X914066Y353059D01*
X913419Y353232D01*
X912840Y353567D01*
X912367Y354040D01*
X912032Y354619D01*
X911859Y355266D01*
X911859Y366777D01*
X925577Y366777D01*
X925577Y353059D01*
X914066Y353059D01*
G37*
%LPD*%
%LPC*%
G36*
X979423Y153923D02*
X979423Y153923D01*
X979423Y165736D01*
X983424Y165736D01*
X991236Y157924D01*
X991236Y153923D01*
X979423Y153923D01*
G37*
%LPD*%
%LPC*%
G36*
X547623Y471423D02*
X547623Y471423D01*
X547623Y483236D01*
X551624Y483236D01*
X559436Y475424D01*
X559436Y471423D01*
X547623Y471423D01*
G37*
%LPD*%
%LPC*%
G36*
X26923Y153923D02*
X26923Y153923D01*
X26923Y165736D01*
X30924Y165736D01*
X38736Y157924D01*
X38736Y153923D01*
X26923Y153923D01*
G37*
%LPD*%
%LPC*%
G36*
X661923Y77723D02*
X661923Y77723D01*
X661923Y89536D01*
X665924Y89536D01*
X673736Y81724D01*
X673736Y77723D01*
X661923Y77723D01*
G37*
%LPD*%
%LPC*%
G36*
X268223Y77723D02*
X268223Y77723D01*
X268223Y89536D01*
X272224Y89536D01*
X280036Y81724D01*
X280036Y77723D01*
X268223Y77723D01*
G37*
%LPD*%
%LPC*%
G36*
X776223Y77723D02*
X776223Y77723D01*
X776223Y89536D01*
X780224Y89536D01*
X788036Y81724D01*
X788036Y77723D01*
X776223Y77723D01*
G37*
%LPD*%
%LPC*%
G36*
X12064Y153923D02*
X12064Y153923D01*
X12064Y157924D01*
X19876Y165736D01*
X23877Y165736D01*
X23877Y153923D01*
X12064Y153923D01*
G37*
%LPD*%
%LPC*%
G36*
X547623Y456564D02*
X547623Y456564D01*
X547623Y468377D01*
X559436Y468377D01*
X559436Y464376D01*
X551624Y456564D01*
X547623Y456564D01*
G37*
%LPD*%
%LPC*%
G36*
X964564Y153923D02*
X964564Y153923D01*
X964564Y157924D01*
X972376Y165736D01*
X976377Y165736D01*
X976377Y153923D01*
X964564Y153923D01*
G37*
%LPD*%
%LPC*%
G36*
X661923Y62864D02*
X661923Y62864D01*
X661923Y74677D01*
X673736Y74677D01*
X673736Y70676D01*
X665924Y62864D01*
X661923Y62864D01*
G37*
%LPD*%
%LPC*%
G36*
X268223Y62864D02*
X268223Y62864D01*
X268223Y74677D01*
X280036Y74677D01*
X280036Y70676D01*
X272224Y62864D01*
X268223Y62864D01*
G37*
%LPD*%
%LPC*%
G36*
X776223Y62864D02*
X776223Y62864D01*
X776223Y74677D01*
X788036Y74677D01*
X788036Y70676D01*
X780224Y62864D01*
X776223Y62864D01*
G37*
%LPD*%
%LPC*%
G36*
X508244Y471423D02*
X508244Y471423D01*
X508468Y472836D01*
X509078Y474714D01*
X509974Y476473D01*
X511134Y478070D01*
X512530Y479466D01*
X514127Y480626D01*
X515886Y481522D01*
X517763Y482132D01*
X519177Y482356D01*
X519177Y471423D01*
X508244Y471423D01*
G37*
%LPD*%
%LPC*%
G36*
X517763Y457668D02*
X517763Y457668D01*
X515886Y458278D01*
X514127Y459174D01*
X512530Y460334D01*
X511134Y461730D01*
X509974Y463327D01*
X509078Y465086D01*
X508468Y466963D01*
X508244Y468377D01*
X519177Y468377D01*
X519177Y457444D01*
X517763Y457668D01*
G37*
%LPD*%
%LPC*%
G36*
X509523Y268223D02*
X509523Y268223D01*
X509523Y277242D01*
X512367Y277242D01*
X518542Y271067D01*
X518542Y268223D01*
X509523Y268223D01*
G37*
%LPD*%
%LPC*%
G36*
X509523Y256158D02*
X509523Y256158D01*
X509523Y265177D01*
X518542Y265177D01*
X518542Y262333D01*
X512367Y256158D01*
X509523Y256158D01*
G37*
%LPD*%
%LPC*%
G36*
X497458Y268223D02*
X497458Y268223D01*
X497458Y271067D01*
X503633Y277242D01*
X506477Y277242D01*
X506477Y268223D01*
X497458Y268223D01*
G37*
%LPD*%
%LPC*%
G36*
X503633Y256158D02*
X503633Y256158D01*
X497458Y262333D01*
X497458Y265177D01*
X506477Y265177D01*
X506477Y256158D01*
X503633Y256158D01*
G37*
%LPD*%
%LPC*%
G36*
X598423Y331723D02*
X598423Y331723D01*
X598423Y340632D01*
X599368Y340482D01*
X600947Y339969D01*
X602425Y339216D01*
X603767Y338241D01*
X604941Y337067D01*
X605916Y335725D01*
X606669Y334247D01*
X607182Y332668D01*
X607332Y331723D01*
X598423Y331723D01*
G37*
%LPD*%
%LPC*%
G36*
X586468Y331723D02*
X586468Y331723D01*
X586618Y332668D01*
X587131Y334247D01*
X587884Y335725D01*
X588859Y337067D01*
X590033Y338241D01*
X591375Y339216D01*
X592853Y339969D01*
X594432Y340482D01*
X595377Y340632D01*
X595377Y331723D01*
X586468Y331723D01*
G37*
%LPD*%
%LPC*%
G36*
X598423Y328677D02*
X598423Y328677D01*
X607332Y328677D01*
X607182Y327732D01*
X606669Y326153D01*
X605916Y324675D01*
X604941Y323333D01*
X603767Y322159D01*
X602425Y321184D01*
X600947Y320431D01*
X599368Y319918D01*
X598423Y319768D01*
X598423Y328677D01*
G37*
%LPD*%
%LPC*%
G36*
X594432Y319918D02*
X594432Y319918D01*
X592853Y320431D01*
X591375Y321184D01*
X590033Y322159D01*
X588859Y323333D01*
X587884Y324675D01*
X587131Y326153D01*
X586618Y327732D01*
X586468Y328677D01*
X595377Y328677D01*
X595377Y319768D01*
X594432Y319918D01*
G37*
%LPD*%
%LPC*%
G36*
X458723Y344423D02*
X458723Y344423D01*
X458723Y352818D01*
X459550Y352687D01*
X461052Y352199D01*
X462459Y351482D01*
X463737Y350553D01*
X464853Y349437D01*
X465782Y348159D01*
X466499Y346752D01*
X466987Y345250D01*
X467118Y344423D01*
X458723Y344423D01*
G37*
%LPD*%
%LPC*%
G36*
X534923Y344423D02*
X534923Y344423D01*
X534923Y352818D01*
X535750Y352687D01*
X537252Y352199D01*
X538659Y351482D01*
X539937Y350553D01*
X541053Y349437D01*
X541982Y348159D01*
X542699Y346752D01*
X543187Y345250D01*
X543318Y344423D01*
X534923Y344423D01*
G37*
%LPD*%
%LPC*%
G36*
X458723Y341377D02*
X458723Y341377D01*
X467118Y341377D01*
X466987Y340550D01*
X466499Y339048D01*
X465782Y337641D01*
X464853Y336363D01*
X463737Y335247D01*
X462459Y334318D01*
X461052Y333601D01*
X459550Y333113D01*
X458723Y332982D01*
X458723Y341377D01*
G37*
%LPD*%
%LPC*%
G36*
X534923Y341377D02*
X534923Y341377D01*
X543318Y341377D01*
X543187Y340550D01*
X542699Y339048D01*
X541982Y337641D01*
X541053Y336363D01*
X539937Y335247D01*
X538659Y334318D01*
X537252Y333601D01*
X535750Y333113D01*
X534923Y332982D01*
X534923Y341377D01*
G37*
%LPD*%
%LPC*%
G36*
X523482Y344423D02*
X523482Y344423D01*
X523613Y345250D01*
X524101Y346752D01*
X524818Y348159D01*
X525747Y349437D01*
X526863Y350553D01*
X528141Y351482D01*
X529548Y352199D01*
X531050Y352687D01*
X531877Y352818D01*
X531877Y344423D01*
X523482Y344423D01*
G37*
%LPD*%
%LPC*%
G36*
X447282Y344423D02*
X447282Y344423D01*
X447413Y345250D01*
X447901Y346752D01*
X448618Y348159D01*
X449547Y349437D01*
X450663Y350553D01*
X451941Y351482D01*
X453348Y352199D01*
X454850Y352687D01*
X455677Y352818D01*
X455677Y344423D01*
X447282Y344423D01*
G37*
%LPD*%
%LPC*%
G36*
X454850Y333113D02*
X454850Y333113D01*
X453348Y333601D01*
X451941Y334318D01*
X450663Y335247D01*
X449547Y336363D01*
X448618Y337641D01*
X447901Y339048D01*
X447413Y340550D01*
X447282Y341377D01*
X455677Y341377D01*
X455677Y332982D01*
X454850Y333113D01*
G37*
%LPD*%
%LPC*%
G36*
X531050Y333113D02*
X531050Y333113D01*
X529548Y333601D01*
X528141Y334318D01*
X526863Y335247D01*
X525747Y336363D01*
X524818Y337641D01*
X524101Y339048D01*
X523613Y340550D01*
X523482Y341377D01*
X531877Y341377D01*
X531877Y332982D01*
X531050Y333113D01*
G37*
%LPD*%
%LPC*%
G36*
X738123Y128523D02*
X738123Y128523D01*
X738123Y136532D01*
X738860Y136415D01*
X740305Y135946D01*
X741659Y135256D01*
X742888Y134363D01*
X743963Y133288D01*
X744856Y132059D01*
X745546Y130705D01*
X746015Y129260D01*
X746132Y128523D01*
X738123Y128523D01*
G37*
%LPD*%
%LPC*%
G36*
X727068Y128523D02*
X727068Y128523D01*
X727185Y129260D01*
X727654Y130705D01*
X728344Y132059D01*
X729237Y133288D01*
X730312Y134363D01*
X731541Y135256D01*
X732895Y135946D01*
X734340Y136415D01*
X735077Y136532D01*
X735077Y128523D01*
X727068Y128523D01*
G37*
%LPD*%
%LPC*%
G36*
X827023Y128523D02*
X827023Y128523D01*
X827023Y136145D01*
X829288Y136145D01*
X834645Y130788D01*
X834645Y128523D01*
X827023Y128523D01*
G37*
%LPD*%
%LPC*%
G36*
X77723Y179323D02*
X77723Y179323D01*
X77723Y186945D01*
X79988Y186945D01*
X85345Y181588D01*
X85345Y179323D01*
X77723Y179323D01*
G37*
%LPD*%
%LPC*%
G36*
X77723Y153923D02*
X77723Y153923D01*
X77723Y161545D01*
X79988Y161545D01*
X85345Y156188D01*
X85345Y153923D01*
X77723Y153923D01*
G37*
%LPD*%
%LPC*%
G36*
X560323Y153923D02*
X560323Y153923D01*
X560323Y161545D01*
X562588Y161545D01*
X567945Y156188D01*
X567945Y153923D01*
X560323Y153923D01*
G37*
%LPD*%
%LPC*%
G36*
X827023Y369823D02*
X827023Y369823D01*
X827023Y377445D01*
X829288Y377445D01*
X834645Y372088D01*
X834645Y369823D01*
X827023Y369823D01*
G37*
%LPD*%
%LPC*%
G36*
X204723Y344423D02*
X204723Y344423D01*
X204723Y352045D01*
X206988Y352045D01*
X212345Y346688D01*
X212345Y344423D01*
X204723Y344423D01*
G37*
%LPD*%
%LPC*%
G36*
X65023Y204723D02*
X65023Y204723D01*
X65023Y212345D01*
X67288Y212345D01*
X72645Y206988D01*
X72645Y204723D01*
X65023Y204723D01*
G37*
%LPD*%
%LPC*%
G36*
X357123Y204723D02*
X357123Y204723D01*
X357123Y212345D01*
X359388Y212345D01*
X364745Y206988D01*
X364745Y204723D01*
X357123Y204723D01*
G37*
%LPD*%
%LPC*%
G36*
X141223Y395223D02*
X141223Y395223D01*
X141223Y402845D01*
X143488Y402845D01*
X148845Y397488D01*
X148845Y395223D01*
X141223Y395223D01*
G37*
%LPD*%
%LPC*%
G36*
X636523Y179323D02*
X636523Y179323D01*
X636523Y186945D01*
X638788Y186945D01*
X644145Y181588D01*
X644145Y179323D01*
X636523Y179323D01*
G37*
%LPD*%
%LPC*%
G36*
X549655Y153923D02*
X549655Y153923D01*
X549655Y156188D01*
X555012Y161545D01*
X557277Y161545D01*
X557277Y153923D01*
X549655Y153923D01*
G37*
%LPD*%
%LPC*%
G36*
X54355Y204723D02*
X54355Y204723D01*
X54355Y206988D01*
X59712Y212345D01*
X61977Y212345D01*
X61977Y204723D01*
X54355Y204723D01*
G37*
%LPD*%
%LPC*%
G36*
X67055Y153923D02*
X67055Y153923D01*
X67055Y156188D01*
X72412Y161545D01*
X74677Y161545D01*
X74677Y153923D01*
X67055Y153923D01*
G37*
%LPD*%
%LPC*%
G36*
X194055Y344423D02*
X194055Y344423D01*
X194055Y346688D01*
X199412Y352045D01*
X201677Y352045D01*
X201677Y344423D01*
X194055Y344423D01*
G37*
%LPD*%
%LPC*%
G36*
X130555Y395223D02*
X130555Y395223D01*
X130555Y397488D01*
X135912Y402845D01*
X138177Y402845D01*
X138177Y395223D01*
X130555Y395223D01*
G37*
%LPD*%
%LPC*%
G36*
X67055Y179323D02*
X67055Y179323D01*
X67055Y181588D01*
X72412Y186945D01*
X74677Y186945D01*
X74677Y179323D01*
X67055Y179323D01*
G37*
%LPD*%
%LPC*%
G36*
X346455Y204723D02*
X346455Y204723D01*
X346455Y206988D01*
X351812Y212345D01*
X354077Y212345D01*
X354077Y204723D01*
X346455Y204723D01*
G37*
%LPD*%
%LPC*%
G36*
X625855Y179323D02*
X625855Y179323D01*
X625855Y181588D01*
X631212Y186945D01*
X633477Y186945D01*
X633477Y179323D01*
X625855Y179323D01*
G37*
%LPD*%
%LPC*%
G36*
X816355Y128523D02*
X816355Y128523D01*
X816355Y130788D01*
X821712Y136145D01*
X823977Y136145D01*
X823977Y128523D01*
X816355Y128523D01*
G37*
%LPD*%
%LPC*%
G36*
X816355Y369823D02*
X816355Y369823D01*
X816355Y372088D01*
X821712Y377445D01*
X823977Y377445D01*
X823977Y369823D01*
X816355Y369823D01*
G37*
%LPD*%
%LPC*%
G36*
X77723Y168655D02*
X77723Y168655D01*
X77723Y176277D01*
X85345Y176277D01*
X85345Y174012D01*
X79988Y168655D01*
X77723Y168655D01*
G37*
%LPD*%
%LPC*%
G36*
X204723Y333755D02*
X204723Y333755D01*
X204723Y341377D01*
X212345Y341377D01*
X212345Y339112D01*
X206988Y333755D01*
X204723Y333755D01*
G37*
%LPD*%
%LPC*%
G36*
X827023Y117855D02*
X827023Y117855D01*
X827023Y125477D01*
X834645Y125477D01*
X834645Y123212D01*
X829288Y117855D01*
X827023Y117855D01*
G37*
%LPD*%
%LPC*%
G36*
X357123Y194055D02*
X357123Y194055D01*
X357123Y201677D01*
X364745Y201677D01*
X364745Y199412D01*
X359388Y194055D01*
X357123Y194055D01*
G37*
%LPD*%
%LPC*%
G36*
X827023Y359155D02*
X827023Y359155D01*
X827023Y366777D01*
X834645Y366777D01*
X834645Y364512D01*
X829288Y359155D01*
X827023Y359155D01*
G37*
%LPD*%
%LPC*%
G36*
X636523Y168655D02*
X636523Y168655D01*
X636523Y176277D01*
X644145Y176277D01*
X644145Y174012D01*
X638788Y168655D01*
X636523Y168655D01*
G37*
%LPD*%
%LPC*%
G36*
X77723Y143255D02*
X77723Y143255D01*
X77723Y150877D01*
X85345Y150877D01*
X85345Y148612D01*
X79988Y143255D01*
X77723Y143255D01*
G37*
%LPD*%
%LPC*%
G36*
X141223Y384555D02*
X141223Y384555D01*
X141223Y392177D01*
X148845Y392177D01*
X148845Y389912D01*
X143488Y384555D01*
X141223Y384555D01*
G37*
%LPD*%
%LPC*%
G36*
X65023Y194055D02*
X65023Y194055D01*
X65023Y201677D01*
X72645Y201677D01*
X72645Y199412D01*
X67288Y194055D01*
X65023Y194055D01*
G37*
%LPD*%
%LPC*%
G36*
X560323Y143255D02*
X560323Y143255D01*
X560323Y150877D01*
X567945Y150877D01*
X567945Y148612D01*
X562588Y143255D01*
X560323Y143255D01*
G37*
%LPD*%
%LPC*%
G36*
X631212Y168655D02*
X631212Y168655D01*
X625855Y174012D01*
X625855Y176277D01*
X633477Y176277D01*
X633477Y168655D01*
X631212Y168655D01*
G37*
%LPD*%
%LPC*%
G36*
X821712Y359155D02*
X821712Y359155D01*
X816355Y364512D01*
X816355Y366777D01*
X823977Y366777D01*
X823977Y359155D01*
X821712Y359155D01*
G37*
%LPD*%
%LPC*%
G36*
X135912Y384555D02*
X135912Y384555D01*
X130555Y389912D01*
X130555Y392177D01*
X138177Y392177D01*
X138177Y384555D01*
X135912Y384555D01*
G37*
%LPD*%
%LPC*%
G36*
X59712Y194055D02*
X59712Y194055D01*
X54355Y199412D01*
X54355Y201677D01*
X61977Y201677D01*
X61977Y194055D01*
X59712Y194055D01*
G37*
%LPD*%
%LPC*%
G36*
X351812Y194055D02*
X351812Y194055D01*
X346455Y199412D01*
X346455Y201677D01*
X354077Y201677D01*
X354077Y194055D01*
X351812Y194055D01*
G37*
%LPD*%
%LPC*%
G36*
X555012Y143255D02*
X555012Y143255D01*
X549655Y148612D01*
X549655Y150877D01*
X557277Y150877D01*
X557277Y143255D01*
X555012Y143255D01*
G37*
%LPD*%
%LPC*%
G36*
X199412Y333755D02*
X199412Y333755D01*
X194055Y339112D01*
X194055Y341377D01*
X201677Y341377D01*
X201677Y333755D01*
X199412Y333755D01*
G37*
%LPD*%
%LPC*%
G36*
X148612Y143255D02*
X148612Y143255D01*
X143255Y148612D01*
X143255Y150877D01*
X150877Y150877D01*
X150877Y143255D01*
X148612Y143255D01*
G37*
%LPD*%
%LPC*%
G36*
X821712Y117855D02*
X821712Y117855D01*
X816355Y123212D01*
X816355Y125477D01*
X823977Y125477D01*
X823977Y117855D01*
X821712Y117855D01*
G37*
%LPD*%
%LPC*%
G36*
X72412Y168655D02*
X72412Y168655D01*
X67055Y174012D01*
X67055Y176277D01*
X74677Y176277D01*
X74677Y168655D01*
X72412Y168655D01*
G37*
%LPD*%
%LPC*%
G36*
X72412Y143255D02*
X72412Y143255D01*
X67055Y148612D01*
X67055Y150877D01*
X74677Y150877D01*
X74677Y143255D01*
X72412Y143255D01*
G37*
%LPD*%
%LPC*%
G36*
X457199Y342899D02*
X457199Y342899D01*
X457199Y342901D01*
X457201Y342901D01*
X457201Y342899D01*
X457199Y342899D01*
G37*
%LPD*%
%LPC*%
G36*
X825499Y368299D02*
X825499Y368299D01*
X825499Y368301D01*
X825501Y368301D01*
X825501Y368299D01*
X825499Y368299D01*
G37*
%LPD*%
%LPC*%
G36*
X927099Y368299D02*
X927099Y368299D01*
X927099Y368301D01*
X927101Y368301D01*
X927101Y368299D01*
X927099Y368299D01*
G37*
%LPD*%
%LPC*%
G36*
X139699Y393699D02*
X139699Y393699D01*
X139699Y393701D01*
X139701Y393701D01*
X139701Y393699D01*
X139699Y393699D01*
G37*
%LPD*%
%LPC*%
G36*
X76199Y469899D02*
X76199Y469899D01*
X76199Y469901D01*
X76201Y469901D01*
X76201Y469899D01*
X76199Y469899D01*
G37*
%LPD*%
%LPC*%
G36*
X546099Y469899D02*
X546099Y469899D01*
X546099Y469901D01*
X546101Y469901D01*
X546101Y469899D01*
X546099Y469899D01*
G37*
%LPD*%
%LPC*%
G36*
X63499Y203199D02*
X63499Y203199D01*
X63499Y203201D01*
X63501Y203201D01*
X63501Y203199D01*
X63499Y203199D01*
G37*
%LPD*%
%LPC*%
G36*
X596899Y330199D02*
X596899Y330199D01*
X596899Y330201D01*
X596901Y330201D01*
X596901Y330199D01*
X596899Y330199D01*
G37*
%LPD*%
%LPC*%
G36*
X730249Y273049D02*
X730249Y273049D01*
X730249Y273051D01*
X730251Y273051D01*
X730251Y273049D01*
X730249Y273049D01*
G37*
%LPD*%
%LPC*%
G36*
X533399Y342899D02*
X533399Y342899D01*
X533399Y342901D01*
X533401Y342901D01*
X533401Y342899D01*
X533399Y342899D01*
G37*
%LPD*%
%LPC*%
G36*
X825499Y126999D02*
X825499Y126999D01*
X825499Y127001D01*
X825501Y127001D01*
X825501Y126999D01*
X825499Y126999D01*
G37*
%LPD*%
%LPC*%
G36*
X520699Y469899D02*
X520699Y469899D01*
X520699Y469901D01*
X520701Y469901D01*
X520701Y469899D01*
X520699Y469899D01*
G37*
%LPD*%
%LPC*%
G36*
X203199Y342899D02*
X203199Y342899D01*
X203199Y342901D01*
X203201Y342901D01*
X203201Y342899D01*
X203199Y342899D01*
G37*
%LPD*%
%LPC*%
G36*
X355599Y203199D02*
X355599Y203199D01*
X355599Y203201D01*
X355601Y203201D01*
X355601Y203199D01*
X355599Y203199D01*
G37*
%LPD*%
%LPC*%
G36*
X507999Y266699D02*
X507999Y266699D01*
X507999Y266701D01*
X508001Y266701D01*
X508001Y266699D01*
X507999Y266699D01*
G37*
%LPD*%
%LPC*%
G36*
X558799Y152399D02*
X558799Y152399D01*
X558799Y152401D01*
X558801Y152401D01*
X558801Y152399D01*
X558799Y152399D01*
G37*
%LPD*%
%LPC*%
G36*
X76199Y152399D02*
X76199Y152399D01*
X76199Y152401D01*
X76201Y152401D01*
X76201Y152399D01*
X76199Y152399D01*
G37*
%LPD*%
%LPC*%
G36*
X634999Y177799D02*
X634999Y177799D01*
X634999Y177801D01*
X635001Y177801D01*
X635001Y177799D01*
X634999Y177799D01*
G37*
%LPD*%
%LPC*%
G36*
X76199Y177799D02*
X76199Y177799D01*
X76199Y177801D01*
X76201Y177801D01*
X76201Y177799D01*
X76199Y177799D01*
G37*
%LPD*%
D10*
X419100Y469900D03*
D11*
X165100Y127000D03*
X215900Y127000D03*
X774700Y419100D03*
X825500Y419100D03*
X774700Y368300D03*
X825500Y368300D03*
X774700Y393700D03*
X825500Y393700D03*
D12*
X825500Y203200D03*
X774700Y203200D03*
D11*
X774700Y317500D03*
X825500Y317500D03*
D13*
X508000Y266700D03*
D14*
X482600Y266700D03*
D13*
X406400Y330200D03*
D14*
X381000Y330200D03*
D15*
X571500Y330200D03*
D14*
X596900Y330200D03*
D11*
X76200Y152400D03*
X127000Y152400D03*
X76200Y177800D03*
X127000Y177800D03*
X165100Y203200D03*
X215900Y203200D03*
X863600Y127000D03*
X914400Y127000D03*
X152400Y317500D03*
X203200Y317500D03*
D13*
X508000Y139700D03*
D14*
X482600Y139700D03*
D12*
X825500Y127000D03*
X774700Y127000D03*
D13*
X508000Y203200D03*
D14*
X482600Y203200D03*
D12*
X825500Y152400D03*
X774700Y152400D03*
D11*
X774700Y177800D03*
X825500Y177800D03*
D12*
X203200Y342900D03*
X152400Y342900D03*
D16*
X520700Y469900D03*
D17*
X444500Y469900D03*
D18*
X501650Y76200D03*
D19*
X476250Y76200D03*
D20*
X152400Y419100D03*
D21*
X203200Y419100D03*
D22*
X76200Y469900D03*
D23*
X76200Y419100D03*
X76200Y368300D03*
D10*
X546100Y469900D03*
X25400Y152400D03*
X977900Y152400D03*
D24*
X660400Y203200D03*
D25*
X660400Y177800D03*
X736600Y177800D03*
X736600Y203200D03*
X660400Y152400D03*
X660400Y127000D03*
X736600Y152400D03*
X736600Y127000D03*
D24*
X254000Y203200D03*
D25*
X254000Y177800D03*
X330200Y177800D03*
X330200Y203200D03*
X254000Y152400D03*
X254000Y127000D03*
X330200Y152400D03*
X330200Y127000D03*
D10*
X25400Y127000D03*
D22*
X730250Y273050D03*
D23*
X679450Y273050D03*
X628650Y273050D03*
D10*
X977900Y127000D03*
D12*
X139700Y127000D03*
X63500Y127000D03*
D11*
X558800Y177800D03*
X635000Y177800D03*
D12*
X635000Y203200D03*
X558800Y203200D03*
D11*
X139700Y368300D03*
X215900Y368300D03*
X762000Y342900D03*
X838200Y342900D03*
X139700Y393700D03*
X215900Y393700D03*
X850900Y177800D03*
X927100Y177800D03*
X850900Y203200D03*
X927100Y203200D03*
X533400Y76200D03*
X609600Y76200D03*
D12*
X139700Y203200D03*
X63500Y203200D03*
X228600Y152400D03*
X152400Y152400D03*
D11*
X850900Y152400D03*
X927100Y152400D03*
X152400Y177800D03*
X228600Y177800D03*
D12*
X431800Y203200D03*
X355600Y203200D03*
D11*
X355600Y177800D03*
X431800Y177800D03*
X355600Y152400D03*
X431800Y152400D03*
X355600Y127000D03*
X431800Y127000D03*
D12*
X635000Y127000D03*
X558800Y127000D03*
D11*
X558800Y152400D03*
X635000Y152400D03*
D10*
X749300Y76200D03*
X774700Y76200D03*
X368300Y76200D03*
X342900Y76200D03*
X215900Y76200D03*
X241300Y76200D03*
X266700Y76200D03*
X635000Y76200D03*
X660400Y76200D03*
D22*
X347980Y273050D03*
D23*
X297180Y273050D03*
X246380Y273050D03*
D26*
X457200Y393700D03*
D27*
X457200Y368300D03*
X457200Y342900D03*
X457200Y317500D03*
X533400Y317500D03*
X533400Y342900D03*
X533400Y368300D03*
X533400Y393700D03*
D22*
X927100Y368300D03*
D23*
X927100Y419100D03*
X927100Y469900D03*
D28*
X444500Y469900D02*
X419100Y469900D01*
X444500Y469900D02*
X457200Y457200D01*
X457200Y393700D01*
X533400Y393700D01*
X482600Y368300D02*
X457200Y393700D01*
X482600Y368300D02*
X482600Y266700D01*
D29*
X152400Y177800D02*
X152400Y165100D01*
X176022Y116078D02*
X215900Y76200D01*
X176022Y116078D02*
X176022Y144224D01*
X156924Y163322D01*
X154178Y163322D01*
X152400Y165100D01*
D28*
X330200Y203200D02*
X393700Y266700D01*
X469900Y266700D01*
X482600Y266700D01*
D29*
X330200Y203200D02*
X317500Y215900D01*
X167846Y177800D02*
X152400Y177800D01*
X228600Y190500D02*
X242570Y204470D01*
X242570Y212101D01*
X246369Y215900D01*
X317500Y215900D01*
X228600Y190500D02*
X180546Y190500D01*
X167846Y177800D01*
X469900Y82550D02*
X476250Y76200D01*
X469900Y82550D02*
X469900Y266700D01*
D28*
X533400Y393700D02*
X596900Y393700D01*
X655320Y335280D01*
X655320Y267970D01*
X720090Y203200D01*
X736600Y203200D01*
X546100Y330200D02*
X533400Y317500D01*
X546100Y330200D02*
X571500Y330200D01*
X533400Y317500D02*
X609600Y241300D01*
X609600Y139700D01*
D30*
X609600Y139700D03*
D29*
X165100Y203200D02*
X139700Y228600D01*
X76200Y228600D01*
D30*
X76200Y228600D03*
X254000Y228600D03*
D29*
X177800Y228600D01*
X165100Y215900D01*
X165100Y203200D01*
X254000Y203200D02*
X330200Y127000D01*
X330200Y152400D02*
X355600Y152400D01*
X330200Y152400D02*
X330200Y177800D01*
X152400Y317500D02*
X127000Y317500D01*
X76200Y368300D01*
X431800Y152400D02*
X431800Y127000D01*
X431800Y152400D02*
X431800Y177800D01*
X419100Y127000D02*
X368300Y76200D01*
X419100Y127000D02*
X431800Y127000D01*
X342900Y88900D02*
X254000Y177800D01*
X342900Y88900D02*
X342900Y76200D01*
X342900Y114300D01*
X355600Y127000D01*
X635000Y127000D02*
X647700Y114300D01*
X762000Y114300D02*
X774700Y127000D01*
X762000Y114300D02*
X647700Y114300D01*
X774700Y177800D02*
X781812Y184912D01*
X789715Y184912D01*
X838200Y233397D01*
X838200Y342900D01*
X774700Y203200D02*
X762000Y203200D01*
X692150Y273050D01*
X679450Y273050D01*
D30*
X850900Y139700D03*
D29*
X901700Y139700D01*
X914400Y127000D01*
X749300Y190500D02*
X736600Y177800D01*
X749300Y190500D02*
X774700Y190500D01*
X787400Y304800D02*
X774700Y317500D01*
X776478Y192278D02*
X774700Y190500D01*
X776478Y192278D02*
X779224Y192278D01*
X787400Y200454D01*
X787400Y304800D01*
D30*
X279400Y127000D03*
D29*
X279400Y114300D01*
X241300Y76200D01*
M02*
