G04 EAGLE Gerber RS-274X export*
G75*
%MOMM*%
%FSLAX34Y34*%
%LPD*%
%INSilkscreen Bottom*%
%IPPOS*%
%AMOC8*
5,1,8,0,0,1.08239X$1,22.5*%
G01*
%ADD10C,0.127000*%
%ADD11C,0.152400*%
%ADD12C,0.015238*%
%ADD13C,0.101600*%


D10*
X482600Y76200D02*
X495300Y76200D01*
X488950Y82550D02*
X488950Y69850D01*
D11*
X479298Y62484D02*
X479648Y62257D01*
X480004Y62038D01*
X480364Y61828D01*
X480730Y61627D01*
X481101Y61435D01*
X481476Y61252D01*
X481855Y61078D01*
X482238Y60913D01*
X482626Y60757D01*
X483017Y60611D01*
X483411Y60474D01*
X483809Y60347D01*
X484209Y60230D01*
X484612Y60122D01*
X485018Y60024D01*
X485426Y59936D01*
X485836Y59858D01*
X486248Y59789D01*
X486661Y59731D01*
X487076Y59682D01*
X487491Y59644D01*
X487908Y59616D01*
X488325Y59598D01*
X488742Y59589D01*
X489159Y59591D01*
X489577Y59603D01*
X489993Y59626D01*
X490409Y59658D01*
X490825Y59700D01*
X491239Y59752D01*
X491652Y59814D01*
X492063Y59887D01*
X492472Y59969D01*
X492879Y60061D01*
X493284Y60162D01*
X493686Y60274D01*
X494085Y60395D01*
X494482Y60526D01*
X494875Y60666D01*
X495264Y60816D01*
X495650Y60975D01*
X496032Y61144D01*
X496410Y61322D01*
X496783Y61508D01*
X497152Y61704D01*
X497516Y61909D01*
X497874Y62122D01*
X498228Y62344D01*
X498576Y62574D01*
X498918Y62813D01*
X499255Y63060D01*
X499585Y63315D01*
X499910Y63578D01*
X500227Y63848D01*
X500538Y64126D01*
X500843Y64412D01*
X501140Y64705D01*
X501430Y65005D01*
X501713Y65312D01*
X501988Y65626D01*
X502256Y65946D01*
X502516Y66273D01*
X502768Y66605D01*
X503011Y66944D01*
X503247Y67289D01*
X503011Y66944D01*
X502768Y66605D01*
X502516Y66273D01*
X502256Y65946D01*
X501988Y65626D01*
X501713Y65312D01*
X501430Y65005D01*
X501140Y64705D01*
X500843Y64412D01*
X500538Y64126D01*
X500227Y63848D01*
X499910Y63578D01*
X499585Y63315D01*
X499255Y63060D01*
X498918Y62813D01*
X498576Y62574D01*
X498228Y62344D01*
X497874Y62122D01*
X497516Y61909D01*
X497152Y61704D01*
X496783Y61508D01*
X496410Y61322D01*
X496032Y61144D01*
X495650Y60975D01*
X495264Y60816D01*
X494875Y60666D01*
X494482Y60526D01*
X494085Y60395D01*
X493686Y60274D01*
X493284Y60162D01*
X492879Y60061D01*
X492472Y59969D01*
X492063Y59887D01*
X491652Y59814D01*
X491239Y59752D01*
X490825Y59700D01*
X490409Y59658D01*
X489993Y59626D01*
X489577Y59603D01*
X489159Y59591D01*
X488742Y59589D01*
X488325Y59598D01*
X487908Y59616D01*
X487491Y59644D01*
X487076Y59682D01*
X486661Y59731D01*
X486248Y59789D01*
X485836Y59858D01*
X485426Y59936D01*
X485018Y60024D01*
X484612Y60122D01*
X484209Y60230D01*
X483809Y60347D01*
X483411Y60474D01*
X483017Y60611D01*
X482626Y60757D01*
X482238Y60913D01*
X481855Y61078D01*
X481476Y61252D01*
X481101Y61435D01*
X480730Y61627D01*
X480364Y61828D01*
X480004Y62038D01*
X479648Y62257D01*
X479298Y62484D01*
D12*
X503792Y85671D02*
X502622Y84955D01*
X502409Y85291D01*
X502188Y85621D01*
X501959Y85945D01*
X501722Y86264D01*
X501477Y86576D01*
X501224Y86883D01*
X500964Y87184D01*
X500697Y87478D01*
X500423Y87765D01*
X500141Y88045D01*
X499853Y88319D01*
X499559Y88585D01*
X499257Y88845D01*
X498950Y89096D01*
X498637Y89340D01*
X498317Y89576D01*
X497992Y89805D01*
X497662Y90025D01*
X497326Y90237D01*
X496985Y90441D01*
X496639Y90637D01*
X496288Y90824D01*
X495933Y91002D01*
X495574Y91172D01*
X495211Y91332D01*
X494844Y91484D01*
X494473Y91627D01*
X494099Y91760D01*
X493722Y91885D01*
X493341Y92000D01*
X492958Y92105D01*
X492573Y92202D01*
X492185Y92288D01*
X491796Y92366D01*
X491404Y92433D01*
X491011Y92492D01*
X490617Y92540D01*
X490222Y92579D01*
X489825Y92608D01*
X489429Y92627D01*
X489031Y92637D01*
X488634Y92637D01*
X488237Y92627D01*
X487840Y92607D01*
X487444Y92578D01*
X487049Y92539D01*
X486654Y92490D01*
X486261Y92432D01*
X485870Y92364D01*
X485480Y92287D01*
X485093Y92200D01*
X484707Y92103D01*
X484325Y91997D01*
X483944Y91882D01*
X483567Y91757D01*
X483193Y91624D01*
X482822Y91481D01*
X482455Y91329D01*
X482092Y91168D01*
X481733Y90998D01*
X481378Y90820D01*
X481028Y90633D01*
X480682Y90437D01*
X480341Y90233D01*
X480005Y90021D01*
X479675Y89800D01*
X479350Y89572D01*
X479031Y89335D01*
X478717Y89091D01*
X478410Y88839D01*
X478109Y88580D01*
X477814Y88313D01*
X477527Y88040D01*
X477245Y87759D01*
X476971Y87471D01*
X476704Y87177D01*
X476444Y86877D01*
X476192Y86570D01*
X475947Y86257D01*
X475710Y85938D01*
X475481Y85614D01*
X475260Y85284D01*
X475047Y84948D01*
X474843Y84608D01*
X474646Y84262D01*
X474459Y83912D01*
X474280Y83557D01*
X474109Y83199D01*
X473948Y82836D01*
X473795Y82469D01*
X473652Y82098D01*
X473517Y81725D01*
X473392Y81348D01*
X473276Y80968D01*
X473170Y80585D01*
X473073Y80200D01*
X472985Y79812D01*
X472907Y79423D01*
X472838Y79031D01*
X472779Y78638D01*
X472730Y78244D01*
X472690Y77849D01*
X472660Y77453D01*
X472640Y77056D01*
X472630Y76659D01*
X472629Y76262D01*
X472638Y75865D01*
X472657Y75468D01*
X472685Y75072D01*
X472723Y74676D01*
X472771Y74282D01*
X472828Y73889D01*
X472895Y73497D01*
X472972Y73107D01*
X473058Y72719D01*
X473154Y72334D01*
X473259Y71951D01*
X473373Y71570D01*
X473497Y71193D01*
X473630Y70818D01*
X473772Y70448D01*
X473923Y70080D01*
X474083Y69717D01*
X474252Y69357D01*
X474430Y69002D01*
X474616Y68651D01*
X474811Y68305D01*
X475014Y67963D01*
X475226Y67627D01*
X475446Y67296D01*
X475674Y66971D01*
X475909Y66651D01*
X476153Y66337D01*
X476404Y66029D01*
X476663Y65728D01*
X476929Y65433D01*
X477202Y65144D01*
X477482Y64862D01*
X477769Y64588D01*
X478062Y64320D01*
X478362Y64059D01*
X478668Y63806D01*
X478981Y63561D01*
X479299Y63323D01*
X479623Y63094D01*
X478849Y61962D01*
X478848Y61961D01*
X478497Y62210D01*
X478151Y62468D01*
X477812Y62734D01*
X477480Y63008D01*
X477154Y63291D01*
X476836Y63581D01*
X476525Y63879D01*
X476221Y64185D01*
X475924Y64498D01*
X475636Y64818D01*
X475355Y65145D01*
X475083Y65479D01*
X474818Y65819D01*
X474562Y66166D01*
X474315Y66519D01*
X474077Y66878D01*
X473847Y67243D01*
X473626Y67613D01*
X473415Y67988D01*
X473212Y68369D01*
X473020Y68754D01*
X472836Y69144D01*
X472662Y69539D01*
X472498Y69937D01*
X472344Y70340D01*
X472200Y70746D01*
X472066Y71155D01*
X471941Y71568D01*
X471827Y71984D01*
X471723Y72402D01*
X471630Y72823D01*
X471547Y73245D01*
X471474Y73670D01*
X471411Y74097D01*
X471359Y74524D01*
X471318Y74953D01*
X471287Y75383D01*
X471267Y75814D01*
X471257Y76245D01*
X471258Y76676D01*
X471269Y77106D01*
X471291Y77537D01*
X471323Y77967D01*
X471366Y78395D01*
X471420Y78823D01*
X471484Y79249D01*
X471558Y79674D01*
X471643Y80096D01*
X471738Y80517D01*
X471843Y80935D01*
X471959Y81350D01*
X472084Y81762D01*
X472220Y82171D01*
X472366Y82577D01*
X472522Y82979D01*
X472687Y83377D01*
X472862Y83770D01*
X473047Y84160D01*
X473241Y84544D01*
X473445Y84924D01*
X473658Y85299D01*
X473880Y85668D01*
X474111Y86032D01*
X474350Y86390D01*
X474599Y86742D01*
X474856Y87088D01*
X475121Y87428D01*
X475395Y87761D01*
X475677Y88087D01*
X475967Y88406D01*
X476264Y88718D01*
X476569Y89022D01*
X476882Y89319D01*
X477201Y89608D01*
X477528Y89890D01*
X477861Y90163D01*
X478201Y90428D01*
X478547Y90684D01*
X478900Y90932D01*
X479258Y91171D01*
X479623Y91402D01*
X479992Y91623D01*
X480367Y91835D01*
X480748Y92038D01*
X481133Y92232D01*
X481522Y92416D01*
X481916Y92591D01*
X482315Y92755D01*
X482717Y92910D01*
X483123Y93055D01*
X483532Y93190D01*
X483944Y93315D01*
X484360Y93430D01*
X484778Y93535D01*
X485198Y93629D01*
X485621Y93713D01*
X486046Y93787D01*
X486472Y93850D01*
X486900Y93903D01*
X487329Y93945D01*
X487758Y93977D01*
X488189Y93998D01*
X488620Y94009D01*
X489051Y94009D01*
X489482Y93998D01*
X489912Y93977D01*
X490342Y93945D01*
X490771Y93903D01*
X491198Y93851D01*
X491625Y93788D01*
X492049Y93714D01*
X492472Y93630D01*
X492893Y93536D01*
X493311Y93431D01*
X493726Y93316D01*
X494139Y93192D01*
X494548Y93057D01*
X494954Y92912D01*
X495356Y92757D01*
X495754Y92592D01*
X496148Y92418D01*
X496538Y92234D01*
X496923Y92040D01*
X497303Y91837D01*
X497679Y91625D01*
X498048Y91404D01*
X498413Y91173D01*
X498771Y90934D01*
X499124Y90686D01*
X499470Y90430D01*
X499810Y90165D01*
X500144Y89892D01*
X500470Y89611D01*
X500790Y89322D01*
X501102Y89025D01*
X501407Y88720D01*
X501705Y88409D01*
X501995Y88090D01*
X502276Y87764D01*
X502550Y87431D01*
X502816Y87091D01*
X503073Y86745D01*
X503322Y86393D01*
X503561Y86035D01*
X503792Y85672D01*
X503671Y85597D01*
X503441Y85958D01*
X503203Y86313D01*
X502957Y86662D01*
X502702Y87005D01*
X502438Y87342D01*
X502167Y87672D01*
X501887Y87995D01*
X501600Y88312D01*
X501305Y88621D01*
X501002Y88923D01*
X500692Y89217D01*
X500375Y89504D01*
X500051Y89783D01*
X499721Y90054D01*
X499383Y90316D01*
X499040Y90571D01*
X498690Y90817D01*
X498334Y91054D01*
X497973Y91282D01*
X497606Y91502D01*
X497234Y91712D01*
X496857Y91913D01*
X496475Y92105D01*
X496089Y92288D01*
X495698Y92461D01*
X495303Y92624D01*
X494904Y92778D01*
X494501Y92921D01*
X494095Y93055D01*
X493686Y93179D01*
X493274Y93293D01*
X492859Y93397D01*
X492442Y93490D01*
X492023Y93573D01*
X491602Y93646D01*
X491179Y93709D01*
X490755Y93761D01*
X490329Y93803D01*
X489903Y93834D01*
X489476Y93855D01*
X489049Y93866D01*
X488621Y93866D01*
X488194Y93855D01*
X487767Y93834D01*
X487341Y93803D01*
X486915Y93761D01*
X486491Y93708D01*
X486068Y93646D01*
X485647Y93573D01*
X485228Y93489D01*
X484811Y93396D01*
X484396Y93292D01*
X483984Y93178D01*
X483575Y93054D01*
X483169Y92920D01*
X482766Y92776D01*
X482368Y92623D01*
X481973Y92459D01*
X481582Y92286D01*
X481195Y92103D01*
X480813Y91911D01*
X480436Y91710D01*
X480064Y91500D01*
X479697Y91280D01*
X479336Y91051D01*
X478981Y90814D01*
X478631Y90568D01*
X478287Y90314D01*
X477950Y90051D01*
X477620Y89780D01*
X477296Y89501D01*
X476979Y89214D01*
X476669Y88920D01*
X476366Y88618D01*
X476071Y88309D01*
X475784Y87992D01*
X475505Y87669D01*
X475233Y87338D01*
X474970Y87002D01*
X474715Y86659D01*
X474468Y86309D01*
X474230Y85954D01*
X474001Y85593D01*
X473781Y85227D01*
X473570Y84855D01*
X473368Y84479D01*
X473175Y84097D01*
X472992Y83711D01*
X472818Y83320D01*
X472654Y82925D01*
X472500Y82527D01*
X472355Y82125D01*
X472221Y81719D01*
X472096Y81310D01*
X471981Y80898D01*
X471877Y80484D01*
X471783Y80067D01*
X471699Y79648D01*
X471625Y79227D01*
X471561Y78804D01*
X471508Y78380D01*
X471466Y77954D01*
X471434Y77528D01*
X471412Y77101D01*
X471401Y76674D01*
X471400Y76246D01*
X471410Y75819D01*
X471430Y75392D01*
X471461Y74966D01*
X471502Y74540D01*
X471553Y74116D01*
X471615Y73693D01*
X471687Y73272D01*
X471770Y72852D01*
X471863Y72435D01*
X471966Y72020D01*
X472079Y71608D01*
X472202Y71199D01*
X472335Y70792D01*
X472478Y70390D01*
X472631Y69990D01*
X472794Y69595D01*
X472966Y69204D01*
X473148Y68817D01*
X473339Y68435D01*
X473540Y68057D01*
X473750Y67685D01*
X473969Y67318D01*
X474196Y66956D01*
X474433Y66600D01*
X474678Y66250D01*
X474932Y65906D01*
X475194Y65568D01*
X475464Y65237D01*
X475743Y64913D01*
X476029Y64595D01*
X476323Y64285D01*
X476624Y63982D01*
X476933Y63686D01*
X477249Y63398D01*
X477572Y63118D01*
X477902Y62846D01*
X478238Y62582D01*
X478580Y62326D01*
X478929Y62079D01*
X479010Y62197D01*
X478664Y62442D01*
X478324Y62696D01*
X477991Y62958D01*
X477664Y63228D01*
X477344Y63505D01*
X477030Y63791D01*
X476724Y64084D01*
X476425Y64385D01*
X476134Y64693D01*
X475850Y65007D01*
X475574Y65329D01*
X475306Y65658D01*
X475046Y65993D01*
X474794Y66334D01*
X474551Y66681D01*
X474316Y67034D01*
X474090Y67393D01*
X473873Y67757D01*
X473665Y68126D01*
X473466Y68501D01*
X473277Y68880D01*
X473096Y69264D01*
X472925Y69652D01*
X472764Y70044D01*
X472612Y70439D01*
X472470Y70839D01*
X472338Y71242D01*
X472216Y71648D01*
X472104Y72057D01*
X472002Y72468D01*
X471910Y72882D01*
X471828Y73298D01*
X471756Y73716D01*
X471695Y74135D01*
X471644Y74556D01*
X471603Y74978D01*
X471573Y75401D01*
X471553Y75824D01*
X471543Y76248D01*
X471544Y76672D01*
X471555Y77096D01*
X471576Y77519D01*
X471608Y77942D01*
X471651Y78364D01*
X471703Y78785D01*
X471766Y79204D01*
X471839Y79621D01*
X471923Y80037D01*
X472016Y80451D01*
X472120Y80862D01*
X472233Y81270D01*
X472357Y81676D01*
X472491Y82078D01*
X472634Y82477D01*
X472787Y82872D01*
X472950Y83264D01*
X473122Y83651D01*
X473304Y84034D01*
X473495Y84413D01*
X473695Y84786D01*
X473905Y85155D01*
X474123Y85518D01*
X474350Y85876D01*
X474586Y86228D01*
X474831Y86575D01*
X475083Y86915D01*
X475345Y87249D01*
X475614Y87577D01*
X475891Y87897D01*
X476176Y88211D01*
X476469Y88518D01*
X476769Y88817D01*
X477076Y89110D01*
X477390Y89394D01*
X477712Y89671D01*
X478039Y89939D01*
X478374Y90200D01*
X478715Y90452D01*
X479061Y90696D01*
X479414Y90932D01*
X479772Y91158D01*
X480136Y91376D01*
X480505Y91585D01*
X480879Y91784D01*
X481258Y91975D01*
X481641Y92156D01*
X482029Y92328D01*
X482420Y92490D01*
X482816Y92642D01*
X483215Y92785D01*
X483618Y92918D01*
X484024Y93041D01*
X484432Y93154D01*
X484843Y93257D01*
X485257Y93349D01*
X485673Y93432D01*
X486091Y93505D01*
X486510Y93567D01*
X486931Y93619D01*
X487353Y93660D01*
X487775Y93691D01*
X488199Y93712D01*
X488623Y93723D01*
X489047Y93723D01*
X489470Y93712D01*
X489894Y93692D01*
X490317Y93661D01*
X490739Y93619D01*
X491159Y93567D01*
X491579Y93505D01*
X491997Y93433D01*
X492412Y93350D01*
X492826Y93258D01*
X493237Y93155D01*
X493646Y93042D01*
X494052Y92919D01*
X494454Y92786D01*
X494854Y92644D01*
X495249Y92491D01*
X495641Y92329D01*
X496029Y92158D01*
X496412Y91977D01*
X496791Y91786D01*
X497165Y91587D01*
X497534Y91378D01*
X497898Y91161D01*
X498256Y90934D01*
X498609Y90699D01*
X498956Y90455D01*
X499296Y90203D01*
X499631Y89942D01*
X499959Y89674D01*
X500280Y89397D01*
X500595Y89113D01*
X500902Y88821D01*
X501202Y88521D01*
X501495Y88215D01*
X501780Y87901D01*
X502057Y87580D01*
X502326Y87253D01*
X502588Y86919D01*
X502841Y86579D01*
X503085Y86232D01*
X503321Y85880D01*
X503549Y85522D01*
X503427Y85448D01*
X503201Y85802D01*
X502967Y86152D01*
X502725Y86495D01*
X502474Y86833D01*
X502215Y87164D01*
X501947Y87488D01*
X501672Y87806D01*
X501390Y88117D01*
X501099Y88422D01*
X500802Y88719D01*
X500497Y89008D01*
X500185Y89290D01*
X499867Y89564D01*
X499541Y89831D01*
X499210Y90089D01*
X498872Y90339D01*
X498528Y90581D01*
X498178Y90814D01*
X497822Y91039D01*
X497462Y91255D01*
X497096Y91462D01*
X496725Y91660D01*
X496349Y91848D01*
X495969Y92028D01*
X495584Y92198D01*
X495196Y92359D01*
X494803Y92510D01*
X494408Y92651D01*
X494008Y92783D01*
X493606Y92905D01*
X493201Y93017D01*
X492793Y93119D01*
X492382Y93211D01*
X491970Y93292D01*
X491556Y93364D01*
X491140Y93426D01*
X490723Y93477D01*
X490304Y93518D01*
X489885Y93549D01*
X489465Y93570D01*
X489045Y93580D01*
X488624Y93580D01*
X488204Y93569D01*
X487784Y93549D01*
X487365Y93518D01*
X486946Y93476D01*
X486529Y93425D01*
X486113Y93363D01*
X485699Y93291D01*
X485287Y93209D01*
X484876Y93117D01*
X484468Y93015D01*
X484063Y92903D01*
X483661Y92781D01*
X483262Y92650D01*
X482866Y92508D01*
X482473Y92357D01*
X482085Y92196D01*
X481700Y92026D01*
X481320Y91846D01*
X480945Y91657D01*
X480574Y91459D01*
X480208Y91252D01*
X479847Y91036D01*
X479492Y90812D01*
X479142Y90578D01*
X478798Y90336D01*
X478460Y90086D01*
X478129Y89828D01*
X477804Y89561D01*
X477485Y89287D01*
X477173Y89005D01*
X476869Y88715D01*
X476571Y88418D01*
X476281Y88114D01*
X475998Y87802D01*
X475723Y87484D01*
X475456Y87160D01*
X475197Y86828D01*
X474946Y86491D01*
X474704Y86148D01*
X474470Y85798D01*
X474245Y85443D01*
X474028Y85083D01*
X473820Y84717D01*
X473622Y84347D01*
X473432Y83971D01*
X473252Y83592D01*
X473081Y83207D01*
X472920Y82819D01*
X472768Y82427D01*
X472626Y82031D01*
X472493Y81632D01*
X472371Y81230D01*
X472258Y80825D01*
X472155Y80418D01*
X472062Y80008D01*
X471980Y79595D01*
X471907Y79181D01*
X471845Y78765D01*
X471793Y78348D01*
X471751Y77930D01*
X471719Y77511D01*
X471698Y77091D01*
X471687Y76670D01*
X471686Y76250D01*
X471695Y75830D01*
X471715Y75410D01*
X471745Y74990D01*
X471786Y74572D01*
X471836Y74154D01*
X471897Y73738D01*
X471968Y73324D01*
X472050Y72912D01*
X472141Y72501D01*
X472242Y72093D01*
X472353Y71688D01*
X472475Y71285D01*
X472606Y70886D01*
X472746Y70489D01*
X472897Y70097D01*
X473057Y69708D01*
X473226Y69323D01*
X473405Y68943D01*
X473593Y68567D01*
X473790Y68195D01*
X473997Y67829D01*
X474212Y67468D01*
X474436Y67112D01*
X474669Y66762D01*
X474910Y66418D01*
X475159Y66079D01*
X475417Y65747D01*
X475683Y65421D01*
X475957Y65102D01*
X476238Y64790D01*
X476527Y64485D01*
X476824Y64187D01*
X477128Y63896D01*
X477438Y63613D01*
X477756Y63337D01*
X478080Y63069D01*
X478411Y62810D01*
X478748Y62558D01*
X479091Y62315D01*
X479171Y62433D01*
X478831Y62674D01*
X478497Y62924D01*
X478169Y63181D01*
X477848Y63447D01*
X477533Y63720D01*
X477225Y64001D01*
X476924Y64289D01*
X476630Y64585D01*
X476343Y64887D01*
X476064Y65197D01*
X475792Y65514D01*
X475529Y65837D01*
X475273Y66166D01*
X475026Y66502D01*
X474787Y66843D01*
X474556Y67190D01*
X474334Y67543D01*
X474120Y67901D01*
X473916Y68264D01*
X473720Y68633D01*
X473533Y69006D01*
X473356Y69383D01*
X473188Y69764D01*
X473029Y70150D01*
X472880Y70539D01*
X472741Y70932D01*
X472611Y71328D01*
X472491Y71728D01*
X472380Y72130D01*
X472280Y72534D01*
X472189Y72941D01*
X472109Y73350D01*
X472039Y73761D01*
X471978Y74174D01*
X471928Y74588D01*
X471888Y75003D01*
X471858Y75419D01*
X471838Y75835D01*
X471829Y76252D01*
X471830Y76669D01*
X471841Y77085D01*
X471862Y77502D01*
X471893Y77918D01*
X471935Y78332D01*
X471987Y78746D01*
X472048Y79158D01*
X472120Y79569D01*
X472202Y79978D01*
X472294Y80385D01*
X472396Y80789D01*
X472508Y81190D01*
X472630Y81589D01*
X472761Y81985D01*
X472902Y82377D01*
X473053Y82766D01*
X473213Y83151D01*
X473382Y83532D01*
X473561Y83909D01*
X473749Y84281D01*
X473946Y84648D01*
X474152Y85011D01*
X474366Y85368D01*
X474590Y85720D01*
X474822Y86067D01*
X475062Y86407D01*
X475311Y86742D01*
X475568Y87070D01*
X475833Y87392D01*
X476105Y87708D01*
X476386Y88016D01*
X476673Y88318D01*
X476968Y88613D01*
X477270Y88900D01*
X477580Y89180D01*
X477896Y89452D01*
X478218Y89716D01*
X478547Y89972D01*
X478882Y90220D01*
X479223Y90460D01*
X479570Y90692D01*
X479922Y90915D01*
X480280Y91129D01*
X480643Y91334D01*
X481010Y91530D01*
X481383Y91718D01*
X481760Y91896D01*
X482141Y92065D01*
X482526Y92224D01*
X482915Y92374D01*
X483308Y92514D01*
X483704Y92645D01*
X484103Y92766D01*
X484505Y92877D01*
X484909Y92978D01*
X485316Y93070D01*
X485725Y93151D01*
X486136Y93222D01*
X486548Y93283D01*
X486962Y93334D01*
X487377Y93375D01*
X487793Y93406D01*
X488209Y93426D01*
X488626Y93437D01*
X489043Y93437D01*
X489459Y93427D01*
X489876Y93406D01*
X490292Y93376D01*
X490707Y93335D01*
X491120Y93284D01*
X491533Y93223D01*
X491944Y93152D01*
X492353Y93071D01*
X492759Y92980D01*
X493164Y92878D01*
X493566Y92767D01*
X493965Y92647D01*
X494361Y92516D01*
X494753Y92376D01*
X495142Y92226D01*
X495528Y92067D01*
X495909Y91898D01*
X496286Y91720D01*
X496659Y91533D01*
X497026Y91337D01*
X497389Y91131D01*
X497747Y90917D01*
X498100Y90695D01*
X498446Y90463D01*
X498788Y90224D01*
X499123Y89976D01*
X499452Y89719D01*
X499774Y89455D01*
X500090Y89183D01*
X500399Y88904D01*
X500702Y88617D01*
X500997Y88322D01*
X501285Y88020D01*
X501565Y87712D01*
X501838Y87397D01*
X502103Y87075D01*
X502360Y86746D01*
X502608Y86412D01*
X502849Y86071D01*
X503081Y85725D01*
X503305Y85373D01*
X503183Y85298D01*
X502961Y85647D01*
X502731Y85991D01*
X502492Y86328D01*
X502246Y86660D01*
X501991Y86986D01*
X501728Y87305D01*
X501458Y87617D01*
X501180Y87923D01*
X500894Y88222D01*
X500602Y88514D01*
X500302Y88799D01*
X499995Y89076D01*
X499682Y89346D01*
X499362Y89608D01*
X499036Y89862D01*
X498703Y90108D01*
X498365Y90346D01*
X498021Y90575D01*
X497672Y90796D01*
X497317Y91008D01*
X496957Y91212D01*
X496592Y91406D01*
X496223Y91592D01*
X495849Y91768D01*
X495471Y91935D01*
X495089Y92093D01*
X494703Y92242D01*
X494314Y92381D01*
X493921Y92510D01*
X493526Y92630D01*
X493127Y92740D01*
X492726Y92840D01*
X492323Y92931D01*
X491917Y93011D01*
X491510Y93082D01*
X491101Y93142D01*
X490691Y93193D01*
X490279Y93233D01*
X489867Y93264D01*
X489454Y93284D01*
X489041Y93294D01*
X488627Y93294D01*
X488214Y93283D01*
X487801Y93263D01*
X487389Y93233D01*
X486977Y93192D01*
X486567Y93142D01*
X486158Y93081D01*
X485751Y93010D01*
X485345Y92930D01*
X484942Y92839D01*
X484541Y92739D01*
X484142Y92628D01*
X483747Y92509D01*
X483354Y92379D01*
X482965Y92240D01*
X482579Y92091D01*
X482197Y91933D01*
X481819Y91766D01*
X481445Y91589D01*
X481076Y91403D01*
X480711Y91209D01*
X480352Y91005D01*
X479997Y90793D01*
X479648Y90572D01*
X479304Y90342D01*
X478966Y90104D01*
X478633Y89858D01*
X478307Y89604D01*
X477987Y89342D01*
X477674Y89072D01*
X477368Y88795D01*
X477068Y88510D01*
X476776Y88218D01*
X476490Y87919D01*
X476212Y87613D01*
X475942Y87300D01*
X475679Y86981D01*
X475425Y86655D01*
X475178Y86323D01*
X474940Y85986D01*
X474710Y85642D01*
X474488Y85293D01*
X474275Y84939D01*
X474071Y84579D01*
X473876Y84215D01*
X473689Y83846D01*
X473512Y83472D01*
X473344Y83095D01*
X473185Y82713D01*
X473036Y82327D01*
X472896Y81938D01*
X472766Y81546D01*
X472645Y81151D01*
X472535Y80752D01*
X472433Y80351D01*
X472342Y79948D01*
X472261Y79543D01*
X472190Y79136D01*
X472128Y78727D01*
X472077Y78317D01*
X472036Y77905D01*
X472005Y77493D01*
X471984Y77080D01*
X471973Y76667D01*
X471972Y76254D01*
X471981Y75840D01*
X472001Y75427D01*
X472030Y75015D01*
X472070Y74603D01*
X472120Y74193D01*
X472180Y73784D01*
X472250Y73377D01*
X472329Y72971D01*
X472419Y72567D01*
X472519Y72166D01*
X472628Y71767D01*
X472747Y71372D01*
X472876Y70979D01*
X473014Y70589D01*
X473162Y70203D01*
X473319Y69821D01*
X473486Y69442D01*
X473662Y69068D01*
X473847Y68699D01*
X474041Y68334D01*
X474244Y67973D01*
X474455Y67618D01*
X474676Y67268D01*
X474904Y66924D01*
X475142Y66585D01*
X475387Y66253D01*
X475640Y65926D01*
X475902Y65606D01*
X476171Y65292D01*
X476448Y64985D01*
X476732Y64685D01*
X477023Y64392D01*
X477322Y64106D01*
X477627Y63827D01*
X477940Y63556D01*
X478258Y63293D01*
X478584Y63038D01*
X478915Y62790D01*
X479252Y62551D01*
X479333Y62669D01*
X478999Y62906D01*
X478670Y63152D01*
X478348Y63405D01*
X478032Y63666D01*
X477722Y63934D01*
X477419Y64211D01*
X477123Y64494D01*
X476834Y64785D01*
X476552Y65082D01*
X476278Y65387D01*
X476011Y65698D01*
X475752Y66016D01*
X475501Y66339D01*
X475257Y66669D01*
X475022Y67005D01*
X474795Y67346D01*
X474577Y67693D01*
X474367Y68045D01*
X474166Y68403D01*
X473974Y68765D01*
X473790Y69131D01*
X473616Y69502D01*
X473451Y69877D01*
X473295Y70256D01*
X473148Y70639D01*
X473011Y71025D01*
X472883Y71415D01*
X472765Y71807D01*
X472657Y72203D01*
X472558Y72600D01*
X472469Y73001D01*
X472390Y73403D01*
X472321Y73807D01*
X472262Y74212D01*
X472212Y74619D01*
X472173Y75027D01*
X472144Y75436D01*
X472124Y75846D01*
X472115Y76255D01*
X472116Y76665D01*
X472126Y77075D01*
X472147Y77484D01*
X472178Y77893D01*
X472219Y78301D01*
X472270Y78708D01*
X472331Y79113D01*
X472402Y79517D01*
X472482Y79919D01*
X472573Y80318D01*
X472673Y80716D01*
X472783Y81111D01*
X472902Y81503D01*
X473031Y81892D01*
X473170Y82278D01*
X473318Y82660D01*
X473475Y83038D01*
X473642Y83413D01*
X473818Y83783D01*
X474003Y84149D01*
X474196Y84510D01*
X474399Y84867D01*
X474610Y85218D01*
X474830Y85564D01*
X475058Y85905D01*
X475294Y86239D01*
X475539Y86568D01*
X475791Y86891D01*
X476051Y87208D01*
X476319Y87518D01*
X476595Y87822D01*
X476878Y88118D01*
X477168Y88408D01*
X477465Y88690D01*
X477769Y88965D01*
X478079Y89233D01*
X478397Y89492D01*
X478720Y89744D01*
X479049Y89988D01*
X479384Y90224D01*
X479725Y90452D01*
X480072Y90671D01*
X480424Y90881D01*
X480780Y91083D01*
X481142Y91276D01*
X481508Y91460D01*
X481879Y91636D01*
X482253Y91802D01*
X482632Y91958D01*
X483015Y92106D01*
X483401Y92244D01*
X483790Y92372D01*
X484182Y92491D01*
X484577Y92600D01*
X484975Y92700D01*
X485375Y92790D01*
X485777Y92870D01*
X486181Y92940D01*
X486586Y93000D01*
X486993Y93050D01*
X487401Y93090D01*
X487810Y93120D01*
X488219Y93141D01*
X488629Y93151D01*
X489039Y93151D01*
X489448Y93141D01*
X489858Y93121D01*
X490267Y93091D01*
X490675Y93051D01*
X491081Y93001D01*
X491487Y92941D01*
X491891Y92871D01*
X492293Y92791D01*
X492693Y92701D01*
X493090Y92602D01*
X493486Y92493D01*
X493878Y92374D01*
X494267Y92246D01*
X494653Y92108D01*
X495036Y91961D01*
X495414Y91804D01*
X495789Y91638D01*
X496160Y91463D01*
X496526Y91279D01*
X496888Y91086D01*
X497245Y90885D01*
X497597Y90674D01*
X497943Y90455D01*
X498284Y90228D01*
X498619Y89992D01*
X498949Y89748D01*
X499272Y89497D01*
X499589Y89237D01*
X499900Y88970D01*
X500204Y88695D01*
X500501Y88412D01*
X500792Y88123D01*
X501075Y87826D01*
X501350Y87523D01*
X501618Y87213D01*
X501879Y86897D01*
X502131Y86574D01*
X502376Y86245D01*
X502613Y85910D01*
X502841Y85570D01*
X503061Y85224D01*
X502939Y85149D01*
X502721Y85492D01*
X502494Y85830D01*
X502260Y86161D01*
X502017Y86487D01*
X501767Y86807D01*
X501509Y87121D01*
X501243Y87429D01*
X500970Y87729D01*
X500689Y88023D01*
X500401Y88310D01*
X500107Y88590D01*
X499805Y88863D01*
X499497Y89128D01*
X499183Y89385D01*
X498862Y89635D01*
X498535Y89877D01*
X498203Y90110D01*
X497865Y90336D01*
X497521Y90553D01*
X497172Y90761D01*
X496819Y90961D01*
X496460Y91153D01*
X496097Y91335D01*
X495729Y91508D01*
X495358Y91673D01*
X494982Y91828D01*
X494603Y91974D01*
X494220Y92111D01*
X493834Y92238D01*
X493445Y92356D01*
X493054Y92464D01*
X492659Y92562D01*
X492263Y92651D01*
X491864Y92730D01*
X491464Y92800D01*
X491062Y92859D01*
X490659Y92909D01*
X490254Y92948D01*
X489849Y92978D01*
X489443Y92998D01*
X489037Y93008D01*
X488630Y93008D01*
X488224Y92998D01*
X487818Y92978D01*
X487413Y92948D01*
X487008Y92908D01*
X486605Y92858D01*
X486203Y92798D01*
X485803Y92729D01*
X485404Y92650D01*
X485008Y92561D01*
X484613Y92462D01*
X484222Y92354D01*
X483833Y92236D01*
X483447Y92108D01*
X483064Y91972D01*
X482685Y91825D01*
X482310Y91670D01*
X481938Y91505D01*
X481571Y91332D01*
X481208Y91149D01*
X480849Y90958D01*
X480495Y90758D01*
X480147Y90549D01*
X479803Y90332D01*
X479465Y90106D01*
X479133Y89872D01*
X478806Y89631D01*
X478486Y89381D01*
X478171Y89123D01*
X477864Y88858D01*
X477562Y88585D01*
X477268Y88305D01*
X476980Y88018D01*
X476700Y87724D01*
X476426Y87423D01*
X476161Y87116D01*
X475903Y86802D01*
X475652Y86482D01*
X475410Y86156D01*
X475175Y85824D01*
X474949Y85486D01*
X474732Y85143D01*
X474522Y84795D01*
X474321Y84441D01*
X474129Y84083D01*
X473946Y83720D01*
X473772Y83353D01*
X473607Y82982D01*
X473451Y82607D01*
X473304Y82228D01*
X473167Y81845D01*
X473039Y81460D01*
X472920Y81071D01*
X472811Y80679D01*
X472712Y80285D01*
X472622Y79889D01*
X472542Y79491D01*
X472472Y79090D01*
X472412Y78688D01*
X472361Y78285D01*
X472321Y77881D01*
X472290Y77476D01*
X472269Y77070D01*
X472259Y76664D01*
X472258Y76257D01*
X472267Y75851D01*
X472286Y75445D01*
X472315Y75040D01*
X472354Y74635D01*
X472403Y74232D01*
X472462Y73830D01*
X472531Y73429D01*
X472609Y73030D01*
X472697Y72634D01*
X472795Y72239D01*
X472903Y71847D01*
X473020Y71458D01*
X473146Y71072D01*
X473282Y70689D01*
X473428Y70310D01*
X473582Y69934D01*
X473746Y69562D01*
X473919Y69194D01*
X474101Y68831D01*
X474291Y68472D01*
X474491Y68118D01*
X474699Y67768D01*
X474915Y67425D01*
X475140Y67086D01*
X475373Y66753D01*
X475614Y66426D01*
X475863Y66105D01*
X476120Y65790D01*
X476385Y65482D01*
X476657Y65180D01*
X476936Y64885D01*
X477223Y64596D01*
X477516Y64315D01*
X477817Y64042D01*
X478124Y63775D01*
X478437Y63516D01*
X478756Y63265D01*
X479082Y63022D01*
X479414Y62787D01*
X479494Y62905D01*
X479166Y63138D01*
X478843Y63379D01*
X478526Y63628D01*
X478215Y63885D01*
X477911Y64149D01*
X477614Y64420D01*
X477323Y64699D01*
X477039Y64985D01*
X476762Y65277D01*
X476492Y65577D01*
X476230Y65882D01*
X475975Y66195D01*
X475728Y66513D01*
X475489Y66837D01*
X475258Y67167D01*
X475035Y67503D01*
X474820Y67844D01*
X474614Y68190D01*
X474417Y68541D01*
X474228Y68896D01*
X474047Y69257D01*
X473876Y69621D01*
X473714Y69990D01*
X473560Y70363D01*
X473416Y70739D01*
X473281Y71119D01*
X473156Y71501D01*
X473040Y71887D01*
X472933Y72276D01*
X472836Y72667D01*
X472749Y73060D01*
X472671Y73455D01*
X472603Y73852D01*
X472545Y74251D01*
X472496Y74651D01*
X472458Y75052D01*
X472429Y75454D01*
X472410Y75856D01*
X472401Y76259D01*
X472402Y76662D01*
X472412Y77065D01*
X472433Y77467D01*
X472463Y77869D01*
X472503Y78269D01*
X472553Y78669D01*
X472613Y79068D01*
X472683Y79464D01*
X472762Y79859D01*
X472851Y80252D01*
X472949Y80643D01*
X473057Y81031D01*
X473175Y81416D01*
X473302Y81799D01*
X473438Y82178D01*
X473584Y82554D01*
X473738Y82926D01*
X473902Y83294D01*
X474075Y83658D01*
X474256Y84017D01*
X474447Y84372D01*
X474646Y84723D01*
X474853Y85068D01*
X475069Y85408D01*
X475293Y85743D01*
X475526Y86072D01*
X475766Y86395D01*
X476014Y86712D01*
X476270Y87024D01*
X476533Y87328D01*
X476804Y87627D01*
X477082Y87918D01*
X477367Y88203D01*
X477659Y88480D01*
X477958Y88751D01*
X478263Y89014D01*
X478575Y89269D01*
X478893Y89517D01*
X479217Y89756D01*
X479546Y89988D01*
X479881Y90212D01*
X480222Y90427D01*
X480567Y90634D01*
X480918Y90833D01*
X481273Y91022D01*
X481633Y91203D01*
X481997Y91375D01*
X482366Y91539D01*
X482738Y91693D01*
X483114Y91837D01*
X483493Y91973D01*
X483876Y92099D01*
X484261Y92216D01*
X484650Y92324D01*
X485040Y92422D01*
X485434Y92510D01*
X485829Y92588D01*
X486226Y92657D01*
X486624Y92716D01*
X487024Y92766D01*
X487425Y92805D01*
X487827Y92835D01*
X488229Y92855D01*
X488632Y92865D01*
X489035Y92865D01*
X489437Y92855D01*
X489840Y92835D01*
X490242Y92806D01*
X490642Y92767D01*
X491042Y92717D01*
X491441Y92658D01*
X491838Y92590D01*
X492233Y92511D01*
X492626Y92423D01*
X493017Y92326D01*
X493405Y92218D01*
X493791Y92102D01*
X494173Y91976D01*
X494553Y91840D01*
X494929Y91695D01*
X495301Y91542D01*
X495670Y91379D01*
X496034Y91207D01*
X496394Y91026D01*
X496749Y90836D01*
X497100Y90638D01*
X497446Y90431D01*
X497786Y90216D01*
X498122Y89993D01*
X498451Y89761D01*
X498775Y89521D01*
X499093Y89274D01*
X499405Y89019D01*
X499710Y88756D01*
X500009Y88486D01*
X500301Y88208D01*
X500586Y87924D01*
X500864Y87632D01*
X501135Y87334D01*
X501399Y87029D01*
X501655Y86718D01*
X501903Y86401D01*
X502144Y86078D01*
X502376Y85749D01*
X502601Y85414D01*
X502817Y85074D01*
X502695Y85000D01*
X502481Y85337D01*
X502258Y85668D01*
X502028Y85995D01*
X501789Y86315D01*
X501543Y86629D01*
X501289Y86938D01*
X501028Y87240D01*
X500759Y87535D01*
X500484Y87824D01*
X500201Y88106D01*
X499911Y88381D01*
X499615Y88649D01*
X499312Y88909D01*
X499003Y89162D01*
X498688Y89408D01*
X498367Y89645D01*
X498040Y89875D01*
X497708Y90096D01*
X497371Y90310D01*
X497028Y90515D01*
X496680Y90711D01*
X496328Y90899D01*
X495971Y91078D01*
X495610Y91249D01*
X495245Y91410D01*
X494875Y91563D01*
X494503Y91706D01*
X494127Y91840D01*
X493747Y91965D01*
X493365Y92081D01*
X492980Y92187D01*
X492593Y92284D01*
X492203Y92372D01*
X491811Y92449D01*
X491418Y92517D01*
X491023Y92576D01*
X490626Y92624D01*
X490229Y92663D01*
X489831Y92693D01*
X489432Y92712D01*
X489033Y92722D01*
X488633Y92722D01*
X488234Y92712D01*
X487835Y92692D01*
X487437Y92663D01*
X487039Y92624D01*
X486643Y92575D01*
X486248Y92516D01*
X485855Y92448D01*
X485463Y92370D01*
X485073Y92282D01*
X484686Y92185D01*
X484301Y92079D01*
X483919Y91963D01*
X483540Y91838D01*
X483164Y91703D01*
X482791Y91560D01*
X482422Y91407D01*
X482057Y91245D01*
X481696Y91075D01*
X481339Y90895D01*
X480987Y90707D01*
X480639Y90511D01*
X480296Y90305D01*
X479959Y90092D01*
X479627Y89870D01*
X479300Y89640D01*
X478979Y89403D01*
X478664Y89157D01*
X478355Y88904D01*
X478053Y88644D01*
X477757Y88376D01*
X477467Y88100D01*
X477185Y87818D01*
X476909Y87529D01*
X476641Y87234D01*
X476379Y86932D01*
X476126Y86623D01*
X475880Y86308D01*
X475642Y85988D01*
X475411Y85662D01*
X475189Y85330D01*
X474975Y84993D01*
X474769Y84650D01*
X474572Y84303D01*
X474383Y83951D01*
X474203Y83595D01*
X474032Y83234D01*
X473870Y82869D01*
X473716Y82500D01*
X473572Y82128D01*
X473437Y81752D01*
X473311Y81373D01*
X473195Y80991D01*
X473088Y80607D01*
X472990Y80219D01*
X472902Y79830D01*
X472823Y79438D01*
X472754Y79045D01*
X472695Y78650D01*
X472645Y78254D01*
X472606Y77856D01*
X472576Y77458D01*
X472555Y77059D01*
X472545Y76660D01*
X472544Y76261D01*
X472553Y75861D01*
X472572Y75463D01*
X472600Y75064D01*
X472639Y74667D01*
X472687Y74270D01*
X472744Y73875D01*
X472812Y73481D01*
X472889Y73090D01*
X472975Y72700D01*
X473072Y72312D01*
X473177Y71927D01*
X473292Y71545D01*
X473417Y71165D01*
X473550Y70789D01*
X473693Y70416D01*
X473845Y70047D01*
X474006Y69681D01*
X474176Y69320D01*
X474354Y68962D01*
X474542Y68610D01*
X474738Y68262D01*
X474942Y67919D01*
X475155Y67581D01*
X475376Y67248D01*
X475605Y66921D01*
X475842Y66600D01*
X476087Y66284D01*
X476339Y65975D01*
X476599Y65671D01*
X476866Y65375D01*
X477141Y65085D01*
X477422Y64801D01*
X477711Y64525D01*
X478006Y64256D01*
X478307Y63994D01*
X478615Y63740D01*
X478929Y63493D01*
X479249Y63254D01*
X479575Y63023D01*
D11*
X503247Y67289D02*
X503247Y85249D01*
D13*
X475691Y76200D02*
X475695Y76525D01*
X475707Y76851D01*
X475727Y77175D01*
X475755Y77500D01*
X475791Y77823D01*
X475835Y78145D01*
X475886Y78467D01*
X475946Y78787D01*
X476013Y79105D01*
X476088Y79422D01*
X476171Y79736D01*
X476262Y80049D01*
X476360Y80359D01*
X476466Y80667D01*
X476579Y80972D01*
X476700Y81274D01*
X476828Y81573D01*
X476964Y81869D01*
X477107Y82161D01*
X477257Y82450D01*
X477414Y82735D01*
X477577Y83016D01*
X477748Y83294D01*
X477926Y83566D01*
X478110Y83835D01*
X478300Y84098D01*
X478497Y84357D01*
X478701Y84611D01*
X478910Y84860D01*
X479126Y85104D01*
X479347Y85343D01*
X479574Y85576D01*
X479807Y85803D01*
X480046Y86024D01*
X480290Y86240D01*
X480539Y86449D01*
X480793Y86653D01*
X481052Y86850D01*
X481315Y87040D01*
X481584Y87224D01*
X481856Y87402D01*
X482134Y87573D01*
X482415Y87736D01*
X482700Y87893D01*
X482989Y88043D01*
X483281Y88186D01*
X483577Y88322D01*
X483876Y88450D01*
X484178Y88571D01*
X484483Y88684D01*
X484791Y88790D01*
X485101Y88888D01*
X485414Y88979D01*
X485728Y89062D01*
X486045Y89137D01*
X486363Y89204D01*
X486683Y89264D01*
X487005Y89315D01*
X487327Y89359D01*
X487650Y89395D01*
X487975Y89423D01*
X488299Y89443D01*
X488625Y89455D01*
X488950Y89459D01*
X489275Y89455D01*
X489601Y89443D01*
X489925Y89423D01*
X490250Y89395D01*
X490573Y89359D01*
X490895Y89315D01*
X491217Y89264D01*
X491537Y89204D01*
X491855Y89137D01*
X492172Y89062D01*
X492486Y88979D01*
X492799Y88888D01*
X493109Y88790D01*
X493417Y88684D01*
X493722Y88571D01*
X494024Y88450D01*
X494323Y88322D01*
X494619Y88186D01*
X494911Y88043D01*
X495200Y87893D01*
X495485Y87736D01*
X495766Y87573D01*
X496044Y87402D01*
X496316Y87224D01*
X496585Y87040D01*
X496848Y86850D01*
X497107Y86653D01*
X497361Y86449D01*
X497610Y86240D01*
X497854Y86024D01*
X498093Y85803D01*
X498326Y85576D01*
X498553Y85343D01*
X498774Y85104D01*
X498990Y84860D01*
X499199Y84611D01*
X499403Y84357D01*
X499600Y84098D01*
X499790Y83835D01*
X499974Y83566D01*
X500152Y83294D01*
X500323Y83016D01*
X500486Y82735D01*
X500643Y82450D01*
X500793Y82161D01*
X500936Y81869D01*
X501072Y81573D01*
X501200Y81274D01*
X501321Y80972D01*
X501434Y80667D01*
X501540Y80359D01*
X501638Y80049D01*
X501729Y79736D01*
X501812Y79422D01*
X501887Y79105D01*
X501954Y78787D01*
X502014Y78467D01*
X502065Y78145D01*
X502109Y77823D01*
X502145Y77500D01*
X502173Y77175D01*
X502193Y76851D01*
X502205Y76525D01*
X502209Y76200D01*
X502205Y75875D01*
X502193Y75549D01*
X502173Y75225D01*
X502145Y74900D01*
X502109Y74577D01*
X502065Y74255D01*
X502014Y73933D01*
X501954Y73613D01*
X501887Y73295D01*
X501812Y72978D01*
X501729Y72664D01*
X501638Y72351D01*
X501540Y72041D01*
X501434Y71733D01*
X501321Y71428D01*
X501200Y71126D01*
X501072Y70827D01*
X500936Y70531D01*
X500793Y70239D01*
X500643Y69950D01*
X500486Y69665D01*
X500323Y69384D01*
X500152Y69106D01*
X499974Y68834D01*
X499790Y68565D01*
X499600Y68302D01*
X499403Y68043D01*
X499199Y67789D01*
X498990Y67540D01*
X498774Y67296D01*
X498553Y67057D01*
X498326Y66824D01*
X498093Y66597D01*
X497854Y66376D01*
X497610Y66160D01*
X497361Y65951D01*
X497107Y65747D01*
X496848Y65550D01*
X496585Y65360D01*
X496316Y65176D01*
X496044Y64998D01*
X495766Y64827D01*
X495485Y64664D01*
X495200Y64507D01*
X494911Y64357D01*
X494619Y64214D01*
X494323Y64078D01*
X494024Y63950D01*
X493722Y63829D01*
X493417Y63716D01*
X493109Y63610D01*
X492799Y63512D01*
X492486Y63421D01*
X492172Y63338D01*
X491855Y63263D01*
X491537Y63196D01*
X491217Y63136D01*
X490895Y63085D01*
X490573Y63041D01*
X490250Y63005D01*
X489925Y62977D01*
X489601Y62957D01*
X489275Y62945D01*
X488950Y62941D01*
X488625Y62945D01*
X488299Y62957D01*
X487975Y62977D01*
X487650Y63005D01*
X487327Y63041D01*
X487005Y63085D01*
X486683Y63136D01*
X486363Y63196D01*
X486045Y63263D01*
X485728Y63338D01*
X485414Y63421D01*
X485101Y63512D01*
X484791Y63610D01*
X484483Y63716D01*
X484178Y63829D01*
X483876Y63950D01*
X483577Y64078D01*
X483281Y64214D01*
X482989Y64357D01*
X482700Y64507D01*
X482415Y64664D01*
X482134Y64827D01*
X481856Y64998D01*
X481584Y65176D01*
X481315Y65360D01*
X481052Y65550D01*
X480793Y65747D01*
X480539Y65951D01*
X480290Y66160D01*
X480046Y66376D01*
X479807Y66597D01*
X479574Y66824D01*
X479347Y67057D01*
X479126Y67296D01*
X478910Y67540D01*
X478701Y67789D01*
X478497Y68043D01*
X478300Y68302D01*
X478110Y68565D01*
X477926Y68834D01*
X477748Y69106D01*
X477577Y69384D01*
X477414Y69665D01*
X477257Y69950D01*
X477107Y70239D01*
X476964Y70531D01*
X476828Y70827D01*
X476700Y71126D01*
X476579Y71428D01*
X476466Y71733D01*
X476360Y72041D01*
X476262Y72351D01*
X476171Y72664D01*
X476088Y72978D01*
X476013Y73295D01*
X475946Y73613D01*
X475886Y73933D01*
X475835Y74255D01*
X475791Y74577D01*
X475755Y74900D01*
X475727Y75225D01*
X475707Y75549D01*
X475695Y75875D01*
X475691Y76200D01*
D10*
X482600Y76200D02*
X482602Y76359D01*
X482608Y76518D01*
X482618Y76676D01*
X482632Y76835D01*
X482650Y76993D01*
X482671Y77150D01*
X482697Y77307D01*
X482727Y77463D01*
X482760Y77619D01*
X482798Y77773D01*
X482839Y77927D01*
X482884Y78079D01*
X482933Y78230D01*
X482986Y78380D01*
X483042Y78529D01*
X483103Y78676D01*
X483166Y78821D01*
X483234Y78965D01*
X483305Y79108D01*
X483379Y79248D01*
X483457Y79386D01*
X483539Y79523D01*
X483624Y79657D01*
X483712Y79790D01*
X483803Y79920D01*
X483898Y80047D01*
X483996Y80172D01*
X484097Y80295D01*
X484201Y80415D01*
X484308Y80533D01*
X484418Y80648D01*
X484531Y80760D01*
X484646Y80869D01*
X484764Y80975D01*
X484885Y81079D01*
X485009Y81179D01*
X485134Y81276D01*
X485263Y81370D01*
X485393Y81460D01*
X485526Y81548D01*
X485661Y81632D01*
X485798Y81712D01*
X485937Y81790D01*
X486078Y81863D01*
X486220Y81933D01*
X486365Y82000D01*
X486511Y82063D01*
X486658Y82122D01*
X486807Y82178D01*
X486958Y82229D01*
X487109Y82277D01*
X487262Y82321D01*
X487416Y82362D01*
X487570Y82398D01*
X487726Y82431D01*
X487882Y82460D01*
X488039Y82484D01*
X488197Y82505D01*
X488355Y82522D01*
X488513Y82535D01*
X488672Y82544D01*
X488831Y82549D01*
X488990Y82550D01*
X489149Y82547D01*
X489307Y82540D01*
X489466Y82529D01*
X489624Y82514D01*
X489782Y82495D01*
X489939Y82472D01*
X490096Y82446D01*
X490252Y82415D01*
X490407Y82381D01*
X490561Y82342D01*
X490715Y82300D01*
X490867Y82254D01*
X491018Y82204D01*
X491167Y82150D01*
X491316Y82093D01*
X491462Y82032D01*
X491608Y81967D01*
X491751Y81899D01*
X491893Y81827D01*
X492033Y81751D01*
X492171Y81673D01*
X492307Y81590D01*
X492441Y81505D01*
X492572Y81416D01*
X492702Y81323D01*
X492829Y81228D01*
X492953Y81129D01*
X493076Y81027D01*
X493195Y80923D01*
X493312Y80815D01*
X493426Y80704D01*
X493537Y80591D01*
X493646Y80475D01*
X493751Y80356D01*
X493854Y80234D01*
X493953Y80110D01*
X494050Y79984D01*
X494143Y79855D01*
X494233Y79724D01*
X494319Y79590D01*
X494402Y79455D01*
X494482Y79317D01*
X494558Y79178D01*
X494631Y79037D01*
X494700Y78894D01*
X494766Y78749D01*
X494828Y78602D01*
X494886Y78455D01*
X494941Y78305D01*
X494992Y78155D01*
X495039Y78003D01*
X495082Y77850D01*
X495121Y77696D01*
X495157Y77541D01*
X495188Y77385D01*
X495216Y77229D01*
X495240Y77072D01*
X495260Y76914D01*
X495276Y76756D01*
X495288Y76597D01*
X495296Y76438D01*
X495300Y76279D01*
X495300Y76121D01*
X495296Y75962D01*
X495288Y75803D01*
X495276Y75644D01*
X495260Y75486D01*
X495240Y75328D01*
X495216Y75171D01*
X495188Y75015D01*
X495157Y74859D01*
X495121Y74704D01*
X495082Y74550D01*
X495039Y74397D01*
X494992Y74245D01*
X494941Y74095D01*
X494886Y73945D01*
X494828Y73798D01*
X494766Y73651D01*
X494700Y73506D01*
X494631Y73363D01*
X494558Y73222D01*
X494482Y73083D01*
X494402Y72945D01*
X494319Y72810D01*
X494233Y72676D01*
X494143Y72545D01*
X494050Y72416D01*
X493953Y72290D01*
X493854Y72166D01*
X493751Y72044D01*
X493646Y71925D01*
X493537Y71809D01*
X493426Y71696D01*
X493312Y71585D01*
X493195Y71477D01*
X493076Y71373D01*
X492953Y71271D01*
X492829Y71172D01*
X492702Y71077D01*
X492572Y70984D01*
X492441Y70895D01*
X492307Y70810D01*
X492171Y70727D01*
X492033Y70649D01*
X491893Y70573D01*
X491751Y70501D01*
X491608Y70433D01*
X491462Y70368D01*
X491316Y70307D01*
X491167Y70250D01*
X491018Y70196D01*
X490867Y70146D01*
X490715Y70100D01*
X490561Y70058D01*
X490407Y70019D01*
X490252Y69985D01*
X490096Y69954D01*
X489939Y69928D01*
X489782Y69905D01*
X489624Y69886D01*
X489466Y69871D01*
X489307Y69860D01*
X489149Y69853D01*
X488990Y69850D01*
X488831Y69851D01*
X488672Y69856D01*
X488513Y69865D01*
X488355Y69878D01*
X488197Y69895D01*
X488039Y69916D01*
X487882Y69940D01*
X487726Y69969D01*
X487570Y70002D01*
X487416Y70038D01*
X487262Y70079D01*
X487109Y70123D01*
X486958Y70171D01*
X486807Y70222D01*
X486658Y70278D01*
X486511Y70337D01*
X486365Y70400D01*
X486220Y70467D01*
X486078Y70537D01*
X485937Y70610D01*
X485798Y70688D01*
X485661Y70768D01*
X485526Y70852D01*
X485393Y70940D01*
X485263Y71030D01*
X485134Y71124D01*
X485009Y71221D01*
X484885Y71321D01*
X484764Y71425D01*
X484646Y71531D01*
X484531Y71640D01*
X484418Y71752D01*
X484308Y71867D01*
X484201Y71985D01*
X484097Y72105D01*
X483996Y72228D01*
X483898Y72353D01*
X483803Y72480D01*
X483712Y72610D01*
X483624Y72743D01*
X483539Y72877D01*
X483457Y73014D01*
X483379Y73152D01*
X483305Y73292D01*
X483234Y73435D01*
X483166Y73579D01*
X483103Y73724D01*
X483042Y73871D01*
X482986Y74020D01*
X482933Y74170D01*
X482884Y74321D01*
X482839Y74473D01*
X482798Y74627D01*
X482760Y74781D01*
X482727Y74937D01*
X482697Y75093D01*
X482671Y75250D01*
X482650Y75407D01*
X482632Y75565D01*
X482618Y75724D01*
X482608Y75882D01*
X482602Y76041D01*
X482600Y76200D01*
X-78830Y419100D02*
X-78827Y419320D01*
X-78819Y419541D01*
X-78806Y419761D01*
X-78787Y419980D01*
X-78762Y420199D01*
X-78733Y420418D01*
X-78698Y420635D01*
X-78657Y420852D01*
X-78612Y421068D01*
X-78561Y421282D01*
X-78505Y421495D01*
X-78443Y421707D01*
X-78377Y421917D01*
X-78305Y422125D01*
X-78228Y422332D01*
X-78146Y422536D01*
X-78060Y422739D01*
X-77968Y422939D01*
X-77871Y423138D01*
X-77770Y423333D01*
X-77663Y423526D01*
X-77552Y423717D01*
X-77437Y423904D01*
X-77317Y424089D01*
X-77192Y424271D01*
X-77063Y424449D01*
X-76929Y424625D01*
X-76792Y424797D01*
X-76650Y424965D01*
X-76504Y425131D01*
X-76354Y425292D01*
X-76200Y425450D01*
X-76042Y425604D01*
X-75881Y425754D01*
X-75715Y425900D01*
X-75547Y426042D01*
X-75375Y426179D01*
X-75199Y426313D01*
X-75021Y426442D01*
X-74839Y426567D01*
X-74654Y426687D01*
X-74467Y426802D01*
X-74276Y426913D01*
X-74083Y427020D01*
X-73888Y427121D01*
X-73689Y427218D01*
X-73489Y427310D01*
X-73286Y427396D01*
X-73082Y427478D01*
X-72875Y427555D01*
X-72667Y427627D01*
X-72457Y427693D01*
X-72245Y427755D01*
X-72032Y427811D01*
X-71818Y427862D01*
X-71602Y427907D01*
X-71385Y427948D01*
X-71168Y427983D01*
X-70949Y428012D01*
X-70730Y428037D01*
X-70511Y428056D01*
X-70291Y428069D01*
X-70070Y428077D01*
X-69850Y428080D01*
X-69630Y428077D01*
X-69409Y428069D01*
X-69189Y428056D01*
X-68970Y428037D01*
X-68751Y428012D01*
X-68532Y427983D01*
X-68315Y427948D01*
X-68098Y427907D01*
X-67882Y427862D01*
X-67668Y427811D01*
X-67455Y427755D01*
X-67243Y427693D01*
X-67033Y427627D01*
X-66825Y427555D01*
X-66618Y427478D01*
X-66414Y427396D01*
X-66211Y427310D01*
X-66011Y427218D01*
X-65812Y427121D01*
X-65617Y427020D01*
X-65424Y426913D01*
X-65233Y426802D01*
X-65046Y426687D01*
X-64861Y426567D01*
X-64679Y426442D01*
X-64501Y426313D01*
X-64325Y426179D01*
X-64153Y426042D01*
X-63985Y425900D01*
X-63819Y425754D01*
X-63658Y425604D01*
X-63500Y425450D01*
X-63346Y425292D01*
X-63196Y425131D01*
X-63050Y424965D01*
X-62908Y424797D01*
X-62771Y424625D01*
X-62637Y424449D01*
X-62508Y424271D01*
X-62383Y424089D01*
X-62263Y423904D01*
X-62148Y423717D01*
X-62037Y423526D01*
X-61930Y423333D01*
X-61829Y423138D01*
X-61732Y422939D01*
X-61640Y422739D01*
X-61554Y422536D01*
X-61472Y422332D01*
X-61395Y422125D01*
X-61323Y421917D01*
X-61257Y421707D01*
X-61195Y421495D01*
X-61139Y421282D01*
X-61088Y421068D01*
X-61043Y420852D01*
X-61002Y420635D01*
X-60967Y420418D01*
X-60938Y420199D01*
X-60913Y419980D01*
X-60894Y419761D01*
X-60881Y419541D01*
X-60873Y419320D01*
X-60870Y419100D01*
X-60873Y418880D01*
X-60881Y418659D01*
X-60894Y418439D01*
X-60913Y418220D01*
X-60938Y418001D01*
X-60967Y417782D01*
X-61002Y417565D01*
X-61043Y417348D01*
X-61088Y417132D01*
X-61139Y416918D01*
X-61195Y416705D01*
X-61257Y416493D01*
X-61323Y416283D01*
X-61395Y416075D01*
X-61472Y415868D01*
X-61554Y415664D01*
X-61640Y415461D01*
X-61732Y415261D01*
X-61829Y415062D01*
X-61930Y414867D01*
X-62037Y414674D01*
X-62148Y414483D01*
X-62263Y414296D01*
X-62383Y414111D01*
X-62508Y413929D01*
X-62637Y413751D01*
X-62771Y413575D01*
X-62908Y413403D01*
X-63050Y413235D01*
X-63196Y413069D01*
X-63346Y412908D01*
X-63500Y412750D01*
X-63658Y412596D01*
X-63819Y412446D01*
X-63985Y412300D01*
X-64153Y412158D01*
X-64325Y412021D01*
X-64501Y411887D01*
X-64679Y411758D01*
X-64861Y411633D01*
X-65046Y411513D01*
X-65233Y411398D01*
X-65424Y411287D01*
X-65617Y411180D01*
X-65812Y411079D01*
X-66011Y410982D01*
X-66211Y410890D01*
X-66414Y410804D01*
X-66618Y410722D01*
X-66825Y410645D01*
X-67033Y410573D01*
X-67243Y410507D01*
X-67455Y410445D01*
X-67668Y410389D01*
X-67882Y410338D01*
X-68098Y410293D01*
X-68315Y410252D01*
X-68532Y410217D01*
X-68751Y410188D01*
X-68970Y410163D01*
X-69189Y410144D01*
X-69409Y410131D01*
X-69630Y410123D01*
X-69850Y410120D01*
X-70070Y410123D01*
X-70291Y410131D01*
X-70511Y410144D01*
X-70730Y410163D01*
X-70949Y410188D01*
X-71168Y410217D01*
X-71385Y410252D01*
X-71602Y410293D01*
X-71818Y410338D01*
X-72032Y410389D01*
X-72245Y410445D01*
X-72457Y410507D01*
X-72667Y410573D01*
X-72875Y410645D01*
X-73082Y410722D01*
X-73286Y410804D01*
X-73489Y410890D01*
X-73689Y410982D01*
X-73888Y411079D01*
X-74083Y411180D01*
X-74276Y411287D01*
X-74467Y411398D01*
X-74654Y411513D01*
X-74839Y411633D01*
X-75021Y411758D01*
X-75199Y411887D01*
X-75375Y412021D01*
X-75547Y412158D01*
X-75715Y412300D01*
X-75881Y412446D01*
X-76042Y412596D01*
X-76200Y412750D01*
X-76354Y412908D01*
X-76504Y413069D01*
X-76650Y413235D01*
X-76792Y413403D01*
X-76929Y413575D01*
X-77063Y413751D01*
X-77192Y413929D01*
X-77317Y414111D01*
X-77437Y414296D01*
X-77552Y414483D01*
X-77663Y414674D01*
X-77770Y414867D01*
X-77871Y415062D01*
X-77968Y415261D01*
X-78060Y415461D01*
X-78146Y415664D01*
X-78228Y415868D01*
X-78305Y416075D01*
X-78377Y416283D01*
X-78443Y416493D01*
X-78505Y416705D01*
X-78561Y416918D01*
X-78612Y417132D01*
X-78657Y417348D01*
X-78698Y417565D01*
X-78733Y417782D01*
X-78762Y418001D01*
X-78787Y418220D01*
X-78806Y418439D01*
X-78819Y418659D01*
X-78827Y418880D01*
X-78830Y419100D01*
X-81197Y330927D02*
X-79313Y330705D01*
X-77426Y330523D01*
X-75535Y330382D01*
X-73641Y330281D01*
X-71746Y330220D01*
X-69850Y330200D01*
X-91022Y332758D02*
X-92859Y333229D01*
X-94686Y333739D01*
X-96501Y334288D01*
X-98303Y334876D01*
X-100093Y335502D01*
X-101870Y336166D01*
X-110976Y340284D02*
X-112648Y341180D01*
X-114300Y342110D01*
X-115932Y343076D01*
X-117543Y344076D01*
X-119133Y345110D01*
X-120700Y346178D01*
X-128564Y352347D02*
X-129974Y353614D01*
X-131357Y354911D01*
X-132712Y356238D01*
X-134039Y357593D01*
X-135336Y358976D01*
X-136603Y360386D01*
X-142772Y368250D02*
X-143840Y369817D01*
X-144874Y371407D01*
X-145874Y373018D01*
X-146840Y374650D01*
X-147770Y376302D01*
X-148666Y377974D01*
X-152784Y387080D02*
X-153448Y388857D01*
X-154074Y390647D01*
X-154662Y392449D01*
X-155211Y394264D01*
X-155721Y396091D01*
X-156192Y397928D01*
X-158023Y407753D02*
X-158245Y409637D01*
X-158427Y411524D01*
X-158568Y413415D01*
X-158669Y415309D01*
X-158730Y417204D01*
X-158750Y419100D01*
X-158730Y420996D01*
X-158669Y422891D01*
X-158568Y424785D01*
X-158427Y426676D01*
X-158245Y428563D01*
X-158023Y430447D01*
X-156192Y440272D02*
X-155721Y442109D01*
X-155211Y443936D01*
X-154662Y445751D01*
X-154074Y447553D01*
X-153448Y449343D01*
X-152784Y451120D01*
X-148666Y460226D02*
X-147770Y461898D01*
X-146840Y463550D01*
X-145874Y465182D01*
X-144874Y466793D01*
X-143840Y468383D01*
X-142772Y469950D01*
X-136603Y477814D02*
X-135336Y479224D01*
X-134039Y480607D01*
X-132712Y481962D01*
X-131357Y483289D01*
X-129974Y484586D01*
X-128564Y485853D01*
X-120700Y492022D02*
X-119133Y493090D01*
X-117543Y494124D01*
X-115932Y495124D01*
X-114300Y496090D01*
X-112648Y497020D01*
X-110976Y497916D01*
X-101870Y502034D02*
X-100093Y502698D01*
X-98303Y503324D01*
X-96501Y503912D01*
X-94686Y504461D01*
X-92859Y504971D01*
X-91022Y505442D01*
X-81197Y507273D02*
X-79313Y507495D01*
X-77426Y507677D01*
X-75535Y507818D01*
X-73641Y507919D01*
X-71746Y507980D01*
X-69850Y508000D01*
X-67954Y507980D01*
X-66058Y507919D01*
X-64165Y507818D01*
X-62274Y507677D01*
X-60386Y507495D01*
X-58503Y507273D01*
X-48678Y505442D02*
X-46841Y504971D01*
X-45015Y504460D01*
X-43200Y503911D01*
X-41397Y503324D01*
X-39607Y502698D01*
X-37831Y502034D01*
X-28724Y497915D02*
X-27052Y497020D01*
X-25400Y496090D01*
X-23768Y495124D01*
X-22157Y494124D01*
X-20568Y493090D01*
X-19001Y492022D01*
X-11137Y485853D02*
X-9726Y484586D01*
X-8343Y483288D01*
X-6988Y481962D01*
X-5662Y480607D01*
X-4364Y479224D01*
X-3097Y477813D01*
X3072Y469949D02*
X4140Y468382D01*
X5174Y466793D01*
X6174Y465182D01*
X7140Y463550D01*
X8070Y461898D01*
X8965Y460226D01*
X13084Y451119D02*
X13748Y449343D01*
X14374Y447553D01*
X14961Y445750D01*
X15510Y443935D01*
X16021Y442109D01*
X16492Y440272D01*
X18323Y430447D02*
X18545Y428564D01*
X18727Y426676D01*
X18868Y424785D01*
X18969Y422892D01*
X19030Y420996D01*
X19050Y419100D01*
X19030Y417204D01*
X18969Y415308D01*
X18868Y413415D01*
X18727Y411524D01*
X18545Y409636D01*
X18323Y407753D01*
X16492Y397928D02*
X16021Y396091D01*
X15510Y394265D01*
X14961Y392450D01*
X14374Y390647D01*
X13748Y388857D01*
X13084Y387081D01*
X8965Y377974D02*
X8070Y376302D01*
X7140Y374650D01*
X6174Y373018D01*
X5174Y371407D01*
X4140Y369818D01*
X3072Y368251D01*
X-3097Y360387D02*
X-4364Y358976D01*
X-5662Y357593D01*
X-6988Y356238D01*
X-8343Y354912D01*
X-9726Y353614D01*
X-11137Y352347D01*
X-19001Y346178D02*
X-20568Y345110D01*
X-22157Y344076D01*
X-23768Y343076D01*
X-25400Y342110D01*
X-27052Y341180D01*
X-28724Y340285D01*
X-37831Y336166D02*
X-39607Y335502D01*
X-41397Y334876D01*
X-43200Y334289D01*
X-45015Y333740D01*
X-46841Y333229D01*
X-48678Y332758D01*
X-58503Y330927D02*
X-60386Y330705D01*
X-62274Y330523D01*
X-64165Y330382D01*
X-66058Y330281D01*
X-67954Y330220D01*
X-69850Y330200D01*
X-25400Y342900D02*
X-11628Y342900D01*
X-1628Y342900D02*
X12145Y342900D01*
X22145Y342900D02*
X35918Y342900D01*
X45918Y342900D02*
X59690Y342900D01*
X59690Y495300D02*
X45918Y495300D01*
X35918Y495300D02*
X22145Y495300D01*
X12145Y495300D02*
X-1628Y495300D01*
X-11628Y495300D02*
X-25400Y495300D01*
X8183Y419100D02*
X19050Y419100D01*
X-1817Y419100D02*
X-12683Y419100D01*
X-22683Y419100D02*
X-33550Y419100D01*
X-43550Y419100D02*
X-54417Y419100D01*
X-64417Y419100D02*
X-75283Y419100D01*
X-85283Y419100D02*
X-96150Y419100D01*
X-106150Y419100D02*
X-117017Y419100D01*
X-127017Y419100D02*
X-137883Y419100D01*
X-147883Y419100D02*
X-158750Y419100D01*
X-69850Y341067D02*
X-69850Y330200D01*
X-69850Y351067D02*
X-69850Y361933D01*
X-69850Y371933D02*
X-69850Y382800D01*
X-69850Y392800D02*
X-69850Y403667D01*
X-69850Y413667D02*
X-69850Y424533D01*
X-69850Y434533D02*
X-69850Y445400D01*
X-69850Y455400D02*
X-69850Y466267D01*
X-69850Y476267D02*
X-69850Y487133D01*
X-69850Y497133D02*
X-69850Y508000D01*
X59690Y353200D02*
X59690Y342900D01*
X59690Y363200D02*
X59690Y373500D01*
X59690Y383500D02*
X59690Y393800D01*
X59690Y403800D02*
X59690Y414100D01*
X59690Y424100D02*
X59690Y434400D01*
X59690Y444400D02*
X59690Y454700D01*
X59690Y464700D02*
X59690Y475000D01*
X59690Y485000D02*
X59690Y495300D01*
X60960Y383540D02*
X60960Y353060D01*
X60960Y403860D02*
X60960Y434340D01*
X60960Y454660D02*
X60960Y485140D01*
X60960Y353060D02*
X91440Y353060D01*
X91440Y383540D01*
X60960Y383540D01*
X60960Y403860D02*
X91440Y403860D01*
X91440Y434340D01*
X60960Y434340D01*
X60960Y454660D02*
X91440Y454660D01*
X91440Y485140D01*
X60960Y485140D01*
D11*
X97282Y393361D02*
X108458Y393361D01*
X108458Y396466D01*
X108456Y396577D01*
X108450Y396687D01*
X108440Y396798D01*
X108426Y396908D01*
X108409Y397017D01*
X108387Y397126D01*
X108362Y397234D01*
X108332Y397340D01*
X108299Y397446D01*
X108262Y397551D01*
X108222Y397654D01*
X108177Y397755D01*
X108130Y397855D01*
X108078Y397954D01*
X108023Y398050D01*
X107965Y398144D01*
X107904Y398236D01*
X107839Y398326D01*
X107771Y398414D01*
X107700Y398499D01*
X107626Y398581D01*
X107549Y398661D01*
X107469Y398738D01*
X107387Y398812D01*
X107302Y398883D01*
X107214Y398951D01*
X107124Y399016D01*
X107032Y399077D01*
X106938Y399135D01*
X106842Y399190D01*
X106743Y399242D01*
X106643Y399289D01*
X106542Y399334D01*
X106439Y399374D01*
X106334Y399411D01*
X106228Y399444D01*
X106122Y399474D01*
X106014Y399499D01*
X105905Y399521D01*
X105796Y399538D01*
X105686Y399552D01*
X105575Y399562D01*
X105465Y399568D01*
X105354Y399570D01*
X100386Y399570D01*
X100275Y399568D01*
X100165Y399562D01*
X100054Y399552D01*
X99944Y399538D01*
X99835Y399521D01*
X99726Y399499D01*
X99618Y399474D01*
X99512Y399444D01*
X99406Y399411D01*
X99301Y399374D01*
X99198Y399334D01*
X99097Y399289D01*
X98997Y399242D01*
X98898Y399190D01*
X98802Y399135D01*
X98708Y399077D01*
X98616Y399016D01*
X98526Y398951D01*
X98438Y398883D01*
X98353Y398812D01*
X98271Y398738D01*
X98191Y398661D01*
X98114Y398581D01*
X98040Y398499D01*
X97969Y398414D01*
X97901Y398326D01*
X97836Y398236D01*
X97775Y398144D01*
X97717Y398050D01*
X97662Y397954D01*
X97610Y397855D01*
X97563Y397755D01*
X97518Y397654D01*
X97478Y397551D01*
X97441Y397446D01*
X97408Y397340D01*
X97378Y397234D01*
X97353Y397126D01*
X97331Y397017D01*
X97314Y396908D01*
X97300Y396798D01*
X97290Y396687D01*
X97284Y396577D01*
X97282Y396466D01*
X97282Y393361D01*
X97282Y407317D02*
X108458Y404834D01*
X104733Y409801D02*
X97282Y407317D01*
X97282Y412284D02*
X104733Y409801D01*
X108458Y414768D02*
X97282Y412284D01*
X97282Y420060D02*
X97282Y425027D01*
X97282Y420060D02*
X108458Y420060D01*
X108458Y425027D01*
X103491Y423785D02*
X103491Y420060D01*
X108458Y429966D02*
X97282Y429966D01*
X97282Y434933D01*
X97282Y439872D02*
X108458Y439872D01*
X97282Y439872D02*
X97282Y444839D01*
D10*
X670470Y419100D02*
X670473Y419320D01*
X670481Y419541D01*
X670494Y419761D01*
X670513Y419980D01*
X670538Y420199D01*
X670567Y420418D01*
X670602Y420635D01*
X670643Y420852D01*
X670688Y421068D01*
X670739Y421282D01*
X670795Y421495D01*
X670857Y421707D01*
X670923Y421917D01*
X670995Y422125D01*
X671072Y422332D01*
X671154Y422536D01*
X671240Y422739D01*
X671332Y422939D01*
X671429Y423138D01*
X671530Y423333D01*
X671637Y423526D01*
X671748Y423717D01*
X671863Y423904D01*
X671983Y424089D01*
X672108Y424271D01*
X672237Y424449D01*
X672371Y424625D01*
X672508Y424797D01*
X672650Y424965D01*
X672796Y425131D01*
X672946Y425292D01*
X673100Y425450D01*
X673258Y425604D01*
X673419Y425754D01*
X673585Y425900D01*
X673753Y426042D01*
X673925Y426179D01*
X674101Y426313D01*
X674279Y426442D01*
X674461Y426567D01*
X674646Y426687D01*
X674833Y426802D01*
X675024Y426913D01*
X675217Y427020D01*
X675412Y427121D01*
X675611Y427218D01*
X675811Y427310D01*
X676014Y427396D01*
X676218Y427478D01*
X676425Y427555D01*
X676633Y427627D01*
X676843Y427693D01*
X677055Y427755D01*
X677268Y427811D01*
X677482Y427862D01*
X677698Y427907D01*
X677915Y427948D01*
X678132Y427983D01*
X678351Y428012D01*
X678570Y428037D01*
X678789Y428056D01*
X679009Y428069D01*
X679230Y428077D01*
X679450Y428080D01*
X679670Y428077D01*
X679891Y428069D01*
X680111Y428056D01*
X680330Y428037D01*
X680549Y428012D01*
X680768Y427983D01*
X680985Y427948D01*
X681202Y427907D01*
X681418Y427862D01*
X681632Y427811D01*
X681845Y427755D01*
X682057Y427693D01*
X682267Y427627D01*
X682475Y427555D01*
X682682Y427478D01*
X682886Y427396D01*
X683089Y427310D01*
X683289Y427218D01*
X683488Y427121D01*
X683683Y427020D01*
X683876Y426913D01*
X684067Y426802D01*
X684254Y426687D01*
X684439Y426567D01*
X684621Y426442D01*
X684799Y426313D01*
X684975Y426179D01*
X685147Y426042D01*
X685315Y425900D01*
X685481Y425754D01*
X685642Y425604D01*
X685800Y425450D01*
X685954Y425292D01*
X686104Y425131D01*
X686250Y424965D01*
X686392Y424797D01*
X686529Y424625D01*
X686663Y424449D01*
X686792Y424271D01*
X686917Y424089D01*
X687037Y423904D01*
X687152Y423717D01*
X687263Y423526D01*
X687370Y423333D01*
X687471Y423138D01*
X687568Y422939D01*
X687660Y422739D01*
X687746Y422536D01*
X687828Y422332D01*
X687905Y422125D01*
X687977Y421917D01*
X688043Y421707D01*
X688105Y421495D01*
X688161Y421282D01*
X688212Y421068D01*
X688257Y420852D01*
X688298Y420635D01*
X688333Y420418D01*
X688362Y420199D01*
X688387Y419980D01*
X688406Y419761D01*
X688419Y419541D01*
X688427Y419320D01*
X688430Y419100D01*
X688427Y418880D01*
X688419Y418659D01*
X688406Y418439D01*
X688387Y418220D01*
X688362Y418001D01*
X688333Y417782D01*
X688298Y417565D01*
X688257Y417348D01*
X688212Y417132D01*
X688161Y416918D01*
X688105Y416705D01*
X688043Y416493D01*
X687977Y416283D01*
X687905Y416075D01*
X687828Y415868D01*
X687746Y415664D01*
X687660Y415461D01*
X687568Y415261D01*
X687471Y415062D01*
X687370Y414867D01*
X687263Y414674D01*
X687152Y414483D01*
X687037Y414296D01*
X686917Y414111D01*
X686792Y413929D01*
X686663Y413751D01*
X686529Y413575D01*
X686392Y413403D01*
X686250Y413235D01*
X686104Y413069D01*
X685954Y412908D01*
X685800Y412750D01*
X685642Y412596D01*
X685481Y412446D01*
X685315Y412300D01*
X685147Y412158D01*
X684975Y412021D01*
X684799Y411887D01*
X684621Y411758D01*
X684439Y411633D01*
X684254Y411513D01*
X684067Y411398D01*
X683876Y411287D01*
X683683Y411180D01*
X683488Y411079D01*
X683289Y410982D01*
X683089Y410890D01*
X682886Y410804D01*
X682682Y410722D01*
X682475Y410645D01*
X682267Y410573D01*
X682057Y410507D01*
X681845Y410445D01*
X681632Y410389D01*
X681418Y410338D01*
X681202Y410293D01*
X680985Y410252D01*
X680768Y410217D01*
X680549Y410188D01*
X680330Y410163D01*
X680111Y410144D01*
X679891Y410131D01*
X679670Y410123D01*
X679450Y410120D01*
X679230Y410123D01*
X679009Y410131D01*
X678789Y410144D01*
X678570Y410163D01*
X678351Y410188D01*
X678132Y410217D01*
X677915Y410252D01*
X677698Y410293D01*
X677482Y410338D01*
X677268Y410389D01*
X677055Y410445D01*
X676843Y410507D01*
X676633Y410573D01*
X676425Y410645D01*
X676218Y410722D01*
X676014Y410804D01*
X675811Y410890D01*
X675611Y410982D01*
X675412Y411079D01*
X675217Y411180D01*
X675024Y411287D01*
X674833Y411398D01*
X674646Y411513D01*
X674461Y411633D01*
X674279Y411758D01*
X674101Y411887D01*
X673925Y412021D01*
X673753Y412158D01*
X673585Y412300D01*
X673419Y412446D01*
X673258Y412596D01*
X673100Y412750D01*
X672946Y412908D01*
X672796Y413069D01*
X672650Y413235D01*
X672508Y413403D01*
X672371Y413575D01*
X672237Y413751D01*
X672108Y413929D01*
X671983Y414111D01*
X671863Y414296D01*
X671748Y414483D01*
X671637Y414674D01*
X671530Y414867D01*
X671429Y415062D01*
X671332Y415261D01*
X671240Y415461D01*
X671154Y415664D01*
X671072Y415868D01*
X670995Y416075D01*
X670923Y416283D01*
X670857Y416493D01*
X670795Y416705D01*
X670739Y416918D01*
X670688Y417132D01*
X670643Y417348D01*
X670602Y417565D01*
X670567Y417782D01*
X670538Y418001D01*
X670513Y418220D01*
X670494Y418439D01*
X670481Y418659D01*
X670473Y418880D01*
X670470Y419100D01*
X590550Y419100D02*
X590570Y420996D01*
X590631Y422891D01*
X590732Y424785D01*
X590873Y426676D01*
X591055Y428563D01*
X591277Y430447D01*
X593108Y440272D02*
X593579Y442109D01*
X594089Y443936D01*
X594638Y445751D01*
X595226Y447553D01*
X595852Y449343D01*
X596516Y451120D01*
X600634Y460226D02*
X601530Y461898D01*
X602460Y463550D01*
X603426Y465182D01*
X604426Y466793D01*
X605460Y468383D01*
X606528Y469950D01*
X612697Y477814D02*
X613964Y479224D01*
X615261Y480607D01*
X616588Y481962D01*
X617943Y483289D01*
X619326Y484586D01*
X620736Y485853D01*
X628600Y492022D02*
X630167Y493090D01*
X631757Y494124D01*
X633368Y495124D01*
X635000Y496090D01*
X636652Y497020D01*
X638324Y497916D01*
X647430Y502034D02*
X649207Y502698D01*
X650997Y503324D01*
X652799Y503912D01*
X654614Y504461D01*
X656441Y504971D01*
X658278Y505442D01*
X668103Y507273D02*
X669987Y507495D01*
X671874Y507677D01*
X673765Y507818D01*
X675659Y507919D01*
X677554Y507980D01*
X679450Y508000D01*
X681346Y507980D01*
X683241Y507919D01*
X685135Y507818D01*
X687026Y507677D01*
X688913Y507495D01*
X690797Y507273D01*
X700622Y505442D02*
X702459Y504971D01*
X704286Y504461D01*
X706101Y503912D01*
X707903Y503324D01*
X709693Y502698D01*
X711470Y502034D01*
X720576Y497916D02*
X722248Y497020D01*
X723900Y496090D01*
X725532Y495124D01*
X727143Y494124D01*
X728733Y493090D01*
X730300Y492022D01*
X738164Y485853D02*
X739574Y484586D01*
X740957Y483289D01*
X742312Y481962D01*
X743639Y480607D01*
X744936Y479224D01*
X746203Y477814D01*
X752372Y469950D02*
X753440Y468383D01*
X754474Y466793D01*
X755474Y465182D01*
X756440Y463550D01*
X757370Y461898D01*
X758266Y460226D01*
X762384Y451120D02*
X763048Y449343D01*
X763674Y447553D01*
X764262Y445751D01*
X764811Y443936D01*
X765321Y442109D01*
X765792Y440272D01*
X767623Y430447D02*
X767845Y428563D01*
X768027Y426676D01*
X768168Y424785D01*
X768269Y422891D01*
X768330Y420996D01*
X768350Y419100D01*
X768330Y417204D01*
X768269Y415308D01*
X768168Y413415D01*
X768027Y411524D01*
X767845Y409636D01*
X767623Y407753D01*
X765792Y397928D02*
X765321Y396091D01*
X764810Y394265D01*
X764261Y392450D01*
X763674Y390647D01*
X763048Y388857D01*
X762384Y387081D01*
X758265Y377974D02*
X757370Y376302D01*
X756440Y374650D01*
X755474Y373018D01*
X754474Y371407D01*
X753440Y369818D01*
X752372Y368251D01*
X746203Y360387D02*
X744936Y358976D01*
X743638Y357593D01*
X742312Y356238D01*
X740957Y354912D01*
X739574Y353614D01*
X738163Y352347D01*
X730299Y346178D02*
X728732Y345110D01*
X727143Y344076D01*
X725532Y343076D01*
X723900Y342110D01*
X722248Y341180D01*
X720576Y340285D01*
X711469Y336166D02*
X709693Y335502D01*
X707903Y334876D01*
X706100Y334289D01*
X704285Y333740D01*
X702459Y333229D01*
X700622Y332758D01*
X690797Y330927D02*
X688914Y330705D01*
X687026Y330523D01*
X685135Y330382D01*
X683242Y330281D01*
X681346Y330220D01*
X679450Y330200D01*
X677554Y330220D01*
X675658Y330281D01*
X673765Y330382D01*
X671874Y330523D01*
X669986Y330705D01*
X668103Y330927D01*
X658278Y332758D02*
X656441Y333229D01*
X654615Y333740D01*
X652800Y334289D01*
X650997Y334876D01*
X649207Y335502D01*
X647431Y336166D01*
X638324Y340285D02*
X636652Y341180D01*
X635000Y342110D01*
X633368Y343076D01*
X631757Y344076D01*
X630168Y345110D01*
X628601Y346178D01*
X620737Y352347D02*
X619326Y353614D01*
X617943Y354912D01*
X616588Y356238D01*
X615262Y357593D01*
X613964Y358976D01*
X612697Y360387D01*
X606528Y368251D02*
X605460Y369818D01*
X604426Y371407D01*
X603426Y373018D01*
X602460Y374650D01*
X601530Y376302D01*
X600635Y377974D01*
X596516Y387081D02*
X595852Y388857D01*
X595226Y390647D01*
X594639Y392450D01*
X594090Y394265D01*
X593579Y396091D01*
X593108Y397928D01*
X591277Y407753D02*
X591055Y409636D01*
X590873Y411524D01*
X590732Y413415D01*
X590631Y415308D01*
X590570Y417204D01*
X590550Y419100D01*
X603250Y374650D02*
X603250Y360878D01*
X603250Y350878D02*
X603250Y337105D01*
X603250Y327105D02*
X603250Y313333D01*
X603250Y303333D02*
X603250Y289560D01*
X755650Y289560D02*
X755650Y303333D01*
X755650Y313333D02*
X755650Y327105D01*
X755650Y337105D02*
X755650Y350878D01*
X755650Y360878D02*
X755650Y374650D01*
X679450Y341067D02*
X679450Y330200D01*
X679450Y351067D02*
X679450Y361933D01*
X679450Y371933D02*
X679450Y382800D01*
X679450Y392800D02*
X679450Y403667D01*
X679450Y413667D02*
X679450Y424533D01*
X679450Y434533D02*
X679450Y445400D01*
X679450Y455400D02*
X679450Y466267D01*
X679450Y476267D02*
X679450Y487133D01*
X679450Y497133D02*
X679450Y508000D01*
X601417Y419100D02*
X590550Y419100D01*
X611417Y419100D02*
X622283Y419100D01*
X632283Y419100D02*
X643150Y419100D01*
X653150Y419100D02*
X664017Y419100D01*
X674017Y419100D02*
X684883Y419100D01*
X694883Y419100D02*
X705750Y419100D01*
X715750Y419100D02*
X726617Y419100D01*
X736617Y419100D02*
X747483Y419100D01*
X757483Y419100D02*
X768350Y419100D01*
X613550Y289560D02*
X603250Y289560D01*
X623550Y289560D02*
X633850Y289560D01*
X643850Y289560D02*
X654150Y289560D01*
X664150Y289560D02*
X674450Y289560D01*
X684450Y289560D02*
X694750Y289560D01*
X704750Y289560D02*
X715050Y289560D01*
X725050Y289560D02*
X735350Y289560D01*
X745350Y289560D02*
X755650Y289560D01*
X643890Y288290D02*
X613410Y288290D01*
X664210Y288290D02*
X694690Y288290D01*
X715010Y288290D02*
X745490Y288290D01*
X613410Y288290D02*
X613410Y257810D01*
X643890Y257810D01*
X643890Y288290D01*
X664210Y288290D02*
X664210Y257810D01*
X694690Y257810D01*
X694690Y288290D01*
X715010Y288290D02*
X715010Y257810D01*
X745490Y257810D01*
X745490Y288290D01*
D11*
X692891Y291592D02*
X692891Y302768D01*
X689165Y296559D01*
X685440Y302768D01*
X685440Y291592D01*
X678879Y291592D02*
X678879Y302768D01*
X680120Y291592D02*
X677637Y291592D01*
X677637Y302768D02*
X680120Y302768D01*
X673460Y291592D02*
X666009Y302768D01*
X673460Y302768D02*
X666009Y291592D01*
D10*
X288200Y419100D02*
X288203Y419320D01*
X288211Y419541D01*
X288224Y419761D01*
X288243Y419980D01*
X288268Y420199D01*
X288297Y420418D01*
X288332Y420635D01*
X288373Y420852D01*
X288418Y421068D01*
X288469Y421282D01*
X288525Y421495D01*
X288587Y421707D01*
X288653Y421917D01*
X288725Y422125D01*
X288802Y422332D01*
X288884Y422536D01*
X288970Y422739D01*
X289062Y422939D01*
X289159Y423138D01*
X289260Y423333D01*
X289367Y423526D01*
X289478Y423717D01*
X289593Y423904D01*
X289713Y424089D01*
X289838Y424271D01*
X289967Y424449D01*
X290101Y424625D01*
X290238Y424797D01*
X290380Y424965D01*
X290526Y425131D01*
X290676Y425292D01*
X290830Y425450D01*
X290988Y425604D01*
X291149Y425754D01*
X291315Y425900D01*
X291483Y426042D01*
X291655Y426179D01*
X291831Y426313D01*
X292009Y426442D01*
X292191Y426567D01*
X292376Y426687D01*
X292563Y426802D01*
X292754Y426913D01*
X292947Y427020D01*
X293142Y427121D01*
X293341Y427218D01*
X293541Y427310D01*
X293744Y427396D01*
X293948Y427478D01*
X294155Y427555D01*
X294363Y427627D01*
X294573Y427693D01*
X294785Y427755D01*
X294998Y427811D01*
X295212Y427862D01*
X295428Y427907D01*
X295645Y427948D01*
X295862Y427983D01*
X296081Y428012D01*
X296300Y428037D01*
X296519Y428056D01*
X296739Y428069D01*
X296960Y428077D01*
X297180Y428080D01*
X297400Y428077D01*
X297621Y428069D01*
X297841Y428056D01*
X298060Y428037D01*
X298279Y428012D01*
X298498Y427983D01*
X298715Y427948D01*
X298932Y427907D01*
X299148Y427862D01*
X299362Y427811D01*
X299575Y427755D01*
X299787Y427693D01*
X299997Y427627D01*
X300205Y427555D01*
X300412Y427478D01*
X300616Y427396D01*
X300819Y427310D01*
X301019Y427218D01*
X301218Y427121D01*
X301413Y427020D01*
X301606Y426913D01*
X301797Y426802D01*
X301984Y426687D01*
X302169Y426567D01*
X302351Y426442D01*
X302529Y426313D01*
X302705Y426179D01*
X302877Y426042D01*
X303045Y425900D01*
X303211Y425754D01*
X303372Y425604D01*
X303530Y425450D01*
X303684Y425292D01*
X303834Y425131D01*
X303980Y424965D01*
X304122Y424797D01*
X304259Y424625D01*
X304393Y424449D01*
X304522Y424271D01*
X304647Y424089D01*
X304767Y423904D01*
X304882Y423717D01*
X304993Y423526D01*
X305100Y423333D01*
X305201Y423138D01*
X305298Y422939D01*
X305390Y422739D01*
X305476Y422536D01*
X305558Y422332D01*
X305635Y422125D01*
X305707Y421917D01*
X305773Y421707D01*
X305835Y421495D01*
X305891Y421282D01*
X305942Y421068D01*
X305987Y420852D01*
X306028Y420635D01*
X306063Y420418D01*
X306092Y420199D01*
X306117Y419980D01*
X306136Y419761D01*
X306149Y419541D01*
X306157Y419320D01*
X306160Y419100D01*
X306157Y418880D01*
X306149Y418659D01*
X306136Y418439D01*
X306117Y418220D01*
X306092Y418001D01*
X306063Y417782D01*
X306028Y417565D01*
X305987Y417348D01*
X305942Y417132D01*
X305891Y416918D01*
X305835Y416705D01*
X305773Y416493D01*
X305707Y416283D01*
X305635Y416075D01*
X305558Y415868D01*
X305476Y415664D01*
X305390Y415461D01*
X305298Y415261D01*
X305201Y415062D01*
X305100Y414867D01*
X304993Y414674D01*
X304882Y414483D01*
X304767Y414296D01*
X304647Y414111D01*
X304522Y413929D01*
X304393Y413751D01*
X304259Y413575D01*
X304122Y413403D01*
X303980Y413235D01*
X303834Y413069D01*
X303684Y412908D01*
X303530Y412750D01*
X303372Y412596D01*
X303211Y412446D01*
X303045Y412300D01*
X302877Y412158D01*
X302705Y412021D01*
X302529Y411887D01*
X302351Y411758D01*
X302169Y411633D01*
X301984Y411513D01*
X301797Y411398D01*
X301606Y411287D01*
X301413Y411180D01*
X301218Y411079D01*
X301019Y410982D01*
X300819Y410890D01*
X300616Y410804D01*
X300412Y410722D01*
X300205Y410645D01*
X299997Y410573D01*
X299787Y410507D01*
X299575Y410445D01*
X299362Y410389D01*
X299148Y410338D01*
X298932Y410293D01*
X298715Y410252D01*
X298498Y410217D01*
X298279Y410188D01*
X298060Y410163D01*
X297841Y410144D01*
X297621Y410131D01*
X297400Y410123D01*
X297180Y410120D01*
X296960Y410123D01*
X296739Y410131D01*
X296519Y410144D01*
X296300Y410163D01*
X296081Y410188D01*
X295862Y410217D01*
X295645Y410252D01*
X295428Y410293D01*
X295212Y410338D01*
X294998Y410389D01*
X294785Y410445D01*
X294573Y410507D01*
X294363Y410573D01*
X294155Y410645D01*
X293948Y410722D01*
X293744Y410804D01*
X293541Y410890D01*
X293341Y410982D01*
X293142Y411079D01*
X292947Y411180D01*
X292754Y411287D01*
X292563Y411398D01*
X292376Y411513D01*
X292191Y411633D01*
X292009Y411758D01*
X291831Y411887D01*
X291655Y412021D01*
X291483Y412158D01*
X291315Y412300D01*
X291149Y412446D01*
X290988Y412596D01*
X290830Y412750D01*
X290676Y412908D01*
X290526Y413069D01*
X290380Y413235D01*
X290238Y413403D01*
X290101Y413575D01*
X289967Y413751D01*
X289838Y413929D01*
X289713Y414111D01*
X289593Y414296D01*
X289478Y414483D01*
X289367Y414674D01*
X289260Y414867D01*
X289159Y415062D01*
X289062Y415261D01*
X288970Y415461D01*
X288884Y415664D01*
X288802Y415868D01*
X288725Y416075D01*
X288653Y416283D01*
X288587Y416493D01*
X288525Y416705D01*
X288469Y416918D01*
X288418Y417132D01*
X288373Y417348D01*
X288332Y417565D01*
X288297Y417782D01*
X288268Y418001D01*
X288243Y418220D01*
X288224Y418439D01*
X288211Y418659D01*
X288203Y418880D01*
X288200Y419100D01*
X208280Y419100D02*
X208300Y420996D01*
X208361Y422891D01*
X208462Y424785D01*
X208603Y426676D01*
X208785Y428563D01*
X209007Y430447D01*
X210838Y440272D02*
X211309Y442109D01*
X211819Y443936D01*
X212368Y445751D01*
X212956Y447553D01*
X213582Y449343D01*
X214246Y451120D01*
X218364Y460226D02*
X219260Y461898D01*
X220190Y463550D01*
X221156Y465182D01*
X222156Y466793D01*
X223190Y468383D01*
X224258Y469950D01*
X230427Y477814D02*
X231694Y479224D01*
X232991Y480607D01*
X234318Y481962D01*
X235673Y483289D01*
X237056Y484586D01*
X238466Y485853D01*
X246330Y492022D02*
X247897Y493090D01*
X249487Y494124D01*
X251098Y495124D01*
X252730Y496090D01*
X254382Y497020D01*
X256054Y497916D01*
X265160Y502034D02*
X266937Y502698D01*
X268727Y503324D01*
X270529Y503912D01*
X272344Y504461D01*
X274171Y504971D01*
X276008Y505442D01*
X285833Y507273D02*
X287717Y507495D01*
X289604Y507677D01*
X291495Y507818D01*
X293389Y507919D01*
X295284Y507980D01*
X297180Y508000D01*
X299076Y507980D01*
X300971Y507919D01*
X302865Y507818D01*
X304756Y507677D01*
X306643Y507495D01*
X308527Y507273D01*
X318352Y505442D02*
X320189Y504971D01*
X322016Y504461D01*
X323831Y503912D01*
X325633Y503324D01*
X327423Y502698D01*
X329200Y502034D01*
X338306Y497916D02*
X339978Y497020D01*
X341630Y496090D01*
X343262Y495124D01*
X344873Y494124D01*
X346463Y493090D01*
X348030Y492022D01*
X355894Y485853D02*
X357304Y484586D01*
X358687Y483289D01*
X360042Y481962D01*
X361369Y480607D01*
X362666Y479224D01*
X363933Y477814D01*
X370102Y469950D02*
X371170Y468383D01*
X372204Y466793D01*
X373204Y465182D01*
X374170Y463550D01*
X375100Y461898D01*
X375996Y460226D01*
X380114Y451120D02*
X380778Y449343D01*
X381404Y447553D01*
X381992Y445751D01*
X382541Y443936D01*
X383051Y442109D01*
X383522Y440272D01*
X385353Y430447D02*
X385575Y428563D01*
X385757Y426676D01*
X385898Y424785D01*
X385999Y422891D01*
X386060Y420996D01*
X386080Y419100D01*
X386060Y417204D01*
X385999Y415308D01*
X385898Y413415D01*
X385757Y411524D01*
X385575Y409636D01*
X385353Y407753D01*
X383522Y397928D02*
X383051Y396091D01*
X382540Y394265D01*
X381991Y392450D01*
X381404Y390647D01*
X380778Y388857D01*
X380114Y387081D01*
X375995Y377974D02*
X375100Y376302D01*
X374170Y374650D01*
X373204Y373018D01*
X372204Y371407D01*
X371170Y369818D01*
X370102Y368251D01*
X363933Y360387D02*
X362666Y358976D01*
X361368Y357593D01*
X360042Y356238D01*
X358687Y354912D01*
X357304Y353614D01*
X355893Y352347D01*
X348029Y346178D02*
X346462Y345110D01*
X344873Y344076D01*
X343262Y343076D01*
X341630Y342110D01*
X339978Y341180D01*
X338306Y340285D01*
X329199Y336166D02*
X327423Y335502D01*
X325633Y334876D01*
X323830Y334289D01*
X322015Y333740D01*
X320189Y333229D01*
X318352Y332758D01*
X308527Y330927D02*
X306644Y330705D01*
X304756Y330523D01*
X302865Y330382D01*
X300972Y330281D01*
X299076Y330220D01*
X297180Y330200D01*
X295284Y330220D01*
X293388Y330281D01*
X291495Y330382D01*
X289604Y330523D01*
X287716Y330705D01*
X285833Y330927D01*
X276008Y332758D02*
X274171Y333229D01*
X272345Y333740D01*
X270530Y334289D01*
X268727Y334876D01*
X266937Y335502D01*
X265161Y336166D01*
X256054Y340285D02*
X254382Y341180D01*
X252730Y342110D01*
X251098Y343076D01*
X249487Y344076D01*
X247898Y345110D01*
X246331Y346178D01*
X238467Y352347D02*
X237056Y353614D01*
X235673Y354912D01*
X234318Y356238D01*
X232992Y357593D01*
X231694Y358976D01*
X230427Y360387D01*
X224258Y368251D02*
X223190Y369818D01*
X222156Y371407D01*
X221156Y373018D01*
X220190Y374650D01*
X219260Y376302D01*
X218365Y377974D01*
X214246Y387081D02*
X213582Y388857D01*
X212956Y390647D01*
X212369Y392450D01*
X211820Y394265D01*
X211309Y396091D01*
X210838Y397928D01*
X209007Y407753D02*
X208785Y409636D01*
X208603Y411524D01*
X208462Y413415D01*
X208361Y415308D01*
X208300Y417204D01*
X208280Y419100D01*
X220980Y374650D02*
X220980Y360878D01*
X220980Y350878D02*
X220980Y337105D01*
X220980Y327105D02*
X220980Y313333D01*
X220980Y303333D02*
X220980Y289560D01*
X373380Y289560D02*
X373380Y303333D01*
X373380Y313333D02*
X373380Y327105D01*
X373380Y337105D02*
X373380Y350878D01*
X373380Y360878D02*
X373380Y374650D01*
X297180Y341067D02*
X297180Y330200D01*
X297180Y351067D02*
X297180Y361933D01*
X297180Y371933D02*
X297180Y382800D01*
X297180Y392800D02*
X297180Y403667D01*
X297180Y413667D02*
X297180Y424533D01*
X297180Y434533D02*
X297180Y445400D01*
X297180Y455400D02*
X297180Y466267D01*
X297180Y476267D02*
X297180Y487133D01*
X297180Y497133D02*
X297180Y508000D01*
X219147Y419100D02*
X208280Y419100D01*
X229147Y419100D02*
X240013Y419100D01*
X250013Y419100D02*
X260880Y419100D01*
X270880Y419100D02*
X281747Y419100D01*
X291747Y419100D02*
X302613Y419100D01*
X312613Y419100D02*
X323480Y419100D01*
X333480Y419100D02*
X344347Y419100D01*
X354347Y419100D02*
X365213Y419100D01*
X375213Y419100D02*
X386080Y419100D01*
X231280Y289560D02*
X220980Y289560D01*
X241280Y289560D02*
X251580Y289560D01*
X261580Y289560D02*
X271880Y289560D01*
X281880Y289560D02*
X292180Y289560D01*
X302180Y289560D02*
X312480Y289560D01*
X322480Y289560D02*
X332780Y289560D01*
X342780Y289560D02*
X353080Y289560D01*
X363080Y289560D02*
X373380Y289560D01*
X261620Y288290D02*
X231140Y288290D01*
X281940Y288290D02*
X312420Y288290D01*
X332740Y288290D02*
X363220Y288290D01*
X231140Y288290D02*
X231140Y257810D01*
X261620Y257810D01*
X261620Y288290D01*
X281940Y288290D02*
X281940Y257810D01*
X312420Y257810D01*
X312420Y288290D01*
X332740Y288290D02*
X332740Y257810D01*
X363220Y257810D01*
X363220Y288290D01*
D11*
X313909Y291592D02*
X313909Y302768D01*
X317013Y302768D02*
X310804Y302768D01*
X306345Y299664D02*
X306345Y294696D01*
X306345Y299664D02*
X306343Y299775D01*
X306337Y299885D01*
X306327Y299996D01*
X306313Y300106D01*
X306296Y300215D01*
X306274Y300324D01*
X306249Y300432D01*
X306219Y300538D01*
X306186Y300644D01*
X306149Y300749D01*
X306109Y300852D01*
X306064Y300953D01*
X306017Y301053D01*
X305965Y301152D01*
X305910Y301248D01*
X305852Y301342D01*
X305791Y301434D01*
X305726Y301524D01*
X305658Y301612D01*
X305587Y301697D01*
X305513Y301779D01*
X305436Y301859D01*
X305356Y301936D01*
X305274Y302010D01*
X305189Y302081D01*
X305101Y302149D01*
X305011Y302214D01*
X304919Y302275D01*
X304825Y302333D01*
X304729Y302388D01*
X304630Y302440D01*
X304530Y302487D01*
X304429Y302532D01*
X304326Y302572D01*
X304221Y302609D01*
X304115Y302642D01*
X304009Y302672D01*
X303901Y302697D01*
X303792Y302719D01*
X303683Y302736D01*
X303573Y302750D01*
X303462Y302760D01*
X303352Y302766D01*
X303241Y302768D01*
X303130Y302766D01*
X303020Y302760D01*
X302909Y302750D01*
X302799Y302736D01*
X302690Y302719D01*
X302581Y302697D01*
X302473Y302672D01*
X302367Y302642D01*
X302261Y302609D01*
X302156Y302572D01*
X302053Y302532D01*
X301952Y302487D01*
X301852Y302440D01*
X301753Y302388D01*
X301657Y302333D01*
X301563Y302275D01*
X301471Y302214D01*
X301381Y302149D01*
X301293Y302081D01*
X301208Y302010D01*
X301126Y301936D01*
X301046Y301859D01*
X300969Y301779D01*
X300895Y301697D01*
X300824Y301612D01*
X300756Y301524D01*
X300691Y301434D01*
X300630Y301342D01*
X300572Y301248D01*
X300517Y301152D01*
X300465Y301053D01*
X300418Y300953D01*
X300373Y300852D01*
X300333Y300749D01*
X300296Y300644D01*
X300263Y300538D01*
X300233Y300432D01*
X300208Y300324D01*
X300186Y300215D01*
X300169Y300106D01*
X300155Y299996D01*
X300145Y299885D01*
X300139Y299775D01*
X300137Y299664D01*
X300136Y299664D02*
X300136Y294696D01*
X300137Y294696D02*
X300139Y294585D01*
X300145Y294475D01*
X300155Y294364D01*
X300169Y294254D01*
X300186Y294145D01*
X300208Y294036D01*
X300233Y293928D01*
X300263Y293822D01*
X300296Y293716D01*
X300333Y293611D01*
X300373Y293508D01*
X300418Y293407D01*
X300465Y293307D01*
X300517Y293208D01*
X300572Y293112D01*
X300630Y293018D01*
X300691Y292926D01*
X300756Y292836D01*
X300824Y292748D01*
X300895Y292663D01*
X300969Y292581D01*
X301046Y292501D01*
X301126Y292424D01*
X301208Y292350D01*
X301293Y292279D01*
X301381Y292211D01*
X301471Y292146D01*
X301563Y292085D01*
X301657Y292027D01*
X301753Y291972D01*
X301852Y291920D01*
X301952Y291873D01*
X302053Y291828D01*
X302156Y291788D01*
X302261Y291751D01*
X302367Y291718D01*
X302473Y291688D01*
X302581Y291663D01*
X302690Y291641D01*
X302799Y291624D01*
X302909Y291610D01*
X303020Y291600D01*
X303130Y291594D01*
X303241Y291592D01*
X303352Y291594D01*
X303462Y291600D01*
X303573Y291610D01*
X303683Y291624D01*
X303792Y291641D01*
X303901Y291663D01*
X304009Y291688D01*
X304115Y291718D01*
X304221Y291751D01*
X304326Y291788D01*
X304429Y291828D01*
X304530Y291873D01*
X304630Y291920D01*
X304729Y291972D01*
X304825Y292027D01*
X304919Y292085D01*
X305011Y292146D01*
X305101Y292211D01*
X305189Y292279D01*
X305274Y292350D01*
X305356Y292424D01*
X305436Y292501D01*
X305513Y292581D01*
X305587Y292663D01*
X305658Y292748D01*
X305726Y292836D01*
X305791Y292926D01*
X305852Y293018D01*
X305910Y293112D01*
X305965Y293208D01*
X306017Y293307D01*
X306064Y293407D01*
X306109Y293508D01*
X306149Y293611D01*
X306186Y293716D01*
X306219Y293822D01*
X306249Y293928D01*
X306274Y294036D01*
X306296Y294145D01*
X306313Y294254D01*
X306327Y294364D01*
X306337Y294475D01*
X306343Y294585D01*
X306345Y294696D01*
X294534Y291592D02*
X294534Y302768D01*
X288325Y291592D01*
X288325Y302768D01*
X282314Y291592D02*
X277347Y291592D01*
X282314Y291592D02*
X282314Y302768D01*
X277347Y302768D01*
X278589Y297801D02*
X282314Y297801D01*
D10*
X1064170Y419100D02*
X1064173Y419320D01*
X1064181Y419541D01*
X1064194Y419761D01*
X1064213Y419980D01*
X1064238Y420199D01*
X1064267Y420418D01*
X1064302Y420635D01*
X1064343Y420852D01*
X1064388Y421068D01*
X1064439Y421282D01*
X1064495Y421495D01*
X1064557Y421707D01*
X1064623Y421917D01*
X1064695Y422125D01*
X1064772Y422332D01*
X1064854Y422536D01*
X1064940Y422739D01*
X1065032Y422939D01*
X1065129Y423138D01*
X1065230Y423333D01*
X1065337Y423526D01*
X1065448Y423717D01*
X1065563Y423904D01*
X1065683Y424089D01*
X1065808Y424271D01*
X1065937Y424449D01*
X1066071Y424625D01*
X1066208Y424797D01*
X1066350Y424965D01*
X1066496Y425131D01*
X1066646Y425292D01*
X1066800Y425450D01*
X1066958Y425604D01*
X1067119Y425754D01*
X1067285Y425900D01*
X1067453Y426042D01*
X1067625Y426179D01*
X1067801Y426313D01*
X1067979Y426442D01*
X1068161Y426567D01*
X1068346Y426687D01*
X1068533Y426802D01*
X1068724Y426913D01*
X1068917Y427020D01*
X1069112Y427121D01*
X1069311Y427218D01*
X1069511Y427310D01*
X1069714Y427396D01*
X1069918Y427478D01*
X1070125Y427555D01*
X1070333Y427627D01*
X1070543Y427693D01*
X1070755Y427755D01*
X1070968Y427811D01*
X1071182Y427862D01*
X1071398Y427907D01*
X1071615Y427948D01*
X1071832Y427983D01*
X1072051Y428012D01*
X1072270Y428037D01*
X1072489Y428056D01*
X1072709Y428069D01*
X1072930Y428077D01*
X1073150Y428080D01*
X1073370Y428077D01*
X1073591Y428069D01*
X1073811Y428056D01*
X1074030Y428037D01*
X1074249Y428012D01*
X1074468Y427983D01*
X1074685Y427948D01*
X1074902Y427907D01*
X1075118Y427862D01*
X1075332Y427811D01*
X1075545Y427755D01*
X1075757Y427693D01*
X1075967Y427627D01*
X1076175Y427555D01*
X1076382Y427478D01*
X1076586Y427396D01*
X1076789Y427310D01*
X1076989Y427218D01*
X1077188Y427121D01*
X1077383Y427020D01*
X1077576Y426913D01*
X1077767Y426802D01*
X1077954Y426687D01*
X1078139Y426567D01*
X1078321Y426442D01*
X1078499Y426313D01*
X1078675Y426179D01*
X1078847Y426042D01*
X1079015Y425900D01*
X1079181Y425754D01*
X1079342Y425604D01*
X1079500Y425450D01*
X1079654Y425292D01*
X1079804Y425131D01*
X1079950Y424965D01*
X1080092Y424797D01*
X1080229Y424625D01*
X1080363Y424449D01*
X1080492Y424271D01*
X1080617Y424089D01*
X1080737Y423904D01*
X1080852Y423717D01*
X1080963Y423526D01*
X1081070Y423333D01*
X1081171Y423138D01*
X1081268Y422939D01*
X1081360Y422739D01*
X1081446Y422536D01*
X1081528Y422332D01*
X1081605Y422125D01*
X1081677Y421917D01*
X1081743Y421707D01*
X1081805Y421495D01*
X1081861Y421282D01*
X1081912Y421068D01*
X1081957Y420852D01*
X1081998Y420635D01*
X1082033Y420418D01*
X1082062Y420199D01*
X1082087Y419980D01*
X1082106Y419761D01*
X1082119Y419541D01*
X1082127Y419320D01*
X1082130Y419100D01*
X1082127Y418880D01*
X1082119Y418659D01*
X1082106Y418439D01*
X1082087Y418220D01*
X1082062Y418001D01*
X1082033Y417782D01*
X1081998Y417565D01*
X1081957Y417348D01*
X1081912Y417132D01*
X1081861Y416918D01*
X1081805Y416705D01*
X1081743Y416493D01*
X1081677Y416283D01*
X1081605Y416075D01*
X1081528Y415868D01*
X1081446Y415664D01*
X1081360Y415461D01*
X1081268Y415261D01*
X1081171Y415062D01*
X1081070Y414867D01*
X1080963Y414674D01*
X1080852Y414483D01*
X1080737Y414296D01*
X1080617Y414111D01*
X1080492Y413929D01*
X1080363Y413751D01*
X1080229Y413575D01*
X1080092Y413403D01*
X1079950Y413235D01*
X1079804Y413069D01*
X1079654Y412908D01*
X1079500Y412750D01*
X1079342Y412596D01*
X1079181Y412446D01*
X1079015Y412300D01*
X1078847Y412158D01*
X1078675Y412021D01*
X1078499Y411887D01*
X1078321Y411758D01*
X1078139Y411633D01*
X1077954Y411513D01*
X1077767Y411398D01*
X1077576Y411287D01*
X1077383Y411180D01*
X1077188Y411079D01*
X1076989Y410982D01*
X1076789Y410890D01*
X1076586Y410804D01*
X1076382Y410722D01*
X1076175Y410645D01*
X1075967Y410573D01*
X1075757Y410507D01*
X1075545Y410445D01*
X1075332Y410389D01*
X1075118Y410338D01*
X1074902Y410293D01*
X1074685Y410252D01*
X1074468Y410217D01*
X1074249Y410188D01*
X1074030Y410163D01*
X1073811Y410144D01*
X1073591Y410131D01*
X1073370Y410123D01*
X1073150Y410120D01*
X1072930Y410123D01*
X1072709Y410131D01*
X1072489Y410144D01*
X1072270Y410163D01*
X1072051Y410188D01*
X1071832Y410217D01*
X1071615Y410252D01*
X1071398Y410293D01*
X1071182Y410338D01*
X1070968Y410389D01*
X1070755Y410445D01*
X1070543Y410507D01*
X1070333Y410573D01*
X1070125Y410645D01*
X1069918Y410722D01*
X1069714Y410804D01*
X1069511Y410890D01*
X1069311Y410982D01*
X1069112Y411079D01*
X1068917Y411180D01*
X1068724Y411287D01*
X1068533Y411398D01*
X1068346Y411513D01*
X1068161Y411633D01*
X1067979Y411758D01*
X1067801Y411887D01*
X1067625Y412021D01*
X1067453Y412158D01*
X1067285Y412300D01*
X1067119Y412446D01*
X1066958Y412596D01*
X1066800Y412750D01*
X1066646Y412908D01*
X1066496Y413069D01*
X1066350Y413235D01*
X1066208Y413403D01*
X1066071Y413575D01*
X1065937Y413751D01*
X1065808Y413929D01*
X1065683Y414111D01*
X1065563Y414296D01*
X1065448Y414483D01*
X1065337Y414674D01*
X1065230Y414867D01*
X1065129Y415062D01*
X1065032Y415261D01*
X1064940Y415461D01*
X1064854Y415664D01*
X1064772Y415868D01*
X1064695Y416075D01*
X1064623Y416283D01*
X1064557Y416493D01*
X1064495Y416705D01*
X1064439Y416918D01*
X1064388Y417132D01*
X1064343Y417348D01*
X1064302Y417565D01*
X1064267Y417782D01*
X1064238Y418001D01*
X1064213Y418220D01*
X1064194Y418439D01*
X1064181Y418659D01*
X1064173Y418880D01*
X1064170Y419100D01*
X1073150Y508000D02*
X1075046Y507980D01*
X1076941Y507919D01*
X1078835Y507818D01*
X1080726Y507677D01*
X1082613Y507495D01*
X1084497Y507273D01*
X1094322Y505442D02*
X1096159Y504971D01*
X1097986Y504461D01*
X1099801Y503912D01*
X1101603Y503324D01*
X1103393Y502698D01*
X1105170Y502034D01*
X1114276Y497916D02*
X1115948Y497020D01*
X1117600Y496090D01*
X1119232Y495124D01*
X1120843Y494124D01*
X1122433Y493090D01*
X1124000Y492022D01*
X1131864Y485853D02*
X1133274Y484586D01*
X1134657Y483289D01*
X1136012Y481962D01*
X1137339Y480607D01*
X1138636Y479224D01*
X1139903Y477814D01*
X1146072Y469950D02*
X1147140Y468383D01*
X1148174Y466793D01*
X1149174Y465182D01*
X1150140Y463550D01*
X1151070Y461898D01*
X1151966Y460226D01*
X1156084Y451120D02*
X1156748Y449343D01*
X1157374Y447553D01*
X1157962Y445751D01*
X1158511Y443936D01*
X1159021Y442109D01*
X1159492Y440272D01*
X1161323Y430447D02*
X1161545Y428563D01*
X1161727Y426676D01*
X1161868Y424785D01*
X1161969Y422891D01*
X1162030Y420996D01*
X1162050Y419100D01*
X1162030Y417204D01*
X1161969Y415309D01*
X1161868Y413415D01*
X1161727Y411524D01*
X1161545Y409637D01*
X1161323Y407753D01*
X1159492Y397928D02*
X1159021Y396091D01*
X1158511Y394264D01*
X1157962Y392449D01*
X1157374Y390647D01*
X1156748Y388857D01*
X1156084Y387080D01*
X1151966Y377974D02*
X1151070Y376302D01*
X1150140Y374650D01*
X1149174Y373018D01*
X1148174Y371407D01*
X1147140Y369817D01*
X1146072Y368250D01*
X1139903Y360386D02*
X1138636Y358976D01*
X1137339Y357593D01*
X1136012Y356238D01*
X1134657Y354911D01*
X1133274Y353614D01*
X1131864Y352347D01*
X1124000Y346178D02*
X1122433Y345110D01*
X1120843Y344076D01*
X1119232Y343076D01*
X1117600Y342110D01*
X1115948Y341180D01*
X1114276Y340284D01*
X1105170Y336166D02*
X1103393Y335502D01*
X1101603Y334876D01*
X1099801Y334288D01*
X1097986Y333739D01*
X1096159Y333229D01*
X1094322Y332758D01*
X1084497Y330927D02*
X1082613Y330705D01*
X1080726Y330523D01*
X1078835Y330382D01*
X1076941Y330281D01*
X1075046Y330220D01*
X1073150Y330200D01*
X1071254Y330220D01*
X1069358Y330281D01*
X1067465Y330382D01*
X1065574Y330523D01*
X1063686Y330705D01*
X1061803Y330927D01*
X1051978Y332758D02*
X1050141Y333229D01*
X1048315Y333740D01*
X1046500Y334289D01*
X1044697Y334876D01*
X1042907Y335502D01*
X1041131Y336166D01*
X1032024Y340285D02*
X1030352Y341180D01*
X1028700Y342110D01*
X1027068Y343076D01*
X1025457Y344076D01*
X1023868Y345110D01*
X1022301Y346178D01*
X1014437Y352347D02*
X1013026Y353614D01*
X1011643Y354912D01*
X1010288Y356238D01*
X1008962Y357593D01*
X1007664Y358976D01*
X1006397Y360387D01*
X1000228Y368251D02*
X999160Y369818D01*
X998126Y371407D01*
X997126Y373018D01*
X996160Y374650D01*
X995230Y376302D01*
X994335Y377974D01*
X990216Y387081D02*
X989552Y388857D01*
X988926Y390647D01*
X988339Y392450D01*
X987790Y394265D01*
X987279Y396091D01*
X986808Y397928D01*
X984977Y407753D02*
X984755Y409636D01*
X984573Y411524D01*
X984432Y413415D01*
X984331Y415308D01*
X984270Y417204D01*
X984250Y419100D01*
X984270Y420996D01*
X984331Y422892D01*
X984432Y424785D01*
X984573Y426676D01*
X984755Y428564D01*
X984977Y430447D01*
X986808Y440272D02*
X987279Y442109D01*
X987790Y443935D01*
X988339Y445750D01*
X988926Y447553D01*
X989552Y449343D01*
X990216Y451119D01*
X994335Y460226D02*
X995230Y461898D01*
X996160Y463550D01*
X997126Y465182D01*
X998126Y466793D01*
X999160Y468382D01*
X1000228Y469949D01*
X1006397Y477813D02*
X1007664Y479224D01*
X1008962Y480607D01*
X1010288Y481962D01*
X1011643Y483288D01*
X1013026Y484586D01*
X1014437Y485853D01*
X1022301Y492022D02*
X1023868Y493090D01*
X1025457Y494124D01*
X1027068Y495124D01*
X1028700Y496090D01*
X1030352Y497020D01*
X1032024Y497915D01*
X1041131Y502034D02*
X1042907Y502698D01*
X1044697Y503324D01*
X1046500Y503911D01*
X1048315Y504460D01*
X1050141Y504971D01*
X1051978Y505442D01*
X1061803Y507273D02*
X1063686Y507495D01*
X1065574Y507677D01*
X1067465Y507818D01*
X1069358Y507919D01*
X1071254Y507980D01*
X1073150Y508000D01*
X1028700Y495300D02*
X1014928Y495300D01*
X1004928Y495300D02*
X991155Y495300D01*
X981155Y495300D02*
X967383Y495300D01*
X957383Y495300D02*
X943610Y495300D01*
X943610Y342900D02*
X957383Y342900D01*
X967383Y342900D02*
X981155Y342900D01*
X991155Y342900D02*
X1004928Y342900D01*
X1014928Y342900D02*
X1028700Y342900D01*
X995117Y419100D02*
X984250Y419100D01*
X1005117Y419100D02*
X1015983Y419100D01*
X1025983Y419100D02*
X1036850Y419100D01*
X1046850Y419100D02*
X1057717Y419100D01*
X1067717Y419100D02*
X1078583Y419100D01*
X1088583Y419100D02*
X1099450Y419100D01*
X1109450Y419100D02*
X1120317Y419100D01*
X1130317Y419100D02*
X1141183Y419100D01*
X1151183Y419100D02*
X1162050Y419100D01*
X1073150Y497133D02*
X1073150Y508000D01*
X1073150Y487133D02*
X1073150Y476267D01*
X1073150Y466267D02*
X1073150Y455400D01*
X1073150Y445400D02*
X1073150Y434533D01*
X1073150Y424533D02*
X1073150Y413667D01*
X1073150Y403667D02*
X1073150Y392800D01*
X1073150Y382800D02*
X1073150Y371933D01*
X1073150Y361933D02*
X1073150Y351067D01*
X1073150Y341067D02*
X1073150Y330200D01*
X943610Y485000D02*
X943610Y495300D01*
X943610Y475000D02*
X943610Y464700D01*
X943610Y454700D02*
X943610Y444400D01*
X943610Y434400D02*
X943610Y424100D01*
X943610Y414100D02*
X943610Y403800D01*
X943610Y393800D02*
X943610Y383500D01*
X943610Y373500D02*
X943610Y363200D01*
X943610Y353200D02*
X943610Y342900D01*
X942340Y454660D02*
X942340Y485140D01*
X942340Y434340D02*
X942340Y403860D01*
X942340Y383540D02*
X942340Y353060D01*
X942340Y485140D02*
X911860Y485140D01*
X911860Y454660D01*
X942340Y454660D01*
X942340Y434340D02*
X911860Y434340D01*
X911860Y403860D01*
X942340Y403860D01*
X942340Y383540D02*
X911860Y383540D01*
X911860Y353060D01*
X942340Y353060D01*
D11*
X906018Y404671D02*
X894842Y408397D01*
X906018Y412122D01*
X902914Y416722D02*
X897946Y416722D01*
X902914Y416723D02*
X903025Y416725D01*
X903135Y416731D01*
X903246Y416741D01*
X903356Y416755D01*
X903465Y416772D01*
X903574Y416794D01*
X903682Y416819D01*
X903788Y416849D01*
X903894Y416882D01*
X903999Y416919D01*
X904102Y416959D01*
X904203Y417004D01*
X904303Y417051D01*
X904402Y417103D01*
X904498Y417158D01*
X904592Y417216D01*
X904684Y417277D01*
X904774Y417342D01*
X904862Y417410D01*
X904947Y417481D01*
X905029Y417555D01*
X905109Y417632D01*
X905186Y417712D01*
X905260Y417794D01*
X905331Y417879D01*
X905399Y417967D01*
X905464Y418057D01*
X905525Y418149D01*
X905583Y418243D01*
X905638Y418339D01*
X905690Y418438D01*
X905737Y418538D01*
X905782Y418639D01*
X905822Y418742D01*
X905859Y418847D01*
X905892Y418953D01*
X905922Y419059D01*
X905947Y419167D01*
X905969Y419276D01*
X905986Y419385D01*
X906000Y419495D01*
X906010Y419606D01*
X906016Y419716D01*
X906018Y419827D01*
X906016Y419938D01*
X906010Y420048D01*
X906000Y420159D01*
X905986Y420269D01*
X905969Y420378D01*
X905947Y420487D01*
X905922Y420595D01*
X905892Y420701D01*
X905859Y420807D01*
X905822Y420912D01*
X905782Y421015D01*
X905737Y421116D01*
X905690Y421216D01*
X905638Y421315D01*
X905583Y421411D01*
X905525Y421505D01*
X905464Y421597D01*
X905399Y421687D01*
X905331Y421775D01*
X905260Y421860D01*
X905186Y421942D01*
X905109Y422022D01*
X905029Y422099D01*
X904947Y422173D01*
X904862Y422244D01*
X904774Y422312D01*
X904684Y422377D01*
X904592Y422438D01*
X904498Y422496D01*
X904402Y422551D01*
X904303Y422603D01*
X904203Y422650D01*
X904102Y422695D01*
X903999Y422735D01*
X903894Y422772D01*
X903788Y422805D01*
X903682Y422835D01*
X903574Y422860D01*
X903465Y422882D01*
X903356Y422899D01*
X903246Y422913D01*
X903135Y422923D01*
X903025Y422929D01*
X902914Y422931D01*
X897946Y422931D01*
X897835Y422929D01*
X897725Y422923D01*
X897614Y422913D01*
X897504Y422899D01*
X897395Y422882D01*
X897286Y422860D01*
X897178Y422835D01*
X897072Y422805D01*
X896966Y422772D01*
X896861Y422735D01*
X896758Y422695D01*
X896657Y422650D01*
X896557Y422603D01*
X896458Y422551D01*
X896362Y422496D01*
X896268Y422438D01*
X896176Y422377D01*
X896086Y422312D01*
X895998Y422244D01*
X895913Y422173D01*
X895831Y422099D01*
X895751Y422022D01*
X895674Y421942D01*
X895600Y421860D01*
X895529Y421775D01*
X895461Y421687D01*
X895396Y421597D01*
X895335Y421505D01*
X895277Y421411D01*
X895222Y421315D01*
X895170Y421216D01*
X895123Y421116D01*
X895078Y421015D01*
X895038Y420912D01*
X895001Y420807D01*
X894968Y420701D01*
X894938Y420595D01*
X894913Y420487D01*
X894891Y420378D01*
X894874Y420269D01*
X894860Y420159D01*
X894850Y420048D01*
X894844Y419938D01*
X894842Y419827D01*
X894844Y419716D01*
X894850Y419606D01*
X894860Y419495D01*
X894874Y419385D01*
X894891Y419276D01*
X894913Y419167D01*
X894938Y419059D01*
X894968Y418953D01*
X895001Y418847D01*
X895038Y418742D01*
X895078Y418639D01*
X895123Y418538D01*
X895170Y418438D01*
X895222Y418339D01*
X895277Y418243D01*
X895335Y418149D01*
X895396Y418057D01*
X895461Y417967D01*
X895529Y417879D01*
X895600Y417794D01*
X895674Y417712D01*
X895751Y417632D01*
X895831Y417555D01*
X895913Y417481D01*
X895998Y417410D01*
X896086Y417342D01*
X896176Y417277D01*
X896268Y417216D01*
X896362Y417158D01*
X896458Y417103D01*
X896557Y417051D01*
X896657Y417004D01*
X896758Y416959D01*
X896861Y416919D01*
X896966Y416882D01*
X897072Y416849D01*
X897178Y416819D01*
X897286Y416794D01*
X897395Y416772D01*
X897504Y416755D01*
X897614Y416741D01*
X897725Y416731D01*
X897835Y416725D01*
X897946Y416723D01*
X894842Y428562D02*
X906018Y428562D01*
X894842Y428562D02*
X894842Y433529D01*
M02*
