M48
;GenerationSoftware,Autodesk,EAGLE,9.3.2*%
;CreationDate,2021-11-11T18:54:55Z*%
FMAT,2
ICI,OFF
METRIC,TZ,000.000
T8C0.350
T7C0.700
T6C0.813
T5C0.900
T4C0.991
T3C1.000
T2C1.016
T1C1.400
%
G90
M71
T1
X92710Y41910
X24638Y27305
X29718Y27305
X34798Y27305
X62865Y27305
X73025Y27305
X92710Y46990
X67945Y27305
X7620Y46990
X7620Y41910
X7620Y36830
X92710Y36830
T2
X63500Y7620
X21590Y7620
X34290Y7620
X36830Y7620
X77470Y7620
X74930Y7620
X97790Y12700
X24130Y7620
X2540Y15240
X66040Y7620
X41910Y46990
X97790Y15240
X54610Y46990
X26670Y7620
X2540Y12700
T3
X52070Y46990
X44450Y46990
T4
X45720Y39370
X45720Y36830
X45720Y34290
X45720Y31750
X53340Y31750
X53340Y34290
X53340Y36830
X53340Y39370
T5
X50165Y7620
X47625Y7620
X15240Y41910
X20320Y41910
T6
X77470Y20320
X77470Y31750
X50800Y26670
X48260Y26670
X40640Y33020
X38100Y33020
X57150Y33020
X59690Y33020
X7620Y15240
X12700Y15240
X7620Y17780
X12700Y17780
X16510Y20320
X21590Y20320
X86360Y12700
X91440Y12700
X15240Y31750
X20320Y31750
X48260Y13970
X82550Y12700
X77470Y12700
X50800Y20320
X48260Y20320
X82550Y15240
X77470Y15240
X77470Y17780
X82550Y17780
X20320Y34290
X15240Y34290
X50800Y13970
X13970Y12700
X6350Y12700
X55880Y17780
X63500Y17780
X63500Y20320
X55880Y20320
X13970Y36830
X21590Y36830
X83820Y34290
X13970Y39370
X21590Y39370
X85090Y17780
X92710Y17780
X85090Y20320
X92710Y20320
X53340Y7620
X60960Y7620
X13970Y20320
X6350Y20320
X22860Y15240
X15240Y15240
X85090Y15240
X92710Y15240
X15240Y17780
X22860Y17780
X35560Y20320
X35560Y17780
X43180Y17780
X35560Y15240
X43180Y15240
X35560Y12700
X43180Y12700
X63500Y12700
X55880Y12700
X55880Y15240
X63500Y15240
X76200Y34290
X82550Y31750
X16510Y12700
X21590Y12700
X77470Y41910
X82550Y41910
X77470Y36830
X82550Y36830
X77470Y39370
X82550Y39370
X82550Y20320
X43180Y20320
T7
X73660Y20320
X73660Y17780
X66040Y17780
X25400Y12700
X66040Y20320
X33020Y15240
X33020Y12700
X33020Y20320
X33020Y17780
X25400Y17780
X25400Y20320
X73660Y12700
X73660Y15240
X25400Y15240
X66040Y12700
X66040Y15240
T8
X60960Y13970
X27940Y12700
X85090Y13970
X25400Y22860
X7620Y22860
M30